<svg width="60" height="33" viewBox="0 0 60 33" fill="none" xmlns="http://www.w3.org/2000/svg">
<path d="M58.697 32.1086H0.900002V17.3491H58.697V32.1086ZM59.597 16.458H0V32.9998H59.597V16.458Z" fill="black"/>
<path d="M6.83477 25.0772C6.86289 25.4671 7.00352 25.7455 7.24258 25.9126C7.49571 26.0797 7.81915 26.1772 8.2129 26.1772C8.4379 26.1772 8.6629 26.1493 8.8879 26.1076C9.1129 26.0658 9.3379 26.0101 9.54884 25.9266C9.61915 26.0519 9.6754 26.205 9.73165 26.386C9.7879 26.5671 9.81603 26.762 9.81603 26.9569C9.30978 27.1519 8.74727 27.2493 8.1004 27.2493C7.63633 27.2493 7.22852 27.1797 6.90508 27.0544C6.56758 26.9291 6.30039 26.7481 6.08945 26.5253C5.87852 26.3025 5.72383 26.024 5.62539 25.7177C5.52695 25.3974 5.4707 25.0633 5.4707 24.6873C5.4707 24.3253 5.52695 23.9772 5.62539 23.6569C5.72383 23.3367 5.87852 23.0582 6.08945 22.8215C6.30039 22.5848 6.53946 22.3898 6.84883 22.2645C7.14414 22.1253 7.49571 22.0557 7.90352 22.0557C8.25508 22.0557 8.56446 22.1114 8.83165 22.2367C9.09884 22.362 9.3379 22.5291 9.52071 22.7379C9.71759 22.9468 9.85821 23.1974 9.95665 23.4898C10.0551 23.7822 10.0973 24.0886 10.0973 24.4228C10.0973 24.5481 10.0973 24.6595 10.0832 24.7848C10.0692 24.9101 10.0551 24.9936 10.0551 25.0633H6.83477V25.0772ZM8.81759 24.1303C8.80352 23.824 8.71915 23.5734 8.56446 23.3784C8.40977 23.1835 8.18477 23.1 7.90352 23.1C7.58008 23.1 7.32696 23.1835 7.15821 23.3645C6.98946 23.5455 6.89102 23.7962 6.86289 24.1303H8.81759Z" fill="black"/>
<path d="M14.1461 25.982C14.2305 26.1073 14.2867 26.2605 14.343 26.4276C14.3992 26.5947 14.4274 26.8035 14.4274 27.0263C14.1742 27.1238 13.9211 27.1934 13.6961 27.2212C13.4711 27.2491 13.232 27.263 12.993 27.263C12.5711 27.263 12.2055 27.1934 11.8961 27.0681C11.5867 26.9428 11.3336 26.7617 11.1227 26.525C10.9117 26.2883 10.7711 26.0238 10.6586 25.7035C10.5602 25.3833 10.5039 25.0352 10.5039 24.6731C10.5039 24.3111 10.5602 23.963 10.6586 23.6567C10.757 23.3364 10.9117 23.0719 11.1086 22.8352C11.3195 22.5984 11.5727 22.4174 11.868 22.2782C12.1773 22.139 12.5289 22.0693 12.9227 22.0693C13.0633 22.0693 13.1899 22.0693 13.3164 22.0833C13.443 22.0833 13.5555 22.0972 13.668 22.125C13.7805 22.139 13.893 22.1668 13.9914 22.2086C14.1039 22.2364 14.2305 22.2782 14.357 22.3339C14.357 22.4871 14.343 22.6402 14.3008 22.8352C14.2586 23.0301 14.2024 23.1972 14.118 23.3643C13.9211 23.2947 13.7524 23.2529 13.6117 23.239C13.4711 23.2111 13.3024 23.2111 13.1055 23.2111C12.6977 23.2111 12.4023 23.3364 12.1914 23.601C11.9805 23.8655 11.882 24.2276 11.882 24.7149C11.882 25.2301 11.9945 25.62 12.2195 25.8567C12.4445 26.0934 12.7399 26.2187 13.1195 26.2187C13.218 26.2187 13.3024 26.2187 13.3867 26.2187C13.4711 26.2187 13.5414 26.2048 13.6258 26.1909C13.7102 26.1769 13.7805 26.163 13.8649 26.1352C13.9492 26.0516 14.0336 26.0098 14.1461 25.982Z" fill="black"/>
<path d="M16.9461 27.2633C16.5383 27.2633 16.1867 27.1936 15.8773 27.0683C15.582 26.943 15.3289 26.7481 15.132 26.5253C14.9352 26.2886 14.7805 26.024 14.682 25.7038C14.5836 25.3835 14.5273 25.0493 14.5273 24.6873C14.5273 24.3253 14.5836 23.9772 14.682 23.6569C14.7805 23.3367 14.9352 23.0582 15.132 22.8215C15.3289 22.5848 15.582 22.4038 15.8773 22.2645C16.1727 22.1253 16.5383 22.0557 16.9461 22.0557C17.3539 22.0557 17.7055 22.1253 18.0149 22.2645C18.3242 22.4038 18.5774 22.5848 18.7742 22.8215C18.9711 23.0582 19.1258 23.3367 19.2242 23.6569C19.3227 23.9772 19.3649 24.3253 19.3649 24.6873C19.3649 25.0493 19.3227 25.3974 19.2242 25.7038C19.1258 26.024 18.9711 26.2886 18.7742 26.5253C18.5774 26.762 18.3242 26.943 18.0149 27.0683C17.7195 27.2076 17.3539 27.2633 16.9461 27.2633ZM16.9461 26.2329C17.3117 26.2329 17.5649 26.0936 17.7336 25.8291C17.8883 25.5645 17.9727 25.1747 17.9727 24.6734C17.9727 24.1721 17.8883 23.7962 17.7336 23.5177C17.5789 23.2531 17.3117 23.1139 16.9461 23.1139C16.5945 23.1139 16.3273 23.2531 16.1727 23.5177C16.018 23.7822 15.9336 24.1721 15.9336 24.6734C15.9336 25.1747 16.018 25.5506 16.1727 25.8291C16.3414 26.0936 16.5945 26.2329 16.9461 26.2329Z" fill="black"/>
<path d="M20.0254 22.1807C20.1098 22.1668 20.2082 22.1529 20.2926 22.139C20.377 22.125 20.4895 22.125 20.5879 22.125C20.7004 22.125 20.7988 22.125 20.8832 22.139C20.9676 22.1529 21.052 22.1668 21.1504 22.1807C21.1645 22.2086 21.1926 22.2643 21.2066 22.32C21.2207 22.3757 21.2348 22.4453 21.2488 22.5149C21.2629 22.5845 21.277 22.6541 21.277 22.7098C21.291 22.7795 21.291 22.8352 21.3051 22.8769C21.3613 22.7795 21.4316 22.682 21.516 22.5845C21.6004 22.4871 21.6988 22.4035 21.8113 22.32C21.9238 22.2364 22.0645 22.1807 22.2051 22.139C22.3457 22.0972 22.5145 22.0693 22.6973 22.0693C23.4848 22.0693 23.977 22.3617 24.202 22.9605C24.3285 22.7238 24.5113 22.5149 24.7504 22.3339C24.9895 22.1529 25.2848 22.0693 25.6504 22.0693C26.227 22.0693 26.6348 22.2225 26.902 22.5428C27.1692 22.8491 27.3098 23.3364 27.3098 24.0048V27.1516C27.0707 27.1934 26.8457 27.2073 26.6207 27.2073C26.3957 27.2073 26.1707 27.1934 25.9317 27.1516V24.339C25.9317 23.9909 25.8895 23.7263 25.8051 23.5453C25.7207 23.3643 25.5379 23.2668 25.2707 23.2668C25.1582 23.2668 25.0457 23.2807 24.9473 23.3086C24.8348 23.3364 24.7363 23.406 24.652 23.4896C24.5676 23.5731 24.4973 23.6985 24.441 23.8516C24.3848 24.0048 24.3567 24.2136 24.3567 24.4643V27.1516C24.1176 27.1934 23.8926 27.2073 23.6676 27.2073C23.4426 27.2073 23.2176 27.1934 22.9785 27.1516V24.339C22.9785 23.9909 22.9363 23.7263 22.852 23.5453C22.7676 23.3643 22.5848 23.2668 22.3176 23.2668C22.2051 23.2668 22.0926 23.2807 21.9941 23.3086C21.8816 23.3364 21.7832 23.406 21.6988 23.4896C21.6145 23.5871 21.5441 23.7124 21.4879 23.8795C21.4316 24.0466 21.4035 24.2693 21.4035 24.5339V27.1516C21.1645 27.1934 20.9395 27.2073 20.7145 27.2073C20.4895 27.2073 20.2645 27.1934 20.0254 27.1516V22.1807Z" fill="black"/>
<path d="M28.1406 22.1807C28.225 22.1668 28.3234 22.1529 28.4078 22.139C28.4922 22.125 28.6047 22.125 28.7031 22.125C28.8156 22.125 28.9141 22.125 28.9984 22.139C29.0828 22.1529 29.1672 22.1668 29.2656 22.1807C29.2797 22.2086 29.3078 22.2643 29.3219 22.32C29.3359 22.3757 29.35 22.4453 29.3641 22.5149C29.3781 22.5845 29.3922 22.6541 29.3922 22.7098C29.4063 22.7795 29.4063 22.8352 29.4203 22.8769C29.4766 22.7795 29.5469 22.682 29.6313 22.5845C29.7156 22.4871 29.8141 22.4035 29.9266 22.32C30.0391 22.2364 30.1797 22.1807 30.3203 22.139C30.4609 22.0972 30.6297 22.0693 30.8125 22.0693C31.6 22.0693 32.0922 22.3617 32.3172 22.9605C32.4438 22.7238 32.6266 22.5149 32.8656 22.3339C33.1047 22.1529 33.4 22.0693 33.7656 22.0693C34.3422 22.0693 34.75 22.2225 35.0172 22.5428C35.2844 22.8491 35.425 23.3364 35.425 24.0048V27.1516C35.186 27.1934 34.961 27.2073 34.736 27.2073C34.511 27.2073 34.286 27.1934 34.0469 27.1516V24.339C34.0469 23.9909 34.0047 23.7263 33.9203 23.5453C33.8359 23.3643 33.6531 23.2668 33.3859 23.2668C33.2734 23.2668 33.1609 23.2807 33.0625 23.3086C32.95 23.3364 32.8516 23.406 32.7672 23.4896C32.6828 23.5731 32.6125 23.6985 32.5563 23.8516C32.5 24.0048 32.4719 24.2136 32.4719 24.4643V27.1516C32.2328 27.1934 32.0078 27.2073 31.7828 27.2073C31.5578 27.2073 31.3328 27.1934 31.0938 27.1516V24.339C31.0938 23.9909 31.0516 23.7263 30.9672 23.5453C30.8828 23.3643 30.7 23.2668 30.4328 23.2668C30.3203 23.2668 30.2078 23.2807 30.1094 23.3086C29.9969 23.3364 29.8984 23.406 29.8141 23.4896C29.7297 23.5871 29.6594 23.7124 29.6031 23.8795C29.5469 24.0466 29.5188 24.2693 29.5188 24.5339V27.1516C29.2797 27.1934 29.0547 27.2073 28.8297 27.2073C28.6047 27.2073 28.3797 27.1934 28.1406 27.1516V22.1807Z" fill="black"/>
<path d="M37.3504 25.0772C37.3785 25.4671 37.5191 25.7455 37.7582 25.9126C38.0113 26.0797 38.3348 26.1772 38.7285 26.1772C38.9535 26.1772 39.1785 26.1493 39.4035 26.1076C39.6285 26.0658 39.8535 26.0101 40.0645 25.9266C40.1348 26.0519 40.191 26.205 40.2473 26.386C40.3035 26.5671 40.3317 26.762 40.3317 26.9569C39.8254 27.1519 39.2629 27.2493 38.616 27.2493C38.152 27.2493 37.7441 27.1797 37.4207 27.0544C37.0832 26.9291 36.816 26.7481 36.6051 26.5253C36.3941 26.3025 36.2395 26.024 36.141 25.7177C36.0426 25.3974 35.9863 25.0633 35.9863 24.6873C35.9863 24.3253 36.0426 23.9772 36.141 23.6569C36.2395 23.3367 36.3941 23.0582 36.6051 22.8215C36.816 22.5848 37.0551 22.3898 37.3645 22.2645C37.6598 22.1253 38.0113 22.0557 38.4191 22.0557C38.7707 22.0557 39.0801 22.1114 39.3473 22.2367C39.6145 22.362 39.8535 22.5291 40.0363 22.7379C40.2332 22.9468 40.3738 23.1974 40.4723 23.4898C40.5707 23.7822 40.6129 24.0886 40.6129 24.4228C40.6129 24.5481 40.6129 24.6595 40.5988 24.7848C40.5848 24.9101 40.5707 24.9936 40.5707 25.0633H37.3504V25.0772ZM39.3192 24.1303C39.3051 23.824 39.2207 23.5734 39.066 23.3784C38.9113 23.1835 38.6863 23.1 38.4051 23.1C38.0816 23.1 37.8285 23.1835 37.6598 23.3645C37.491 23.5455 37.3926 23.7962 37.3645 24.1303H39.3192Z" fill="black"/>
<path d="M41.2875 22.1807C41.3859 22.1668 41.4703 22.1528 41.5688 22.1389C41.6531 22.125 41.7516 22.125 41.85 22.125C41.9484 22.125 42.0469 22.125 42.1313 22.1389C42.2297 22.1528 42.3141 22.1668 42.4125 22.1807C42.4266 22.2085 42.4547 22.2642 42.4688 22.3199C42.4828 22.3756 42.4969 22.4453 42.5109 22.5149C42.525 22.5845 42.5391 22.6541 42.5391 22.7237C42.5531 22.7934 42.5531 22.8491 42.5672 22.8908C42.7078 22.6959 42.8906 22.5149 43.0875 22.3617C43.2984 22.2085 43.5516 22.125 43.8609 22.125C43.9313 22.125 44.0016 22.125 44.0859 22.1389C44.1703 22.1389 44.2266 22.1528 44.2688 22.1668C44.2828 22.2364 44.2969 22.306 44.2969 22.3896C44.2969 22.4731 44.3109 22.5566 44.3109 22.6541C44.3109 22.7655 44.3109 22.8769 44.2969 23.0161C44.2828 23.1415 44.2688 23.2668 44.2406 23.3782C44.1703 23.3642 44.0859 23.3642 44.0016 23.3642C43.9172 23.3642 43.8609 23.3642 43.8469 23.3642C43.7344 23.3642 43.6078 23.3782 43.4813 23.3921C43.3406 23.4199 43.2141 23.4756 43.0875 23.5731C42.9609 23.6706 42.8625 23.8098 42.7781 24.0047C42.6938 24.1997 42.6516 24.4642 42.6516 24.8123V27.1794C42.5391 27.1934 42.4125 27.2073 42.3 27.2212C42.1875 27.2212 42.075 27.2351 41.9625 27.2351C41.85 27.2351 41.7375 27.2351 41.625 27.2212C41.5125 27.2212 41.4 27.2073 41.2734 27.1794V22.1807H41.2875Z" fill="black"/>
<path d="M47.982 25.982C48.0664 26.1073 48.1227 26.2605 48.1789 26.4276C48.2352 26.5947 48.2633 26.8035 48.2633 27.0263C48.0102 27.1238 47.757 27.1934 47.532 27.2212C47.307 27.2491 47.068 27.263 46.8289 27.263C46.407 27.263 46.0414 27.1934 45.732 27.0681C45.4227 26.9428 45.1695 26.7617 44.9586 26.525C44.7477 26.2883 44.607 26.0238 44.4945 25.7035C44.3961 25.3833 44.3398 25.0352 44.3398 24.6731C44.3398 24.3111 44.3961 23.963 44.4945 23.6567C44.593 23.3364 44.7477 23.0719 44.9445 22.8352C45.1555 22.5984 45.4086 22.4174 45.7039 22.2782C46.0133 22.139 46.3649 22.0693 46.7586 22.0693C46.8992 22.0693 47.0258 22.0693 47.1524 22.0833C47.2789 22.0833 47.3914 22.0972 47.5039 22.125C47.6164 22.139 47.7289 22.1668 47.8274 22.2086C47.9399 22.2364 48.0664 22.2782 48.193 22.3339C48.193 22.4871 48.1789 22.6402 48.1367 22.8352C48.0945 23.0301 48.0383 23.1972 47.9539 23.3643C47.757 23.2947 47.5883 23.2529 47.4477 23.239C47.307 23.2111 47.1383 23.2111 46.9414 23.2111C46.5336 23.2111 46.2383 23.3364 46.0273 23.601C45.8164 23.8655 45.718 24.2276 45.718 24.7149C45.718 25.2301 45.8305 25.62 46.0555 25.8567C46.2805 26.0934 46.5758 26.2187 46.9555 26.2187C47.0539 26.2187 47.1383 26.2187 47.2227 26.2187C47.307 26.2187 47.3774 26.2048 47.4617 26.1909C47.5461 26.1769 47.6164 26.163 47.7008 26.1352C47.7711 26.0516 47.8695 26.0098 47.982 25.982Z" fill="black"/>
<path d="M49.7527 25.0772C49.7809 25.4671 49.9215 25.7455 50.1606 25.9126C50.4137 26.0797 50.7371 26.1772 51.1309 26.1772C51.3559 26.1772 51.5809 26.1493 51.8059 26.1076C52.0309 26.0658 52.2559 26.0101 52.4668 25.9266C52.5371 26.0519 52.5934 26.205 52.6496 26.386C52.7059 26.5671 52.734 26.762 52.734 26.9569C52.2277 27.1519 51.6652 27.2493 51.0184 27.2493C50.5543 27.2493 50.1465 27.1797 49.823 27.0544C49.4855 26.9291 49.2184 26.7481 49.0074 26.5253C48.7965 26.3025 48.6418 26.024 48.5434 25.7177C48.4449 25.4114 48.3887 25.0633 48.3887 24.6873C48.3887 24.3253 48.4449 23.9772 48.5434 23.6569C48.6418 23.3367 48.7965 23.0582 49.0074 22.8215C49.2184 22.5848 49.4574 22.3898 49.7668 22.2645C50.0621 22.1253 50.4137 22.0557 50.8215 22.0557C51.1731 22.0557 51.4824 22.1114 51.7496 22.2367C52.0168 22.362 52.2559 22.5291 52.4387 22.7379C52.6356 22.9468 52.7762 23.1974 52.8746 23.4898C52.9731 23.7822 53.0152 24.0886 53.0152 24.4228C53.0152 24.5481 53.0152 24.6595 53.0012 24.7848C52.9871 24.9101 52.9731 24.9936 52.9731 25.0633H49.7527V25.0772ZM51.7215 24.1303C51.7074 23.824 51.6231 23.5734 51.4684 23.3784C51.3137 23.1835 51.0887 23.1 50.8074 23.1C50.484 23.1 50.2309 23.1835 50.0621 23.3645C49.8934 23.5455 49.7949 23.7962 49.7668 24.1303H51.7215Z" fill="black"/>
<path d="M41.0344 7.39355C40.7109 7.39355 40.4719 7.4771 40.3031 7.65811C40.1344 7.83912 40.0359 8.08976 40.0078 8.41001H41.9484C41.9344 8.10368 41.85 7.86697 41.6953 7.67204C41.5266 7.49102 41.3016 7.39355 41.0344 7.39355Z" fill="black"/>
<path d="M20.2648 7.39355C19.9414 7.39355 19.7023 7.4771 19.5336 7.65811C19.3648 7.83912 19.2664 8.08976 19.2383 8.41001H21.1789C21.1648 8.10368 21.0805 7.86697 20.9258 7.67204C20.7711 7.49102 20.5461 7.39355 20.2648 7.39355Z" fill="black"/>
<path d="M0 0V16.5418H59.597V0H0ZM31.6407 4.38608C31.7532 4.37215 31.8657 4.35823 31.9923 4.3443C32.1188 4.33038 32.2313 4.33038 32.3298 4.33038C32.4423 4.33038 32.5548 4.33038 32.6813 4.3443C32.8079 4.35823 32.9345 4.37215 33.0329 4.38608C33.047 4.49747 33.061 4.59494 33.0751 4.70633C33.0751 4.8038 33.0891 4.91519 33.0891 5.02658C33.0891 5.12405 33.0891 5.23544 33.0751 5.34684C33.0751 5.45823 33.061 5.5557 33.0329 5.66709C32.9204 5.68101 32.8079 5.69494 32.6813 5.70886C32.5548 5.70886 32.4423 5.72278 32.3298 5.72278C32.2313 5.72278 32.1048 5.72278 31.9782 5.70886C31.8516 5.70886 31.7251 5.69494 31.6266 5.66709C31.5845 5.45823 31.5704 5.23544 31.5704 5.02658C31.5845 4.81772 31.5985 4.60886 31.6407 4.38608ZM5.97658 4.38608C6.08908 4.37215 6.20158 4.35823 6.32814 4.3443C6.4547 4.33038 6.5672 4.33038 6.66564 4.33038C6.77814 4.33038 6.89064 4.33038 7.0172 4.3443C7.14377 4.35823 7.27033 4.37215 7.36877 4.38608C7.38283 4.49747 7.39689 4.59494 7.41096 4.70633C7.41096 4.8038 7.42502 4.91519 7.42502 5.02658C7.42502 5.12405 7.42502 5.23544 7.41096 5.34684C7.41096 5.45823 7.39689 5.5557 7.36877 5.66709C7.25627 5.68101 7.14377 5.69494 7.0172 5.70886C6.89064 5.70886 6.77814 5.72278 6.66564 5.72278C6.5672 5.72278 6.4547 5.72278 6.31408 5.70886C6.18752 5.70886 6.06095 5.69494 5.96251 5.66709C5.92033 5.45823 5.90626 5.23544 5.90626 5.02658C5.92033 4.81772 5.93439 4.60886 5.97658 4.38608ZM7.50939 11.3899C7.28439 11.4316 7.05939 11.4456 6.83439 11.4456C6.62345 11.4456 6.39845 11.4316 6.17345 11.3899V7.50506H5.52658C5.51251 7.42152 5.49845 7.33797 5.48439 7.24051C5.48439 7.15696 5.48439 7.05949 5.48439 6.98987C5.48439 6.82278 5.49845 6.6557 5.54064 6.48861H7.52346V11.3899H7.50939ZM12.6563 11.3899C12.4313 11.4316 12.1922 11.4456 11.9813 11.4456C11.7563 11.4456 11.5313 11.4316 11.3063 11.3899V8.61899C11.3063 8.27089 11.25 8.02025 11.1516 7.82532C11.0532 7.6443 10.8563 7.54684 10.6032 7.54684C10.4907 7.54684 10.3781 7.56076 10.2656 7.58861C10.1531 7.61646 10.0407 7.68608 9.95627 7.76962C9.85784 7.86709 9.78752 7.9924 9.73127 8.15949C9.67502 8.32658 9.6469 8.53544 9.6469 8.8V11.3759C9.4219 11.4177 9.1969 11.4316 8.9719 11.4316C8.7469 11.4316 8.5219 11.4177 8.2969 11.3759V6.47468C8.38127 6.46076 8.47971 6.44684 8.56408 6.43291C8.64846 6.41899 8.7469 6.41899 8.8594 6.41899C8.9719 6.41899 9.07033 6.41899 9.14065 6.43291C9.22502 6.44684 9.3094 6.46076 9.39377 6.47468C9.40784 6.50253 9.43596 6.55823 9.45002 6.61392C9.46409 6.66962 9.47815 6.73924 9.49221 6.80886C9.50627 6.87848 9.52034 6.93418 9.52034 7.0038C9.5344 7.07342 9.5344 7.11519 9.54846 7.17089C9.61877 7.07342 9.68909 6.97595 9.77346 6.89241C9.85784 6.79494 9.97034 6.71139 10.0828 6.64177C10.1953 6.57215 10.336 6.50253 10.4766 6.46076C10.6172 6.41899 10.786 6.39114 10.9688 6.39114C11.5313 6.39114 11.9532 6.5443 12.2344 6.85063C12.5157 7.15696 12.6563 7.63038 12.6563 8.28481V11.3899ZM15.6797 11.4316C15.5391 11.4316 15.4266 11.4456 15.3422 11.4456C15.2438 11.4456 15.1313 11.4456 15.0188 11.4316C14.8922 11.4316 14.7797 11.4038 14.6672 11.3899L12.811 6.48861C12.9657 6.46076 13.1063 6.43291 13.2328 6.43291C13.3594 6.43291 13.4719 6.41899 13.5703 6.41899C13.6969 6.41899 13.8235 6.41899 13.95 6.43291C14.0766 6.44684 14.1891 6.46076 14.3016 6.47468L15.3844 10.1367L16.4532 6.47468C16.5657 6.46076 16.6782 6.44684 16.8047 6.43291C16.9313 6.41899 17.0438 6.41899 17.1704 6.41899C17.2688 6.41899 17.3813 6.41899 17.5079 6.43291C17.6344 6.44684 17.775 6.46076 17.9297 6.48861L16.0454 11.3899C15.9329 11.4038 15.8063 11.4177 15.6797 11.4316ZM22.4438 9.06456C22.4297 9.17595 22.4297 9.27342 22.4157 9.34304H19.2375C19.2657 9.71899 19.3922 9.99747 19.6454 10.1646C19.8844 10.3316 20.2079 10.4152 20.6016 10.4152C20.8126 10.4152 21.0375 10.3873 21.2626 10.3595C21.4876 10.3177 21.7126 10.262 21.9094 10.1785C21.9797 10.3038 22.036 10.457 22.0922 10.638C22.1485 10.819 22.1766 11 22.1766 11.2089C21.6844 11.4038 21.1219 11.4873 20.4891 11.4873C20.025 11.4873 19.6313 11.4177 19.3079 11.2924C18.9844 11.1671 18.7032 10.9861 18.5063 10.7633C18.2954 10.5405 18.1407 10.2759 18.0422 9.9557C17.9438 9.64937 17.8875 9.30126 17.8875 8.93924C17.8875 8.57721 17.9438 8.24304 18.0422 7.92278C18.1407 7.60253 18.2954 7.33797 18.4922 7.10127C18.6891 6.86456 18.9422 6.68354 19.2375 6.5443C19.5329 6.40506 19.8844 6.33544 20.2782 6.33544C20.6297 6.33544 20.9251 6.39114 21.2063 6.51646C21.4735 6.64177 21.6985 6.79494 21.8954 7.0038C22.0782 7.21266 22.2329 7.46329 22.3172 7.7557C22.4157 8.0481 22.4579 8.35443 22.4579 8.68861C22.4579 8.82785 22.4579 8.95316 22.4438 9.06456ZM27.436 11.3899C27.211 11.4316 26.9719 11.4456 26.761 11.4456C26.536 11.4456 26.311 11.4316 26.086 11.3899V8.61899C26.086 8.27089 26.0298 8.02025 25.9313 7.82532C25.8188 7.6443 25.636 7.54684 25.3829 7.54684C25.2704 7.54684 25.1579 7.56076 25.0454 7.58861C24.9329 7.61646 24.8204 7.68608 24.736 7.76962C24.6376 7.86709 24.5672 7.9924 24.511 8.15949C24.4547 8.32658 24.4266 8.53544 24.4266 8.8V11.3759C24.2016 11.4177 23.9766 11.4316 23.7516 11.4316C23.5266 11.4316 23.3016 11.4177 23.0766 11.3759V6.47468C23.161 6.46076 23.2594 6.44684 23.3438 6.43291C23.4282 6.41899 23.5266 6.41899 23.6391 6.41899C23.7516 6.41899 23.8501 6.41899 23.9204 6.43291C24.0047 6.44684 24.0891 6.46076 24.1735 6.47468C24.1876 6.50253 24.2157 6.55823 24.2297 6.61392C24.2438 6.66962 24.2579 6.73924 24.2719 6.80886C24.286 6.87848 24.3001 6.93418 24.3001 7.0038C24.3141 7.07342 24.3141 7.11519 24.3282 7.17089C24.3985 7.07342 24.4688 6.97595 24.5532 6.89241C24.6376 6.79494 24.7501 6.71139 24.8626 6.64177C24.9751 6.57215 25.1157 6.50253 25.2563 6.46076C25.3969 6.41899 25.5657 6.39114 25.7485 6.39114C26.311 6.39114 26.7329 6.5443 27.0141 6.85063C27.2954 7.15696 27.436 7.63038 27.436 8.28481V11.3899ZM30.7829 11.2089C30.7829 11.2506 30.7688 11.3063 30.7688 11.3481C30.4735 11.4177 30.1641 11.4595 29.8548 11.4595C29.2782 11.4595 28.8282 11.3203 28.5188 11.0557C28.2094 10.7911 28.0548 10.3456 28.0548 9.74684V5.70886C28.0548 5.65316 28.0969 5.65316 28.0969 5.65316L29.1798 5.06835H29.4048V6.50253H30.5719C30.586 6.6 30.6001 6.68354 30.6141 6.75316C30.6141 6.82278 30.6282 6.90633 30.6282 6.98987C30.6282 7.07342 30.6282 7.17089 30.6141 7.24051C30.6141 7.32405 30.6001 7.42152 30.5719 7.51899H29.4048V9.45443C29.4048 9.64937 29.4188 9.80253 29.4469 9.92785C29.4751 10.0532 29.5313 10.1367 29.5876 10.2063C29.6438 10.2759 29.7282 10.3177 29.8126 10.3456C29.8969 10.3734 30.0094 10.3873 30.136 10.3873C30.2344 10.3873 30.3188 10.3734 30.4173 10.3595C30.5157 10.3456 30.586 10.3316 30.6563 10.3177C30.6985 10.443 30.7266 10.5684 30.7548 10.6937C30.7688 10.819 30.7829 10.9443 30.7829 11.0418C30.7969 11.0975 30.7829 11.1532 30.7829 11.2089ZM33.1735 11.3899C32.9485 11.4316 32.7235 11.4456 32.4985 11.4456C32.2876 11.4456 32.0626 11.4316 31.8376 11.3899V7.50506H31.1907C31.1766 7.42152 31.1626 7.33797 31.1485 7.24051C31.1345 7.14304 31.1345 7.05949 31.1345 6.97595C31.1345 6.80886 31.1485 6.64177 31.1907 6.47468H33.1735V11.3899ZM36.4923 11.4316C36.3517 11.4316 36.2392 11.4456 36.1548 11.4456C36.0563 11.4456 35.9438 11.4456 35.8313 11.4316C35.7048 11.4316 35.5923 11.4038 35.4798 11.3899L33.6235 6.50253C33.7782 6.47468 33.9188 6.44684 34.0454 6.44684C34.172 6.44684 34.2845 6.43291 34.3829 6.43291C34.5095 6.43291 34.636 6.43291 34.7626 6.44684C34.8891 6.44684 35.0016 6.47468 35.1141 6.48861L36.197 10.1506L37.2657 6.48861C37.3782 6.47468 37.4907 6.46076 37.6173 6.44684C37.7438 6.43291 37.8563 6.43291 37.9829 6.43291C38.0813 6.43291 38.1938 6.43291 38.3204 6.44684C38.447 6.44684 38.5876 6.47468 38.7423 6.50253L36.8579 11.4038C36.7595 11.4038 36.6329 11.4177 36.4923 11.4316ZM43.2142 9.06456C43.2001 9.17595 43.2001 9.27342 43.186 9.34304H40.0079C40.036 9.71899 40.1626 9.99747 40.4157 10.1646C40.6548 10.3316 40.9782 10.4152 41.372 10.4152C41.5829 10.4152 41.8079 10.3873 42.0329 10.3595C42.2579 10.3177 42.4829 10.262 42.6798 10.1785C42.7501 10.3038 42.8064 10.457 42.8626 10.638C42.9189 10.819 42.947 11 42.947 11.2089C42.4548 11.4038 41.8782 11.4873 41.2595 11.4873C40.7954 11.4873 40.4017 11.4177 40.0782 11.2924C39.7548 11.1671 39.4735 10.9861 39.2767 10.7633C39.0657 10.5405 38.911 10.2759 38.8126 9.9557C38.7142 9.64937 38.6579 9.30126 38.6579 8.93924C38.6579 8.57721 38.7142 8.24304 38.8126 7.92278C38.911 7.60253 39.0657 7.33797 39.2626 7.10127C39.4595 6.86456 39.7126 6.68354 40.0079 6.5443C40.3032 6.40506 40.6548 6.33544 41.0485 6.33544C41.4001 6.33544 41.6954 6.39114 41.9626 6.51646C42.2298 6.64177 42.4548 6.79494 42.6517 7.0038C42.8485 7.21266 42.9892 7.46329 43.0735 7.7557C43.172 8.0481 43.2142 8.35443 43.2142 8.68861C43.2282 8.82785 43.2142 8.95316 43.2142 9.06456Z" fill="black"/>
</svg>
