<svg width="33" height="33" viewBox="0 0 33 33" fill="none" xmlns="http://www.w3.org/2000/svg">
<path d="M14.6639 10.9917C14.6639 11.7113 14.4406 12.4308 14.0436 13.0263C13.6466 13.6466 13.0759 14.118 12.406 14.391C11.7361 14.6639 10.9917 14.7383 10.297 14.5895C9.57744 14.4406 8.93233 14.0932 8.41128 13.597C7.89023 13.0759 7.54286 12.4308 7.4188 11.7113C7.26993 10.9917 7.34436 10.2722 7.61729 9.60226C7.89023 8.93233 8.36165 8.36165 8.95714 7.96466C9.55263 7.56767 10.2722 7.34436 10.9917 7.34436C11.9594 7.34436 12.9023 7.74135 13.597 8.41128C14.2669 9.10602 14.6639 10.0241 14.6639 10.9917ZM22.0083 7.34436C21.2887 7.34436 20.5692 7.56767 19.9737 7.96466C19.3534 8.36165 18.882 8.93233 18.609 9.60226C18.3361 10.2722 18.2617 11.0165 18.4105 11.7113C18.5594 12.4308 18.9068 13.0759 19.403 13.597C19.8992 14.118 20.5692 14.4654 21.2887 14.5895C22.0083 14.7135 22.7278 14.6639 23.3977 14.391C24.0677 14.118 24.6383 13.6466 25.0353 13.0511C25.4323 12.4556 25.6556 11.7361 25.6556 11.0165C25.6556 10.5451 25.5564 10.0489 25.3827 9.60226C25.209 9.15564 24.9361 8.75865 24.5887 8.41128C24.2414 8.06391 23.8444 7.79098 23.3977 7.61729C22.9511 7.4188 22.4797 7.34436 22.0083 7.34436ZM10.9917 18.3361C10.2722 18.3361 9.55263 18.5594 8.95714 18.9564C8.36165 19.3534 7.89023 19.9241 7.61729 20.594C7.34436 21.2639 7.26993 22.0083 7.4188 22.703C7.56767 23.4226 7.91504 24.0677 8.41128 24.5887C8.93233 25.1098 9.57744 25.4571 10.297 25.5812C11.0165 25.7301 11.7361 25.6556 12.406 25.3827C13.0759 25.1098 13.6466 24.6383 14.0436 24.0429C14.4406 23.4474 14.6639 22.7278 14.6639 22.0083C14.6639 21.0406 14.2669 20.0977 13.597 19.403C12.9023 18.7083 11.9594 18.3361 10.9917 18.3361ZM22.0083 18.3361C21.2887 18.3361 20.5692 18.5594 19.9737 18.9564C19.3534 19.3534 18.882 19.9241 18.609 20.594C18.3361 21.2639 18.2617 22.0083 18.4105 22.703C18.5594 23.4226 18.9068 24.0677 19.403 24.5887C19.9241 25.1098 20.5692 25.4571 21.2887 25.5812C22.0083 25.7301 22.7278 25.6556 23.3977 25.3827C24.0677 25.1098 24.6383 24.6383 25.0353 24.0429C25.4323 23.4474 25.6556 22.7278 25.6556 22.0083C25.6556 21.0406 25.2586 20.0977 24.5887 19.403C23.894 18.7083 22.9759 18.3361 22.0083 18.3361ZM0 3.67218V29.3278C0 30.2955 0.396993 31.2383 1.06692 31.9083C1.76165 32.603 2.6797 32.9752 3.67218 32.9752H29.3526L25.7053 29.3278L3.67218 29.303V3.67218H29.3526V33C30.3203 33 31.2632 32.603 31.9331 31.9083C32.6278 31.2135 33 30.2955 33 29.3278V3.67218C33 2.70451 32.603 1.76165 31.9331 1.06692C31.2383 0.372181 30.3203 0 29.3278 0H3.64737C2.6797 0 1.76165 0.396993 1.06692 1.06692C0.396993 1.76165 0 2.70451 0 3.67218Z" fill="black"/>
</svg>
