<svg width="62" height="15" viewBox="0 0 62 15" fill="none" xmlns="http://www.w3.org/2000/svg">
<path d="M4.80907 3.82031C3.78336 3.82031 2.79128 4.01215 2.0346 4.37839C1.29475 4.76207 0 5.91312 0 8.11056V14.1971H2.42135V8.68608C2.42135 8.3896 2.45498 7.53504 2.50542 7.30832C2.72402 6.19216 3.51432 5.91312 4.67455 5.91312C4.79225 5.91312 4.92677 5.91312 5.0781 5.93056L5.64981 3.87263C5.43122 3.83775 5.04447 3.82031 4.80907 3.82031Z" fill="black"/>
<path d="M7.61852 7.98764C7.71941 6.95868 8.35838 5.54604 9.85491 5.54604C11.4691 5.54604 11.8559 7.06332 11.8391 7.9702L7.61852 7.98764ZM14.1091 8.68524C14.1091 6.4878 13.117 3.83691 9.97261 3.83691C6.89548 3.83691 5.28125 6.43548 5.28125 9.191C5.28125 12.243 7.11408 14.2486 10.2248 14.2486C11.6037 14.2486 12.7471 13.9696 13.571 13.6208L13.2179 11.8768C12.4948 12.1558 11.6877 12.3302 10.5611 12.3302C9.03097 12.3302 7.66897 11.5628 7.60171 9.74909H14.025C14.0754 9.50493 14.1091 9.15612 14.1091 8.68524Z" fill="black"/>
<path d="M52.0434 3.82031C51.0177 3.82031 50.0257 4.01215 49.269 4.37839C48.5459 4.74463 47.2344 5.89568 47.2344 8.09312V14.1797H49.6557V8.68608C49.6557 8.3896 49.6894 7.53504 49.7398 7.30832C49.9584 6.19216 50.7487 5.91312 51.9089 5.91312C52.0266 5.91312 52.1612 5.91312 52.3125 5.93056L52.8674 3.87263C52.6656 3.83775 52.2789 3.82031 52.0434 3.82031Z" fill="black"/>
<path d="M54.8322 7.98764C54.9331 6.95868 55.572 5.54604 57.0686 5.54604C58.6828 5.54604 59.0695 7.06332 59.0527 7.9702L54.8322 7.98764ZM61.3395 8.68524C61.3395 6.4878 60.3307 3.83691 57.2031 3.83691C54.126 3.83691 52.5117 6.43548 52.5117 9.191C52.5117 12.243 54.3445 14.2486 57.4553 14.2486C58.8341 14.2486 59.9775 13.9696 60.8183 13.6208L60.4652 11.8768C59.7421 12.1558 58.935 12.3302 57.8084 12.3302C56.2614 12.3302 54.9163 11.5628 54.849 9.74909H61.2723C61.3059 9.50493 61.3395 9.15612 61.3395 8.68524Z" fill="black"/>
<path d="M26.2661 5.99937C24.5006 5.28433 23.7271 4.79601 23.7271 3.73217C23.7271 2.92992 24.3997 2.07536 25.9298 2.07536C27.1741 2.07536 28.0989 2.45904 28.5698 2.72064L29.1751 0.697601C28.4857 0.331361 27.4263 0 25.9803 0C23.1049 0 21.2889 1.72656 21.2889 3.97633C21.2889 5.96449 22.6845 7.16785 24.8873 7.98753C26.5688 8.61537 27.2414 9.22578 27.2414 10.2722C27.2414 11.4058 26.367 12.1557 24.82 12.1557C23.5757 12.1557 22.3987 11.7546 21.6084 11.2663L21.0703 13.3591C21.8102 13.8125 23.2563 14.2311 24.6519 14.2311C28.0821 14.2311 29.7132 12.2778 29.7132 10.0803C29.6964 8.09217 28.5866 6.88881 26.2661 5.99937Z" fill="black"/>
<path d="M34.7402 12.173C33.8154 12.173 33.4959 11.5452 33.4959 10.3244V5.92951H35.1774L35.6986 4.04599H33.4959V1.2207L31.125 2.44151V10.6209C31.125 11.9289 31.3604 12.8358 31.8817 13.4113C32.3357 13.917 33.0923 14.2484 33.9667 14.2484C34.7402 14.2484 35.3624 14.1263 35.7323 13.9868L35.6818 12.0684C35.4128 12.1382 35.1942 12.173 34.7402 12.173Z" fill="black"/>
<path d="M41.1978 12.4182C39.7181 12.4182 38.8101 10.9707 38.8101 9.05232C38.8101 7.39552 39.4995 5.6864 41.2146 5.6864C42.8625 5.6864 43.5351 7.46528 43.5351 9.01744C43.5351 11.0056 42.5767 12.4182 41.1978 12.4182ZM41.2819 3.82031C38.3897 3.82031 36.3047 5.82592 36.3047 9.10464C36.3047 12.2962 38.4066 14.2495 41.1138 14.2495C43.5687 14.2495 46.0405 12.6101 46.0405 8.94768C46.0405 5.91312 44.1404 3.82031 41.2819 3.82031Z" fill="black"/>
<path d="M17.4875 7.32517H17.5043C18.4123 7.32517 19.0009 6.64501 19.0009 5.73813C18.9841 4.79637 18.3955 4.11621 17.5043 4.11621C16.63 4.11621 16.0078 4.79637 16.0078 5.73813C16.0246 6.64501 16.63 7.32517 17.4875 7.32517Z" fill="black"/>
<path d="M17.52 10.8125C16.6456 10.8125 16.0234 11.4927 16.0234 12.4344C16.0234 13.3413 16.6288 14.0389 17.5032 14.0389H17.52C18.428 14.0389 19.0165 13.3413 19.0165 12.4344C18.9829 11.4578 18.3943 10.8125 17.52 10.8125Z" fill="black"/>
</svg>
