<svg width="58" height="18" viewBox="0 0 58 18" fill="none" xmlns="http://www.w3.org/2000/svg">
<path d="M10.9209 0.267578V0.636917L10.988 0.650597C11.6186 0.746351 12.1016 0.910502 12.4102 1.14305C12.7187 1.3756 12.9468 1.67654 13.081 2.04588C13.1346 2.16899 13.1749 2.34682 13.2017 2.56569C13.2286 2.78456 13.242 3.03078 13.2554 3.29069C13.2688 3.55059 13.2822 3.82418 13.2822 4.11144C13.2822 4.39871 13.2956 4.68597 13.2956 4.95956V8.46144C13.2956 8.92653 13.2822 9.40531 13.242 9.88408C13.2151 10.3629 13.1346 10.8416 13.0407 11.3067C12.9468 11.7581 12.7858 12.1959 12.5846 12.6062C12.3833 13.0029 12.1016 13.3586 11.7528 13.6732C11.4039 13.9742 10.9612 14.2204 10.4514 14.3982C9.92812 14.5761 9.28414 14.6581 8.53282 14.6581C7.87542 14.6581 7.2851 14.5487 6.77527 14.3298C6.26545 14.111 5.82271 13.7963 5.47388 13.386C5.12506 12.9756 4.84331 12.4695 4.64207 11.8949C4.44082 11.3067 4.33349 10.6501 4.32008 9.9388C4.32008 9.61049 4.32008 9.29587 4.30666 8.99493C4.30666 8.70767 4.29324 8.40672 4.29324 8.07842V3.94729C4.29324 3.67371 4.29324 3.4138 4.30666 3.1539C4.32008 2.88031 4.32008 2.56569 4.33349 2.21003C4.34691 1.90909 4.41399 1.66286 4.52132 1.47135C4.64207 1.27984 4.77623 1.12937 4.93723 1.01994C5.09823 0.910502 5.28606 0.828427 5.50072 0.77371C5.71538 0.718993 5.91663 0.677955 6.09104 0.650597L6.15812 0.636917V0.267578H0V0.636917L0.0670819 0.650597C0.415908 0.677955 0.724485 0.746351 0.992812 0.855785C1.24772 0.95154 1.4758 1.11569 1.65022 1.33456C1.7173 1.41663 1.77096 1.53975 1.81121 1.7039C1.85146 1.86805 1.87829 2.05956 1.90513 2.26475C1.91854 2.46993 1.93196 2.70248 1.93196 2.94871V6.42323C1.93196 7.16191 1.93196 7.85955 1.91854 8.47512C1.91854 9.077 1.90513 9.58314 1.90513 9.97983C1.90513 10.144 1.91854 10.4039 1.93196 10.7322C1.95879 11.0742 2.02587 11.4572 2.1332 11.8676C2.25395 12.2779 2.42837 12.702 2.66986 13.1261C2.91136 13.5501 3.24676 13.9468 3.68951 14.3025C4.13225 14.6581 4.68232 14.9454 5.36655 15.1506C6.03737 15.3558 6.86919 15.4652 7.84858 15.4652C8.82798 15.4652 9.67321 15.3558 10.3574 15.1369C11.0417 14.918 11.6052 14.6308 12.0345 14.2614C12.4772 13.8921 12.8126 13.4817 13.0541 13.0166C13.2956 12.5652 13.47 12.1138 13.5774 11.6624C13.6847 11.211 13.7518 10.7869 13.7652 10.3765L13.7786 10.1987C13.792 9.88408 13.8055 9.61049 13.8189 9.39163C13.8457 8.47512 13.8725 7.65436 13.886 6.92936C13.8994 6.20437 13.9262 5.54776 13.9396 4.94588C13.9396 4.63125 13.953 4.30295 13.9665 3.98833C13.9799 3.67371 13.9933 3.35908 14.0201 3.07182C14.047 2.78456 14.0738 2.53833 14.114 2.31946C14.1409 2.11427 14.1811 1.95012 14.2214 1.86805C14.3689 1.48503 14.597 1.19777 14.8654 1.01994C15.1471 0.842106 15.5228 0.705314 16.0057 0.636917L16.0728 0.623238V0.267578H10.9209Z" fill="black"/>
<path d="M28.2964 0.267578V0.636917L28.3635 0.650597C28.9941 0.746351 29.4905 0.910502 29.8259 1.14305C30.1613 1.3756 30.3894 1.67654 30.5235 2.04588C30.6309 2.31946 30.6845 2.71616 30.698 3.20861C30.7114 3.71474 30.7248 4.24823 30.7248 4.7954V11.6213L21.2126 0.308616L21.1857 0.267578H16.9327V0.636917L16.9998 0.650597C17.2145 0.677955 17.4426 0.718993 17.6706 0.787389C17.8987 0.842106 18.1134 0.95154 18.3012 1.08833C18.489 1.22512 18.6635 1.41663 18.811 1.66286C18.9586 1.90909 19.0391 2.22371 19.0794 2.60673C19.0928 3.0171 19.1062 3.34541 19.1062 3.61899V6.14965C19.1062 7.06616 19.1062 7.94163 19.0794 8.7487C19.0659 9.55578 19.0391 10.2671 19.0123 10.8553C18.9854 11.635 18.9452 12.319 18.8915 12.8798C18.8379 13.427 18.7171 13.8511 18.5427 14.1246C18.3683 14.4119 18.1134 14.6171 17.8048 14.7402C17.4828 14.8633 17.1608 14.9591 16.8522 15.0001L16.7852 15.0138V15.3831H21.9639V15.0138L21.8968 15.0001C21.3467 14.9317 20.9174 14.8223 20.6088 14.6718C20.3137 14.5213 20.0856 14.2888 19.938 13.9878C19.8038 13.7279 19.7233 13.3039 19.6965 12.7567C19.6563 12.1959 19.6428 11.5529 19.6428 10.8553V2.31946C20.5149 3.30437 21.3467 4.27559 22.1249 5.20578C22.9433 6.17701 23.7885 7.18927 24.6606 8.22889C25.5192 9.25483 26.4315 10.3355 27.3841 11.4709C28.3233 12.5926 29.3831 13.8511 30.537 15.2053C30.6845 15.3558 30.8321 15.4378 30.9663 15.4378C31.0602 15.4378 31.1273 15.4105 31.1809 15.3558C31.2346 15.3011 31.2614 15.2327 31.2614 15.1643V13.81C31.2614 13.3176 31.2614 12.8114 31.248 12.3053C31.248 11.8128 31.2346 11.3204 31.2346 10.8279V9.50106C31.2346 8.58455 31.248 7.70908 31.2614 6.90201C31.2883 6.09493 31.3017 5.38361 31.3285 4.7954C31.3554 4.15248 31.3822 3.55059 31.409 3.00342C31.4359 2.45626 31.4895 2.07324 31.5834 1.88173C31.7444 1.49871 31.9591 1.21145 32.2543 1.03362C32.5494 0.842106 32.9385 0.718993 33.4349 0.650597L33.502 0.636917V0.267578H28.2964Z" fill="black"/>
<path d="M43.8844 0.445801C41.1609 -0.990519 37.2567 1.15712 35.1637 5.26089C33.0708 9.36466 33.5806 13.8514 36.3041 15.3014C37.8336 16.1085 39.7387 15.7939 41.4829 14.6175C41.3889 14.2345 41.3487 13.8514 41.3755 13.4684C41.4024 13.1265 41.4829 12.8255 41.6036 12.5519C40.745 13.017 39.8058 13.2359 38.7459 13.3316C34.6271 13.7147 34.721 9.3373 35.3247 7.2991C36.0895 4.7274 38.2227 2.36089 42.0463 2.2925C45.1589 2.2241 45.9505 6.76561 44.5015 9.46041C44.8369 9.44674 45.1992 9.4057 45.5748 9.26891C46.997 5.5208 46.3396 1.74533 43.8844 0.445801Z" fill="black"/>
<path d="M45.1182 14.303C45.1182 14.3578 45.1182 14.4125 45.1316 14.4398C45.1451 14.4809 45.1585 14.5082 45.1853 14.5356C45.2121 14.563 45.2524 14.5903 45.2926 14.604C45.3463 14.6177 45.4 14.6313 45.4805 14.645C45.5341 14.6587 45.5744 14.6861 45.5744 14.7408C45.5744 14.7681 45.5744 14.7955 45.561 14.8365C45.5073 14.8365 45.4268 14.8365 45.3329 14.8502C45.239 14.8502 45.1585 14.8639 45.0914 14.8776C44.9841 14.8913 44.9036 14.9186 44.8231 14.9323C44.7426 14.946 44.6889 14.9596 44.6487 14.9596C44.5816 14.9596 44.5547 14.9186 44.5547 14.8502V14.3304C44.4877 14.4125 44.434 14.5082 44.3669 14.5766C44.2998 14.6587 44.2327 14.7271 44.1522 14.7955C44.0717 14.8639 43.9778 14.9049 43.8571 14.946C43.7498 14.987 43.6156 15.0007 43.468 15.0007C43.3204 15.0007 43.1729 14.9733 43.0253 14.9049C42.8911 14.8365 42.7569 14.7408 42.6496 14.6177C42.5423 14.4946 42.4618 14.3304 42.3947 14.1526C42.3276 13.9747 42.3008 13.7559 42.3008 13.5233C42.3008 13.2634 42.3544 13.0446 42.4484 12.8394C42.5423 12.6342 42.663 12.47 42.7972 12.3332C42.9314 12.1964 43.0924 12.1007 43.2533 12.0186C43.4143 11.9502 43.5753 11.9092 43.7095 11.9092C43.8839 11.9092 44.0315 11.9229 44.1657 11.9639C44.2998 12.0049 44.434 12.046 44.5682 12.1007V10.8012C44.5682 10.6644 44.5413 10.5686 44.5011 10.5139C44.4474 10.4592 44.3535 10.4181 44.1925 10.4045C44.1388 10.3908 44.0986 10.3634 44.0986 10.3087C44.0986 10.2814 44.0986 10.254 44.112 10.213C44.1657 10.213 44.2596 10.213 44.3535 10.1993C44.4608 10.1993 44.5413 10.1856 44.6084 10.1719C44.7157 10.1582 44.8097 10.1446 44.8902 10.1172C44.9706 10.0898 45.0377 10.0898 45.0646 10.0898C45.1316 10.0898 45.1585 10.1309 45.1585 10.1993C45.1585 10.2814 45.1451 10.3634 45.1316 10.4729C45.1182 10.5686 45.1048 10.6917 45.1048 10.8422L45.1182 14.303ZM44.5547 12.5521C44.4474 12.429 44.3132 12.3332 44.1791 12.2648C44.0449 12.1964 43.8839 12.1554 43.7229 12.1554C43.4546 12.1554 43.2668 12.2648 43.1326 12.4837C42.9984 12.7026 42.9314 12.9898 42.9314 13.3318C42.9314 13.5097 42.9448 13.6738 42.985 13.838C43.0253 14.0021 43.0789 14.1389 43.146 14.262C43.2131 14.3851 43.307 14.4809 43.4143 14.5493C43.5217 14.6177 43.6424 14.6587 43.7632 14.6587C43.8571 14.6587 43.9376 14.6313 44.0315 14.5766C44.1254 14.5219 44.2059 14.4535 44.273 14.3714C44.3535 14.2894 44.4072 14.1936 44.4608 14.0842C44.5145 13.9747 44.5279 13.8653 44.5279 13.7696L44.5547 12.5521Z" fill="black"/>
<path d="M48.1532 14.2757C48.1801 14.2483 48.2203 14.2346 48.2606 14.2346C48.3008 14.2346 48.3411 14.2757 48.3813 14.3577C48.3276 14.4398 48.2606 14.5219 48.1801 14.604C48.0996 14.686 48.0057 14.7544 47.9117 14.8092C47.8044 14.8639 47.6837 14.9186 47.5495 14.9596C47.4153 15.0007 47.2543 15.0143 47.0799 15.0143C46.9055 15.0143 46.7311 14.987 46.5701 14.9186C46.4091 14.8639 46.2615 14.7681 46.1408 14.645C46.02 14.5219 45.9261 14.3714 45.8456 14.1799C45.7785 14.0021 45.7383 13.7832 45.7383 13.537C45.7383 13.3044 45.7785 13.0856 45.8724 12.8941C45.9664 12.7026 46.0737 12.5247 46.2213 12.3879C46.3554 12.2511 46.5164 12.1417 46.6774 12.0596C46.8518 11.9776 47.0128 11.9502 47.1604 11.9502C47.5763 11.9502 47.8849 12.0733 48.0727 12.3195C48.2606 12.5658 48.3545 12.8941 48.3545 13.2908C48.3545 13.3181 48.3411 13.3318 48.3142 13.3318L46.3689 13.4139C46.3689 13.5917 46.3957 13.7559 46.4359 13.9063C46.4896 14.0568 46.5567 14.1936 46.6372 14.303C46.7311 14.4125 46.8384 14.4945 46.9592 14.5629C47.0799 14.6313 47.2275 14.6587 47.3885 14.6587C47.5361 14.6587 47.6702 14.6313 47.8044 14.5629C47.952 14.4672 48.0593 14.3714 48.1532 14.2757ZM47.0665 12.1691C46.8384 12.1691 46.664 12.2511 46.5433 12.429C46.4225 12.6068 46.3554 12.8393 46.3554 13.1266L47.6166 13.0719C47.6837 13.0719 47.7105 13.0445 47.7239 12.9898C47.7239 12.9077 47.7105 12.812 47.6837 12.7162C47.6568 12.6205 47.6166 12.5247 47.5629 12.4563C47.5092 12.3743 47.4422 12.3059 47.3617 12.2511C47.2812 12.1964 47.1872 12.1691 47.0665 12.1691Z" fill="black"/>
<path d="M50.1117 13.1266C50.5679 13.1266 50.9033 13.2497 51.1045 13.4823C51.3058 13.7148 51.4131 14.0158 51.4131 14.3714C51.4131 14.5629 51.3728 14.7818 51.3058 15.0143C51.2387 15.2469 51.1045 15.4794 50.9167 15.712C50.7154 15.9582 50.4471 16.2044 50.1251 16.4233C49.8702 16.6011 49.7763 16.6285 49.4945 16.7379C49.414 16.7653 49.3335 16.7926 49.2128 16.8474C49.1457 16.861 49.1189 16.9021 49.1189 16.9705C49.1189 17.0252 49.1457 17.1073 49.2128 17.1757C50.4739 16.8337 50.9703 16.6558 51.6009 16.1224C52.2315 15.5752 52.5401 14.9459 52.5535 14.262C52.5535 13.7422 52.3925 13.3318 52.0705 13.0172C51.7485 12.7026 51.3192 12.5521 50.7691 12.5384H50.7557C50.5679 12.5384 50.3934 12.5521 50.219 12.5794C50.0446 12.6068 49.8568 12.6478 49.669 12.7162H49.6555V12.7026L49.8568 10.9653C49.8568 10.9516 49.8702 10.9516 49.8702 10.9516L52.0973 10.9653C52.2047 10.9653 52.2852 10.9243 52.312 10.8559C52.3522 10.7738 52.3657 10.678 52.3791 10.5686L52.3925 10.1719L49.3738 10.1309L49.1055 13.2497C49.1055 13.2634 49.1189 13.2771 49.1323 13.2771C49.508 13.1813 49.83 13.1266 50.1117 13.1266Z" fill="black"/>
<path d="M55.1541 10.1309C54.8321 10.1309 54.5235 10.1993 54.2552 10.3224C53.9734 10.4455 53.7319 10.6233 53.5307 10.8422C53.3295 11.061 53.1685 11.321 53.0611 11.6219C52.9538 11.9228 52.8867 12.2375 52.8867 12.5794C52.8867 12.9351 52.9404 13.2634 53.0477 13.5643C53.155 13.8516 53.3026 14.1115 53.5039 14.3304C53.6917 14.5356 53.9332 14.7134 54.2149 14.8228C54.4967 14.9323 54.8053 15.0007 55.1541 15.0007C55.5029 15.0007 55.8115 14.9323 56.0932 14.8228C56.375 14.6997 56.6165 14.5219 56.8043 14.3167C57.0055 14.0978 57.1531 13.8379 57.2605 13.5507C57.3678 13.2634 57.4215 12.9351 57.4215 12.6068C57.4215 12.2511 57.3678 11.9228 57.247 11.6219C57.1397 11.321 56.9787 11.061 56.7775 10.8559C56.5762 10.637 56.3347 10.4728 56.0664 10.3497C55.7847 10.1993 55.4761 10.1309 55.1541 10.1309ZM55.1675 14.5766C54.9797 14.5766 54.8053 14.5356 54.6443 14.4535C54.4833 14.3714 54.3357 14.2483 54.2149 14.0842C54.0942 13.92 54.0003 13.7011 53.9332 13.4686C53.8661 13.2224 53.8259 12.9351 53.8259 12.5931C53.8259 12.2511 53.8661 11.9365 53.9332 11.6903C54.0003 11.4304 54.0942 11.2252 54.2149 11.061C54.3357 10.8969 54.4833 10.7738 54.6443 10.6917C54.8053 10.6096 54.9797 10.5686 55.1541 10.5686C55.3285 10.5686 55.5029 10.6096 55.6639 10.6917C55.8249 10.7738 55.9591 10.8969 56.0798 11.061C56.2006 11.2252 56.2945 11.4441 56.3616 11.6903C56.4286 11.9502 56.4689 12.2511 56.4689 12.5931C56.4689 12.9351 56.4286 13.236 56.3616 13.4823C56.2945 13.7285 56.2006 13.9337 56.0798 14.0978C55.9591 14.262 55.8249 14.3851 55.6639 14.4672C55.5029 14.5356 55.3419 14.5766 55.1675 14.5766Z" fill="black"/>
</svg>
