<svg width="33" height="33" viewBox="0 0 33 33" fill="none" xmlns="http://www.w3.org/2000/svg">
<path d="M29.5582 3.44824C26.4451 0.348047 21.9721 0 16.5 0C11.0215 0 6.54199 0.348047 3.42891 3.46113C0.31582 6.56777 0 11.0473 0 16.5129C0 21.985 0.31582 26.4645 3.42891 29.5711C6.54199 32.6842 11.0215 33 16.5 33C21.9785 33 26.458 32.6842 29.5711 29.5775C32.6842 26.4645 33 21.9914 33 16.5193C33 11.0408 32.6777 6.55488 29.5582 3.44824ZM15.2754 22.6359C15.2754 22.7455 15.1852 22.8357 15.0691 22.8357H12.259C12.143 22.8357 12.0527 22.7455 12.0527 22.6359V15.2883C12.0527 15.1787 12.143 15.0885 12.259 15.0885H15.0691C15.1852 15.0885 15.2754 15.1787 15.2754 15.2883V22.6359ZM20.7732 22.6359C20.7732 22.7455 20.683 22.8357 20.567 22.8357H17.8922C17.7762 22.8357 17.6859 22.7455 17.6859 22.6359V16.3002C17.6859 15.1916 17.6215 14.0572 17.0479 13.4836C16.558 12.9937 15.6428 12.8777 14.6889 12.852H9.84199C9.72598 12.852 9.63574 12.9422 9.63574 13.0518V22.6295C9.63574 22.7391 9.53906 22.8293 9.42949 22.8293H6.75469C6.63867 22.8293 6.54844 22.7391 6.54844 22.6295V10.4285C6.54844 10.3189 6.63867 10.2223 6.75469 10.2223H14.4762C16.4936 10.2223 18.6012 10.3125 19.6453 11.3566C20.6701 12.3814 20.7797 14.4182 20.7861 16.4033V22.6359H20.7732ZM26.284 22.6359C26.284 22.7455 26.1873 22.8357 26.0777 22.8357H23.4029C23.2869 22.8357 23.1967 22.7455 23.1967 22.6359V10.4285C23.1967 10.3189 23.2869 10.2223 23.4029 10.2223H26.0777C26.1938 10.2223 26.284 10.3125 26.284 10.4285V22.6359Z" fill="black"/>
</svg>
