<svg width="191" height="48" viewBox="0 0 191 48" fill="none" xmlns="http://www.w3.org/2000/svg">
<path d="M146.079 0H0V47.2135H141.822H191V0H146.079ZM92.8675 10.7758C93.2035 10.7758 93.5396 10.6647 93.8757 10.6647C94.2117 10.6647 94.5478 10.6647 94.8839 10.6647C95.2199 10.6647 95.556 10.6647 95.8921 10.6647C96.2282 10.6647 96.5642 10.7758 96.9003 10.7758C97.0123 11.1091 97.0123 11.4423 97.0123 11.6645C97.0123 11.9978 97.0123 12.22 97.0123 12.5532C97.0123 12.8865 97.0123 13.1087 97.0123 13.442C97.0123 13.7752 97.0123 14.1085 96.9003 14.3307C96.5642 14.3307 96.2282 14.4418 95.8921 14.4418C95.556 14.4418 95.2199 14.4418 94.8839 14.4418C94.5478 14.4418 94.2117 14.4418 93.8757 14.4418C93.5396 14.4418 93.2035 14.4418 92.8675 14.3307C92.7554 13.6641 92.7554 13.1087 92.7554 12.5532C92.7554 11.9978 92.7554 11.3312 92.8675 10.7758ZM19.7161 10.7758C20.0522 10.7758 20.3883 10.6647 20.7243 10.6647C21.0604 10.6647 21.3965 10.6647 21.7326 10.6647C22.0686 10.6647 22.4047 10.6647 22.7408 10.6647C23.0768 10.6647 23.4129 10.7758 23.749 10.7758C23.749 11.1091 23.861 11.4423 23.861 11.6645C23.861 11.9978 23.861 12.22 23.861 12.5532C23.861 12.8865 23.861 13.1087 23.861 13.442C23.861 13.7752 23.749 14.1085 23.749 14.3307C23.4129 14.3307 23.0768 14.4418 22.7408 14.4418C22.4047 14.4418 22.0686 14.4418 21.7326 14.4418C21.3965 14.4418 21.0604 14.4418 20.7243 14.4418C20.3883 14.4418 20.0522 14.4418 19.7161 14.3307C19.6041 13.6641 19.6041 13.1087 19.6041 12.5532C19.6041 11.9978 19.6041 11.3312 19.7161 10.7758ZM24.085 30.7721C23.4129 30.8832 22.7408 30.8832 22.1806 30.8832C21.6205 30.8832 20.9484 30.8832 20.2762 30.7721V19.663H18.4839C18.4839 19.4408 18.3718 19.2187 18.3718 18.8854C18.3718 18.6632 18.3718 18.3299 18.3718 18.1078C18.3718 17.6634 18.4839 17.1079 18.4839 16.6636H24.085V30.7721ZM38.7601 30.7721C38.088 30.8832 37.4158 30.8832 36.8557 30.8832C36.1836 30.8832 35.6235 30.8832 34.9513 30.7721V22.8847C34.9513 21.8848 34.8393 21.1072 34.5032 20.6628C34.1672 20.1074 33.7191 19.8852 32.9349 19.8852C32.5988 19.8852 32.2628 19.8852 31.9267 19.9963C31.5906 20.1074 31.2545 20.2185 31.0305 20.5518C30.8065 20.7739 30.5824 21.2183 30.3584 21.6627C30.2463 22.107 30.1343 22.7736 30.1343 23.5512V30.8832C29.4622 30.9943 28.79 30.9943 28.2299 30.9943C27.5578 30.9943 26.9977 30.9943 26.3255 30.8832V16.7747C26.5496 16.7747 26.8856 16.6636 27.1097 16.6636C27.3337 16.6636 27.6698 16.6636 28.0059 16.6636C28.3419 16.6636 28.566 16.6636 28.79 16.6636C29.0141 16.6636 29.2381 16.7747 29.5742 16.7747C29.5742 16.8858 29.6862 16.9969 29.6862 17.219C29.6862 17.4412 29.7982 17.5523 29.7982 17.7745C29.7982 17.9967 29.9103 18.1078 29.9103 18.3299C29.9103 18.5521 29.9103 18.6632 30.0223 18.7743C30.2463 18.5521 30.4704 18.2188 30.6944 17.9967C30.9185 17.7745 31.2545 17.4412 31.5906 17.219C31.9267 16.9969 32.2628 16.7747 32.7109 16.6636C33.1589 16.5525 33.607 16.4414 34.0551 16.4414C35.6235 16.4414 36.8557 16.8858 37.6399 17.7745C38.424 18.6632 38.8721 19.9963 38.8721 21.8848V30.7721H38.7601ZM47.3859 30.8832C47.0499 30.8832 46.7138 30.8832 46.3777 30.8832C46.1537 30.8832 45.8176 30.8832 45.4815 30.8832C45.1455 30.8832 44.8094 30.7721 44.4733 30.7721L39.2082 16.7747C39.6563 16.6636 40.1044 16.6636 40.4405 16.6636C40.7765 16.6636 41.1126 16.6636 41.4487 16.6636C41.7848 16.6636 42.2328 16.6636 42.5689 16.6636C42.905 16.6636 43.2411 16.7747 43.5771 16.7747L46.7138 27.2172L49.7384 16.7747C50.0745 16.7747 50.4106 16.6636 50.7466 16.6636C51.0827 16.6636 51.4188 16.6636 51.7548 16.6636C51.9789 16.6636 52.315 16.6636 52.651 16.6636C52.9871 16.6636 53.4352 16.7747 53.8833 16.7747L48.5062 30.7721C48.1701 30.7721 47.834 30.8832 47.3859 30.8832ZM66.654 24.1066C66.654 24.4399 66.5419 24.6621 66.5419 24.8843H57.468C57.5801 25.9952 57.9161 26.7728 58.5883 27.2172C59.2604 27.6615 60.1566 27.9948 61.2768 27.9948C61.949 27.9948 62.5091 27.8837 63.1812 27.7726C63.8534 27.6615 64.4135 27.4394 64.9736 27.2172C65.1977 27.5505 65.3097 27.9948 65.5337 28.5503C65.6457 29.1057 65.7578 29.5501 65.7578 30.2166C64.3015 30.7721 62.7331 30.9943 60.9408 30.9943C59.5965 30.9943 58.4762 30.7721 57.5801 30.4388C56.6839 30.1055 55.8997 29.5501 55.2276 28.8835C54.6674 28.217 54.2194 27.4394 53.8833 26.5506C53.5472 25.6619 53.4352 24.6621 53.4352 23.6623C53.4352 22.6625 53.5472 21.6627 53.8833 20.7739C54.2194 19.8852 54.5554 19.1076 55.2276 18.441C55.7877 17.7745 56.4598 17.219 57.356 16.8858C58.2522 16.5525 59.1484 16.3303 60.2686 16.3303C61.2768 16.3303 62.173 16.5525 62.8452 16.8858C63.6293 17.219 64.3015 17.6634 64.7496 18.3299C65.3097 18.8854 65.6457 19.663 65.9818 20.4407C66.2059 21.2183 66.4299 22.107 66.4299 23.1068C66.766 23.4401 66.766 23.7734 66.654 24.1066ZM80.8809 30.7721C80.2088 30.8832 79.5367 30.8832 78.9765 30.8832C78.3044 30.8832 77.7443 30.7721 77.0721 30.7721V22.8847C77.0721 21.8848 76.9601 21.1072 76.624 20.6628C76.288 20.1074 75.8399 19.8852 75.0557 19.8852C74.7196 19.8852 74.3836 19.8852 74.0475 19.9963C73.7114 20.1074 73.3754 20.2185 73.1513 20.5518C72.9273 20.7739 72.7032 21.2183 72.4792 21.6627C72.3672 22.107 72.2551 22.7736 72.2551 23.5512V30.8832C71.583 30.9943 70.9108 30.9943 70.3507 30.9943C69.6786 30.9943 69.1185 30.8832 68.4463 30.8832V16.7747C68.6704 16.6636 69.0065 16.6636 69.2305 16.6636C69.4545 16.6636 69.7906 16.6636 70.1267 16.6636C70.4628 16.6636 70.6868 16.6636 70.9108 16.6636C71.1349 16.6636 71.3589 16.7747 71.695 16.7747C71.807 16.8858 71.807 16.9969 71.807 17.219C71.807 17.4412 71.9191 17.5523 71.9191 17.7745C71.9191 17.9967 72.0311 18.1078 72.0311 18.3299C72.0311 18.5521 72.0311 18.6632 72.1431 18.7743C72.3672 18.5521 72.5912 18.2188 72.8152 17.9967C73.0393 17.7745 73.3754 17.4412 73.7114 17.219C74.0475 16.9969 74.3836 16.7747 74.8317 16.6636C75.2798 16.5525 75.7279 16.4414 76.176 16.4414C77.7443 16.4414 78.9765 16.8858 79.7607 17.7745C80.5449 18.6632 80.993 19.9963 80.993 21.8848V30.7721H80.8809ZM90.515 30.2166C90.515 30.3277 90.515 30.4388 90.515 30.661C89.6188 30.8832 88.8346 30.9943 87.9384 30.9943C86.2581 30.9943 85.0258 30.661 84.1296 29.8834C83.2334 29.1057 82.7853 27.8837 82.7853 26.1063V14.4418C82.7853 14.3307 82.8974 14.2196 82.8974 14.2196L86.034 12.5532H86.7062V16.6636H90.0669C90.0669 16.8858 90.1789 17.219 90.1789 17.4412C90.1789 17.6634 90.1789 17.8856 90.1789 18.1078C90.1789 18.3299 90.1789 18.5521 90.1789 18.8854C90.1789 19.1076 90.0669 19.3298 90.0669 19.663H86.7062V25.2176C86.7062 25.773 86.7062 26.2174 86.8182 26.5506C86.9302 26.8839 87.0422 27.2172 87.2663 27.3283C87.4903 27.5505 87.6023 27.6615 87.9384 27.7726C88.1625 27.8837 88.4985 27.8837 88.8346 27.8837C89.0587 27.8837 89.3947 27.8837 89.6188 27.7726C89.8428 27.7726 90.0669 27.6615 90.2909 27.6615C90.4029 27.9948 90.515 28.3281 90.515 28.7724C90.515 29.1057 90.627 29.439 90.627 29.7723C90.515 29.8834 90.515 30.1055 90.515 30.2166ZM97.3484 30.7721C96.6762 30.8832 96.0041 30.8832 95.444 30.8832C94.8839 30.8832 94.2117 30.7721 93.5396 30.7721V19.663H91.7472C91.7472 19.4408 91.6352 19.2187 91.6352 18.8854C91.6352 18.6632 91.6352 18.3299 91.6352 18.1078C91.6352 17.6634 91.6352 17.1079 91.7472 16.6636H97.3484V30.7721ZM106.758 30.8832C106.422 30.8832 106.086 30.8832 105.75 30.8832C105.526 30.8832 105.19 30.8832 104.854 30.8832C104.518 30.8832 104.182 30.7721 103.846 30.7721L98.5806 16.7747C99.0287 16.6636 99.4768 16.6636 99.8129 16.6636C100.149 16.6636 100.485 16.6636 100.821 16.6636C101.157 16.6636 101.605 16.6636 101.941 16.6636C102.277 16.6636 102.613 16.7747 102.95 16.7747L106.086 27.2172L109.111 16.7747C109.447 16.7747 109.783 16.6636 110.119 16.6636C110.455 16.6636 110.791 16.6636 111.127 16.6636C111.351 16.6636 111.687 16.6636 112.023 16.6636C112.36 16.6636 112.808 16.7747 113.256 16.7747L107.879 30.7721C107.543 30.7721 107.206 30.8832 106.758 30.8832ZM125.914 24.1066C125.914 24.4399 125.802 24.6621 125.802 24.8843H116.728C116.84 25.9952 117.177 26.7728 117.849 27.2172C118.521 27.6615 119.417 27.9948 120.537 27.9948C121.209 27.9948 121.77 27.8837 122.442 27.7726C123.114 27.6615 123.674 27.4394 124.234 27.2172C124.458 27.5505 124.57 27.9948 124.794 28.5503C124.906 29.1057 125.018 29.5501 125.018 30.2166C123.562 30.7721 121.994 30.9943 120.201 30.9943C118.857 30.9943 117.737 30.7721 116.84 30.4388C115.944 30.1055 115.16 29.5501 114.488 28.8835C113.928 28.217 113.48 27.4394 113.144 26.5506C112.808 25.6619 112.696 24.6621 112.696 23.6623C112.696 22.6625 112.808 21.6627 113.144 20.7739C113.48 19.8852 113.816 19.1076 114.488 18.441C115.048 17.7745 115.72 17.219 116.616 16.8858C117.513 16.5525 118.409 16.3303 119.641 16.3303C120.649 16.3303 121.545 16.5525 122.218 16.8858C123.002 17.219 123.674 17.6634 124.122 18.3299C124.682 18.8854 125.018 19.663 125.354 20.4407C125.578 21.2183 125.802 22.107 125.802 23.1068C125.914 23.4401 125.914 23.7734 125.914 24.1066ZM188.311 44.5473H146.079V2.66617H188.311V44.5473V44.5473Z" fill="black"/>
<path d="M119.641 19.3297C118.745 19.3297 118.073 19.5519 117.513 20.1074C117.065 20.6628 116.728 21.3294 116.616 22.2181H122.106C122.106 21.3294 121.882 20.6628 121.433 20.1074C121.097 19.5519 120.537 19.3297 119.641 19.3297Z" fill="black"/>
<path d="M60.4927 19.3297C59.5965 19.3297 58.9244 19.5519 58.3643 20.1074C57.9162 20.6628 57.5801 21.3294 57.4681 22.2181H62.9572C62.9572 21.3294 62.7332 20.6628 62.2851 20.1074C61.949 19.5519 61.2769 19.3297 60.4927 19.3297Z" fill="black"/>
<path d="M173.524 30.8832C174.42 30.8832 175.317 30.7721 176.101 30.5499C176.101 30.4388 176.101 30.3277 176.101 30.1055C176.101 29.9944 176.101 29.7723 176.101 29.6612C176.101 29.3279 176.101 28.9946 175.989 28.6614C175.989 28.3281 175.877 27.8837 175.765 27.5505C175.541 27.5505 175.317 27.6615 175.093 27.6615C174.869 27.6615 174.532 27.7726 174.308 27.7726C173.972 27.7726 173.636 27.7726 173.412 27.6615C173.188 27.5505 172.964 27.4394 172.74 27.2172C172.516 26.995 172.404 26.7728 172.292 26.4395C172.18 26.1063 172.18 25.6619 172.18 25.1065V19.5519H175.541C175.541 19.2187 175.653 18.9965 175.653 18.7743C175.653 18.5521 175.653 18.3299 175.653 17.9967C175.653 17.7745 175.653 17.5523 175.653 17.3301C175.653 17.1079 175.541 16.8858 175.541 16.5525H172.18V12.4421H171.508L168.371 14.1085C168.371 14.1085 168.259 14.1085 168.259 14.3307V25.8841C168.259 27.6615 168.707 28.8835 169.603 29.6612C170.612 30.5499 171.844 30.8832 173.524 30.8832Z" fill="black"/>
<path d="M162.546 14.4418C162.882 14.4418 163.218 14.4418 163.554 14.4418C163.89 14.4418 164.226 14.4418 164.562 14.4418C164.898 14.4418 165.235 14.4418 165.571 14.3307C165.683 13.9974 165.683 13.6641 165.683 13.442C165.683 13.1087 165.683 12.8865 165.683 12.5532C165.683 12.22 165.683 11.9978 165.683 11.6645C165.683 11.3312 165.683 11.1091 165.571 10.7758C165.235 10.7758 164.898 10.6647 164.562 10.6647C164.226 10.6647 163.89 10.6647 163.554 10.6647C163.218 10.6647 162.994 10.6647 162.546 10.6647C162.21 10.6647 161.874 10.7758 161.538 10.7758C161.426 11.4423 161.426 11.9978 161.426 12.5532C161.426 13.1087 161.426 13.7752 161.538 14.3307C161.874 14.4418 162.21 14.4418 162.546 14.4418Z" fill="black"/>
<path d="M160.194 18.8854C160.194 19.1076 160.306 19.4408 160.306 19.663H162.098V30.7721C162.77 30.8832 163.33 30.8832 164.002 30.8832C164.675 30.8832 165.235 30.7721 165.907 30.7721V16.7747H160.306C160.194 17.219 160.194 17.7745 160.194 18.2188C160.194 18.441 160.194 18.6632 160.194 18.8854Z" fill="black"/>
</svg>
