<svg width="70" height="70" viewBox="0 0 70 70" fill="none" xmlns="http://www.w3.org/2000/svg">
<path d="M70 70H0V0H70V70ZM1.04283 68.9572H68.9572V1.04283H1.04283V68.9572Z" fill="white"/>
<path d="M9.19054 23.919C9.51643 23.9842 9.77714 23.9842 10.103 23.9842C10.4289 23.9842 10.6896 23.9842 11.0155 23.919V17.1406H8.27807C8.21289 17.4013 8.21289 17.5969 8.21289 17.8576C8.21289 17.9879 8.21289 18.1183 8.21289 18.2486C8.21289 18.379 8.27807 18.5093 8.27807 18.6397H9.19054V23.919Z" fill="white"/>
<path d="M9.3886 16.0334C9.58413 16.0334 9.71449 16.0334 9.84484 16.0334C9.9752 16.0334 10.1707 16.0334 10.3011 16.0334C10.4966 16.0334 10.627 16.0334 10.7573 15.9683C10.7573 15.8379 10.8225 15.6424 10.8225 15.512C10.8225 15.3817 10.8225 15.1861 10.8225 15.0558C10.8225 14.9254 10.8225 14.7299 10.8225 14.5995C10.8225 14.4692 10.8225 14.3388 10.7573 14.1433C10.627 14.1433 10.4314 14.0781 10.3011 14.0781C10.1055 14.0781 9.9752 14.0781 9.84484 14.0781C9.71449 14.0781 9.51896 14.0781 9.3886 14.0781C9.19307 14.0781 9.06272 14.1433 8.93236 14.1433C8.86719 14.4692 8.86719 14.7299 8.86719 15.0558C8.86719 15.3165 8.86719 15.6424 8.93236 15.9031C9.06272 16.0334 9.19307 16.0334 9.3886 16.0334Z" fill="white"/>
<path d="M13.8855 23.9192V20.3345C13.8855 19.9434 13.9507 19.6827 14.0159 19.422C14.081 19.1613 14.2114 19.031 14.3417 18.9006C14.4721 18.7703 14.6024 18.7051 14.798 18.6399C14.9283 18.5747 15.1239 18.5747 15.2542 18.5747C15.6453 18.5747 15.8408 18.7051 16.0363 18.9658C16.1667 19.2265 16.2319 19.5524 16.2319 20.0738V23.9192C16.5578 23.9844 16.8836 23.9844 17.1443 23.9844C17.4702 23.9844 17.7309 23.9844 18.0568 23.9192V19.5524C18.0568 18.6399 17.8613 17.9881 17.4702 17.5971C17.0792 17.206 16.4926 16.9453 15.7105 16.9453C15.4497 16.9453 15.2542 17.0105 15.0587 17.0757C14.8632 17.1408 14.6676 17.206 14.5373 17.3364C14.4069 17.4667 14.2114 17.5319 14.081 17.6623C13.9507 17.7926 13.8203 17.923 13.7551 18.0533C13.7551 17.9881 13.7551 17.923 13.7551 17.8578C13.7551 17.7926 13.7551 17.6623 13.69 17.5971C13.69 17.5319 13.6248 17.4016 13.6248 17.3364C13.6248 17.2712 13.5596 17.206 13.5596 17.1408C13.4293 17.1408 13.2989 17.0757 13.2337 17.0757C13.1034 17.0757 12.973 17.0757 12.8427 17.0757C12.7123 17.0757 12.582 17.0757 12.4516 17.0757C12.3213 17.0757 12.1909 17.1408 12.0605 17.1408V23.9192C12.3864 23.9844 12.7123 23.9844 12.973 23.9844C13.2989 23.9844 13.6248 23.9844 13.8855 23.9192Z" fill="white"/>
<path d="M21.3145 23.9856C21.5101 23.9856 21.6404 23.9856 21.7708 23.9856C21.9011 23.9856 22.0315 23.9856 22.227 23.9856C22.4225 23.9856 22.5529 23.9856 22.7484 23.9205L25.3555 17.1421C25.16 17.0769 24.9644 17.0769 24.7689 17.0769C24.5734 17.0769 24.443 17.0769 24.3127 17.0769C24.1171 17.0769 23.9868 17.0769 23.7913 17.0769C23.5957 17.0769 23.4654 17.1421 23.335 17.1421L21.836 22.1607L20.3369 17.0769C20.2065 17.0117 20.011 17.0117 19.8807 17.0117C19.6851 17.0117 19.5548 17.0117 19.3592 17.0117C19.2289 17.0117 19.0985 17.0117 18.903 17.0117C18.7075 17.0117 18.5119 17.0769 18.3164 17.0769L20.8583 23.9205C20.9887 23.9205 21.119 23.9856 21.3145 23.9856Z" fill="white"/>
<path d="M25.4196 21.9654C25.5499 22.4216 25.7455 22.7475 26.0714 23.0734C26.3321 23.3993 26.7231 23.5948 27.1794 23.7903C27.6356 23.9859 28.157 24.051 28.8088 24.051C29.6561 24.051 30.4382 23.9207 31.1552 23.66C31.1552 23.3993 31.09 23.1386 31.0248 22.8779C30.9596 22.6172 30.8945 22.4216 30.7641 22.2261C30.5034 22.3564 30.1775 22.4216 29.8516 22.4868C29.5257 22.552 29.265 22.552 28.9391 22.552C28.4177 22.552 27.9615 22.4216 27.6356 22.1609C27.3097 21.9002 27.1142 21.5743 27.1142 20.9877H31.481C31.481 20.9226 31.5462 20.7922 31.5462 20.5967C31.5462 20.4663 31.5462 20.2708 31.5462 20.0753C31.5462 19.619 31.481 19.1628 31.3507 18.7717C31.2203 18.3807 31.0248 18.0548 30.7641 17.7289C30.5034 17.4682 30.1775 17.2075 29.8516 17.0771C29.4606 16.8816 29.0695 16.8164 28.6133 16.8164C28.0918 16.8164 27.5704 16.8816 27.1794 17.0771C26.7883 17.2726 26.4624 17.5334 26.1365 17.8592C25.8758 18.1851 25.6803 18.5762 25.4848 19.0324C25.3544 19.4887 25.2892 19.9449 25.2892 20.4663C25.2241 21.0529 25.2892 21.5743 25.4196 21.9654ZM27.5053 18.7717C27.7008 18.511 28.0918 18.3807 28.4829 18.3807C28.874 18.3807 29.1999 18.511 29.3954 18.7717C29.5909 19.0324 29.7213 19.3583 29.7213 19.8145H27.049C27.1142 19.3583 27.2445 19.0324 27.5053 18.7717Z" fill="white"/>
<path d="M36.2375 18.9658C36.3679 19.2265 36.433 19.5524 36.433 20.0738V23.9192C36.7589 23.9844 37.0848 23.9844 37.3455 23.9844C37.6714 23.9844 37.9321 23.9844 38.258 23.9192V19.5524C38.258 18.6399 38.0625 17.9881 37.6714 17.5971C37.2803 17.206 36.6937 16.9453 35.9116 16.9453C35.6509 16.9453 35.4554 17.0105 35.2599 17.0757C35.0643 17.1408 34.8688 17.206 34.7384 17.3364C34.5429 17.4667 34.4126 17.5319 34.2822 17.6623C34.1518 17.7926 34.0215 17.923 33.9563 18.0533C33.9563 17.9881 33.9563 17.923 33.9563 17.8578C33.9563 17.7926 33.9563 17.6623 33.8911 17.5971C33.8911 17.5319 33.826 17.4016 33.826 17.3364C33.826 17.2712 33.7608 17.206 33.7608 17.1408C33.6304 17.1408 33.5001 17.0757 33.4349 17.0757C33.3045 17.0757 33.1742 17.0757 33.0438 17.0757C32.9135 17.0757 32.7831 17.0757 32.6528 17.0757C32.5224 17.0757 32.3921 17.1408 32.2617 17.1408V23.9192C32.5876 23.9844 32.9135 23.9844 33.1742 23.9844C33.5001 23.9844 33.7608 23.9844 34.0867 23.9192V20.3345C34.0867 19.9434 34.1518 19.6827 34.217 19.422C34.2822 19.1613 34.4126 19.031 34.5429 18.9006C34.6733 18.7703 34.8036 18.7051 34.9991 18.6399C35.1295 18.5747 35.325 18.5747 35.4554 18.5747C35.8464 18.6399 36.1072 18.7703 36.2375 18.9658Z" fill="white"/>
<path d="M42.7546 22.4204C42.6243 22.4204 42.5591 22.4856 42.4288 22.4856C42.2984 22.4856 42.1681 22.4856 42.0377 22.4856C41.8422 22.4856 41.7118 22.4856 41.5815 22.4204C41.4511 22.3553 41.3859 22.2901 41.2556 22.2249C41.1904 22.0946 41.1252 22.0294 41.06 21.8338C41.06 21.7035 41.06 21.508 41.06 21.2473V18.575H42.6243C42.6243 18.4446 42.6895 18.3143 42.6895 18.1839C42.6895 18.0536 42.6895 17.9232 42.6895 17.8581C42.6895 17.7277 42.6895 17.6625 42.6895 17.5322C42.6895 17.4018 42.6895 17.3366 42.6243 17.2063H41.06V15.251H40.7342L39.2351 16.0983C39.2351 16.0983 39.1699 16.0983 39.1699 16.1635V21.7687C39.1699 22.616 39.3655 23.2026 39.8217 23.5936C40.2779 23.9847 40.8645 24.1802 41.6466 24.1802C42.1029 24.1802 42.4939 24.115 42.885 24.0499C42.885 23.9847 42.885 23.9195 42.885 23.8543C42.885 23.7891 42.885 23.724 42.885 23.5936C42.885 23.4633 42.885 23.2677 42.8198 23.1374C42.885 22.7463 42.8198 22.616 42.7546 22.4204Z" fill="white"/>
<path d="M44.5839 16.0334C44.7794 16.0334 44.9098 16.0334 45.0402 16.0334C45.1705 16.0334 45.366 16.0334 45.4964 16.0334C45.6919 16.0334 45.8223 16.0334 45.9526 15.9683C45.9526 15.8379 46.0178 15.6424 46.0178 15.512C46.0178 15.3817 46.0178 15.1861 46.0178 15.0558C46.0178 14.9254 46.0178 14.7299 46.0178 14.5995C46.0178 14.4692 46.0178 14.3388 45.9526 14.1433C45.8223 14.1433 45.6267 14.0781 45.4964 14.0781C45.3009 14.0781 45.1705 14.0781 45.0402 14.0781C44.9098 14.0781 44.7143 14.0781 44.5839 14.0781C44.3884 14.0781 44.258 14.1433 44.1277 14.1433C44.0625 14.4692 44.0625 14.7299 44.0625 15.0558C44.0625 15.3165 44.0625 15.6424 44.1277 15.9031C44.258 16.0334 44.3884 16.0334 44.5839 16.0334Z" fill="white"/>
<path d="M43.4082 17.7924C43.4082 17.9227 43.4082 18.0531 43.4082 18.1835C43.4082 18.3138 43.4734 18.4442 43.4734 18.5745H44.3859V23.9842C44.7117 24.0494 44.9724 24.0494 45.2983 24.0494C45.6242 24.0494 45.8849 24.0494 46.2108 23.9842V17.1406H43.4734C43.4082 17.3362 43.4082 17.5969 43.4082 17.7924Z" fill="white"/>
<path d="M53.2526 17.0762C53.057 17.0762 52.9267 17.0762 52.7963 17.0762C52.6008 17.0762 52.4704 17.0762 52.2749 17.0762C52.0794 17.0762 51.949 17.1413 51.8187 17.1413L50.3848 22.16L48.8857 17.1413C48.7554 17.0762 48.5598 17.0762 48.4295 17.0762C48.2339 17.0762 48.1036 17.0762 47.9081 17.0762C47.7777 17.0762 47.6474 17.0762 47.4518 17.0762C47.2563 17.0762 47.0608 17.1413 46.8652 17.1413L49.4071 23.9197C49.5375 23.9849 49.733 23.9849 49.8634 23.9849C50.0589 23.9849 50.1893 23.9849 50.3196 23.9849C50.45 23.9849 50.5803 23.9849 50.7758 23.9849C50.9714 23.9849 51.1017 23.9849 51.2973 23.9197L53.9043 17.1413C53.6436 17.0762 53.4481 17.0762 53.2526 17.0762Z" fill="white"/>
<path d="M59.7685 18.967C59.6381 18.576 59.4426 18.2501 59.1819 17.9242C58.9212 17.6635 58.5953 17.4028 58.2694 17.2724C57.8784 17.0769 57.4873 17.0117 57.0311 17.0117C56.5096 17.0117 55.9882 17.0769 55.5972 17.2724C55.2061 17.468 54.8802 17.7287 54.5543 18.0545C54.2936 18.3804 54.0981 18.7715 53.9026 19.2277C53.7722 19.684 53.707 20.1402 53.707 20.6616C53.707 21.183 53.7722 21.6393 53.9026 22.0955C54.0329 22.5518 54.2284 22.8776 54.5543 23.2035C54.815 23.5294 55.2061 23.7249 55.6623 23.9205C56.1186 24.116 56.64 24.1812 57.2918 24.1812C58.1391 24.1812 58.9212 24.0508 59.573 23.7901C59.573 23.5294 59.5078 23.2687 59.4426 23.008C59.3774 22.7473 59.3122 22.5518 59.1819 22.3562C58.9212 22.4866 58.5953 22.5518 58.2694 22.6169C57.9435 22.6821 57.6828 22.6821 57.3569 22.6821C56.8355 22.6821 56.3793 22.5518 56.0534 22.291C55.7275 22.0303 55.532 21.7045 55.532 21.1179H59.8988C59.8988 21.0527 59.8988 20.9223 59.964 20.7268C59.964 20.5964 59.964 20.4009 59.964 20.2054C59.964 19.7491 59.8988 19.3581 59.7685 18.967ZM55.532 19.8143C55.5972 19.3581 55.7275 19.0322 55.923 18.7715C56.1186 18.5108 56.5096 18.3804 56.9007 18.3804C57.2918 18.3804 57.6176 18.5108 57.8132 18.7715C58.0087 19.0322 58.1391 19.3581 58.1391 19.8143H55.532Z" fill="white"/>
<path d="M10.8848 32.2633C10.8848 32.1981 10.8848 32.0678 10.8196 32.0026C10.8196 31.9374 10.7544 31.8071 10.7544 31.7419C10.7544 31.6767 10.6892 31.6115 10.6892 31.5464C10.5589 31.5464 10.4285 31.4812 10.2982 31.4812C10.1678 31.4812 10.0375 31.4812 9.90712 31.4812C9.77677 31.4812 9.64642 31.4812 9.51606 31.4812C9.38571 31.4812 9.25535 31.4812 9.125 31.5464V38.3899C9.32053 38.3899 9.45088 38.4551 9.58124 38.4551C9.71159 38.4551 9.90712 38.4551 10.0375 38.4551C10.1678 38.4551 10.3634 38.4551 10.4937 38.4551C10.6241 38.4551 10.8196 38.4551 10.95 38.3899V35.1311C10.95 34.6749 11.0151 34.2838 11.1455 34.0231C11.2758 33.7624 11.4062 33.5669 11.5365 33.4365C11.7321 33.3061 11.8624 33.241 12.058 33.1758C12.2535 33.1758 12.3838 33.1106 12.5794 33.1106H12.7749C12.9053 33.1106 12.9704 33.1106 13.1008 33.1106C13.1008 32.9803 13.166 32.7847 13.166 32.5892C13.166 32.3937 13.166 32.2633 13.166 32.133C13.166 32.0026 13.166 31.8723 13.166 31.8071C13.166 31.6767 13.166 31.6115 13.1008 31.4812C13.0356 31.4812 12.9704 31.4812 12.8401 31.416C12.7097 31.416 12.6446 31.416 12.5142 31.416C12.1231 31.416 11.7321 31.5464 11.4714 31.7419C11.2107 31.9374 10.95 32.1981 10.7544 32.4588C10.8848 32.3937 10.8848 32.3285 10.8848 32.2633Z" fill="white"/>
<path d="M15.3823 31.6103C14.9913 31.8058 14.6002 32.0666 14.3395 32.3924C14.0788 32.7183 13.8832 33.1094 13.6877 33.5656C13.5574 34.0219 13.4922 34.4781 13.4922 34.9995C13.4922 35.5209 13.5574 35.9772 13.6877 36.4334C13.8181 36.8896 14.0136 37.2155 14.3395 37.5414C14.6002 37.8673 14.9913 38.128 15.4475 38.2584C15.9037 38.4539 16.4251 38.5191 17.0769 38.5191C17.9242 38.5191 18.7063 38.3887 19.4233 38.128C19.4233 37.8673 19.3581 37.6066 19.2929 37.3459C19.2278 37.0852 19.1626 36.8896 19.0322 36.6941C18.7715 36.8245 18.4456 36.8896 18.1197 36.9548C17.7939 37.02 17.5332 37.02 17.2073 37.02C16.6859 37.02 16.2296 36.8896 15.9037 36.6941C15.5778 36.4334 15.3823 36.1075 15.3171 35.5209H19.684C19.684 35.3906 19.7492 35.3254 19.7492 35.1299C19.7492 34.9995 19.7492 34.804 19.7492 34.6085C19.7492 34.1522 19.684 33.696 19.5536 33.3049C19.4233 32.9139 19.2278 32.588 18.967 32.2621C18.7063 32.0014 18.3805 31.7407 18.0546 31.6103C17.6635 31.4148 17.2724 31.3496 16.8162 31.3496C16.2948 31.3496 15.8386 31.4148 15.3823 31.6103ZM18.0546 34.1522H15.3823C15.4475 33.696 15.5778 33.3701 15.7734 33.1094C16.0341 32.8487 16.36 32.7183 16.751 32.7183C17.1421 32.7183 17.468 32.8487 17.6635 33.1094C17.9242 33.3701 18.0546 33.7612 18.0546 34.1522Z" fill="white"/>
<path d="M23.2028 38.389C23.659 38.389 24.0501 38.3238 24.4411 38.2586C24.4411 38.1934 24.4411 38.1283 24.4411 38.0631C24.4411 37.9979 24.4411 37.9327 24.4411 37.8024C24.4411 37.672 24.4411 37.4765 24.376 37.3461C24.376 37.1506 24.3108 37.0203 24.2456 36.8247C24.1804 36.8247 24.0501 36.8899 23.9197 36.8899C23.7894 36.8899 23.659 36.9551 23.5287 36.9551C23.3331 36.9551 23.2028 36.9551 23.0724 36.8899C22.9421 36.8247 22.8769 36.7596 22.7465 36.6944C22.6814 36.6292 22.6162 36.4988 22.551 36.3033C22.4858 36.1078 22.4858 35.9123 22.4858 35.6515V32.9793H24.0501C24.0501 32.8489 24.1153 32.7186 24.1153 32.5882C24.1153 32.4579 24.1153 32.3275 24.1153 32.2623C24.1153 32.132 24.1153 32.0668 24.1153 31.9365C24.1153 31.8061 24.1153 31.7409 24.0501 31.6106H22.4858V29.6553H22.1599L20.6609 30.5026C20.6609 30.5026 20.5957 30.5026 20.5957 30.5678V36.173C20.5957 37.0203 20.7912 37.6069 21.2475 37.9979C21.8341 38.1934 22.4207 38.389 23.2028 38.389Z" fill="white"/>
<path d="M30.7656 38.0628V34.087C30.7656 33.1094 30.5049 32.3924 29.9835 32.0014C29.462 31.5451 28.7451 31.3496 27.8326 31.3496C27.5067 31.3496 27.1157 31.3496 26.7246 31.4148C26.3336 31.48 25.9425 31.5451 25.5514 31.6755C25.5514 31.9362 25.5514 32.1969 25.6166 32.3924C25.6818 32.588 25.747 32.7835 25.8773 33.0442C26.3987 32.8487 26.9202 32.7835 27.3764 32.7835C27.5719 32.7835 27.7675 32.7835 27.963 32.8487C28.1585 32.8487 28.2889 32.9139 28.4192 32.979C28.5496 33.0442 28.6147 33.1746 28.6799 33.3049C28.7451 33.4353 28.8103 33.6308 28.8103 33.8263V33.9567C28.4844 33.9567 28.2237 33.8915 27.963 33.8915C27.6371 33.8915 27.246 33.9567 26.9202 34.0219C26.5943 34.087 26.2684 34.2174 25.9425 34.4129C25.6818 34.6085 25.4211 34.804 25.2256 35.1299C25.03 35.3906 24.9648 35.7816 24.9648 36.1727C24.9648 36.5638 25.03 36.9548 25.1604 37.2155C25.2907 37.4762 25.4863 37.7369 25.747 37.9325C26.0077 38.128 26.3336 38.2584 26.7246 38.3235C27.1157 38.3887 27.5067 38.4539 27.963 38.4539C28.5496 38.4539 29.0058 38.3887 29.462 38.3235C30.0486 38.2584 30.4397 38.128 30.7656 38.0628ZM28.9406 36.8896C28.8755 36.8896 28.7451 36.9548 28.6148 36.9548C28.4844 36.9548 28.354 37.02 28.2237 37.02C28.0933 37.02 27.963 37.02 27.8326 37.02C27.7023 37.02 27.5067 36.9548 27.3764 36.8896C27.246 36.8245 27.1157 36.7593 27.0505 36.6289C26.9202 36.4986 26.9202 36.3031 26.9202 36.1075C26.9202 35.7816 27.0505 35.5209 27.3112 35.3906C27.5719 35.2602 27.8978 35.1299 28.354 35.1299C28.4844 35.1299 28.5496 35.1299 28.6799 35.1299C28.8103 35.1299 28.9406 35.1299 29.0058 35.195V36.8896H28.9406Z" fill="white"/>
<path d="M33.1101 38.3892C33.436 38.3892 33.6967 38.3892 34.0226 38.324V31.4805H31.2852C31.2852 31.7412 31.2852 31.9367 31.2852 32.1974C31.2852 32.3278 31.2852 32.4581 31.2852 32.5885C31.2852 32.7188 31.2852 32.8492 31.3503 32.9795H32.2628V38.3892C32.5235 38.324 32.8494 38.3892 33.1101 38.3892Z" fill="white"/>
<path d="M32.4589 30.3733C32.6544 30.3733 32.7848 30.3733 32.9152 30.3733C33.0455 30.3733 33.241 30.3733 33.3714 30.3733C33.5669 30.3733 33.6973 30.3733 33.8276 30.3081C33.8276 30.1777 33.8928 29.9822 33.8928 29.8519C33.8928 29.7215 33.8928 29.526 33.8928 29.3956C33.8928 29.2653 33.8928 29.0697 33.8928 28.9394C33.8928 28.809 33.8928 28.6787 33.8276 28.4831C33.6973 28.4831 33.5017 28.418 33.3714 28.418C33.1759 28.418 33.0455 28.418 32.9152 28.418C32.7848 28.418 32.5893 28.418 32.4589 28.418C32.2634 28.418 32.133 28.4831 32.0027 28.4831C31.9375 28.809 31.9375 29.0697 31.9375 29.3956C31.9375 29.6563 31.9375 29.9822 32.0027 30.2429C32.133 30.3733 32.2634 30.3733 32.4589 30.3733Z" fill="white"/>
<path d="M37.5449 38.3898C37.7404 38.3898 37.8708 38.3898 38.0663 38.3898C38.2618 38.3898 38.4573 38.3246 38.5877 38.3246C38.5877 38.2595 38.5877 38.1943 38.5877 38.1291V37.9336C38.5877 37.6077 38.5225 37.2166 38.4573 36.8908C38.3922 36.8908 38.327 36.8908 38.1966 36.9559C38.1315 36.9559 38.0663 36.9559 37.9359 36.9559C37.8056 36.9559 37.6752 36.9559 37.5449 36.8908C37.4145 36.8256 37.3493 36.7604 37.2842 36.6952C37.219 36.63 37.1538 36.4997 37.1538 36.3042C37.1538 36.1086 37.0886 35.9131 37.0886 35.6524V28.6785C36.7627 28.6133 36.4369 28.6133 36.1761 28.6133C35.8503 28.6133 35.5244 28.6133 35.2637 28.6785V35.9783C35.2637 36.8256 35.4592 37.4122 35.8503 37.8032C36.3717 38.1943 36.8931 38.3898 37.5449 38.3898Z" fill="white"/>
<path d="M15.7108 45.7539C15.2545 45.7539 14.9286 45.8191 14.7331 45.9494C14.4724 46.0798 14.2769 46.2101 14.1465 46.4709C13.8858 46.2753 13.6251 46.0798 13.234 45.9494C12.843 45.8191 12.4519 45.7539 11.9957 45.7539C11.5394 45.7539 11.1484 45.8191 10.7573 45.9494C10.3663 46.0798 10.1055 46.2101 9.84484 46.4709C9.58413 46.6664 9.3886 46.9271 9.25825 47.253C9.12789 47.5789 9.06272 47.8396 9.06272 48.2306C9.06272 48.6217 9.1279 48.9476 9.32343 49.2735C9.51896 49.5993 9.71449 49.8601 10.0404 50.0556C9.77966 50.2511 9.58413 50.4466 9.45378 50.6422C9.32343 50.8377 9.25825 51.0984 9.25825 51.4895C9.25825 51.7502 9.32343 52.0109 9.45378 52.2064C9.58413 52.402 9.71449 52.5323 9.91002 52.6627C9.58413 52.8582 9.32343 53.0537 9.12789 53.3144C8.93236 53.5751 8.86719 53.901 8.86719 54.2921C8.86719 54.5528 8.93236 54.8135 8.99754 55.009C9.1279 55.2046 9.25825 55.4001 9.51896 55.5304C9.77966 55.6608 10.0404 55.7911 10.4314 55.8563C10.8225 55.9215 11.2787 55.9867 11.8001 55.9867C12.3216 55.9867 12.843 55.9215 13.2992 55.7912C13.7555 55.6608 14.1465 55.5304 14.4724 55.3349C14.7983 55.1394 15.059 54.8787 15.2545 54.5528C15.4501 54.2269 15.5152 53.901 15.5152 53.5751C15.5152 52.9234 15.3197 52.4671 14.9286 52.1412C14.5376 51.8154 13.951 51.6198 13.1689 51.6198H11.3439C11.0832 51.6198 10.8877 51.5547 10.7573 51.4895C10.6921 51.4243 10.627 51.2939 10.627 51.1636C10.627 51.0984 10.627 50.9681 10.6921 50.8377C10.7573 50.7074 10.8225 50.6422 10.9528 50.5118C11.2787 50.577 11.6046 50.6422 11.9957 50.6422C12.4519 50.6422 12.843 50.577 13.1689 50.4466C13.4947 50.3163 13.8206 50.1859 14.0813 49.9252C14.342 49.7297 14.5376 49.469 14.6679 49.1431C14.7983 48.8172 14.8635 48.5565 14.8635 48.1655C14.8635 47.9699 14.8635 47.7744 14.7983 47.7092C14.7331 47.5789 14.7331 47.4485 14.6679 47.3833H15.7108C15.7108 47.253 15.7759 47.0574 15.7759 46.9271C15.7759 46.7967 15.7759 46.6664 15.7759 46.536C15.7759 46.4057 15.7759 46.2753 15.7759 46.2101C15.7759 45.9494 15.7108 45.8191 15.7108 45.7539ZM10.627 53.1189C10.6921 53.0537 10.8225 52.9885 10.9528 52.9234C11.0832 52.8582 11.2136 52.8582 11.4091 52.8582H12.7778C12.9733 52.8582 13.1037 52.8582 13.234 52.9234C13.3644 52.9885 13.4296 53.0537 13.4947 53.1189C13.5599 53.1841 13.6251 53.2493 13.6251 53.3144C13.6251 53.3796 13.6903 53.4448 13.6903 53.5751C13.6903 53.901 13.4947 54.0966 13.1689 54.2921C12.843 54.4876 12.3867 54.5528 11.8653 54.5528C11.4743 54.5528 11.0832 54.4876 10.8877 54.3573C10.627 54.2269 10.4966 54.0314 10.4966 53.7055C10.4966 53.6403 10.4966 53.51 10.5618 53.3796C10.4966 53.3144 10.5618 53.1841 10.627 53.1189ZM12.7778 48.9476C12.6474 49.1431 12.3216 49.2735 11.9957 49.2735C11.6046 49.2735 11.3439 49.1431 11.1484 48.9476C10.9528 48.752 10.8877 48.4262 10.8877 48.1003C10.8877 47.7092 10.9528 47.4485 11.1484 47.253C11.3439 47.0574 11.6046 46.9271 11.9957 46.9271C12.3867 46.9271 12.6474 47.0574 12.7778 47.253C12.9082 47.4485 13.0385 47.7744 13.0385 48.1003C13.0385 48.4262 12.9082 48.752 12.7778 48.9476Z" fill="white"/>
<path d="M20.6596 45.7537C20.5944 45.7537 20.5292 45.7537 20.3989 45.6885C20.2685 45.6885 20.2034 45.6885 20.073 45.6885C19.6819 45.6885 19.2909 45.8188 19.0302 46.0144C18.7695 46.2099 18.5088 46.4706 18.3132 46.7313C18.3132 46.6661 18.3132 46.601 18.2481 46.4706C18.2481 46.4054 18.2481 46.2751 18.1829 46.2099C18.1829 46.1447 18.1177 46.0144 18.1177 45.9492C18.1177 45.884 18.0525 45.8188 18.0525 45.7537C17.9222 45.7537 17.7918 45.6885 17.6615 45.6885C17.5311 45.6885 17.4008 45.6885 17.2704 45.6885C17.1401 45.6885 17.0097 45.6885 16.8793 45.6885C16.749 45.6885 16.6186 45.7537 16.4883 45.7537V52.5972C16.6838 52.5972 16.8142 52.6624 16.9445 52.6624C17.0749 52.6624 17.2704 52.6624 17.4008 52.6624C17.5311 52.6624 17.7266 52.6624 17.857 52.6624C17.9873 52.6624 18.1829 52.6624 18.3132 52.5972V49.3384C18.3132 48.8821 18.3784 48.4911 18.5088 48.2304C18.6391 47.9697 18.7695 47.7741 18.8998 47.6438C19.0954 47.5134 19.2257 47.4483 19.4212 47.3831C19.6168 47.3831 19.7471 47.3179 19.9427 47.3179H20.1382C20.2685 47.3179 20.3337 47.3179 20.4641 47.3179C20.4641 47.1875 20.5292 46.992 20.5292 46.7965C20.5292 46.601 20.5292 46.4706 20.5292 46.3402C20.5292 46.2099 20.5292 46.0795 20.5292 46.0144C20.6596 45.9492 20.6596 45.884 20.6596 45.7537Z" fill="white"/>
<path d="M26.7219 46.6659C26.4612 46.34 26.1353 46.0793 25.6791 45.8838C25.288 45.7534 24.7666 45.623 24.2452 45.623C23.7238 45.623 23.2023 45.6882 22.8113 45.8838C22.4202 46.0793 22.0943 46.34 21.7685 46.6659C21.5077 46.9918 21.3122 47.3828 21.1819 47.7739C21.0515 48.2301 20.9863 48.6864 20.9863 49.2078C20.9863 49.7292 21.0515 50.1854 21.1819 50.5765C21.3122 51.0327 21.5077 51.3586 21.7685 51.6845C22.0292 52.0104 22.355 52.2711 22.8113 52.4014C23.2023 52.597 23.7238 52.6622 24.2452 52.6622C24.8318 52.6622 25.288 52.597 25.6791 52.4014C26.0701 52.2059 26.4612 51.9452 26.7219 51.6845C26.9826 51.3586 27.1781 50.9675 27.3085 50.5765C27.4388 50.1202 27.504 49.664 27.504 49.2078C27.504 48.6864 27.4388 48.2301 27.3085 47.7739C27.1781 47.3828 26.9826 46.9918 26.7219 46.6659ZM25.288 50.772C25.0925 51.1631 24.7014 51.2934 24.2452 51.2934C23.7889 51.2934 23.3979 51.0979 23.2023 50.772C23.0068 50.381 22.8765 49.8595 22.8765 49.2078C22.8765 48.4908 23.0068 47.9694 23.2023 47.6435C23.3979 47.2525 23.7889 47.1221 24.2452 47.1221C24.7666 47.1221 25.0925 47.3176 25.288 47.6435C25.4835 48.0346 25.6139 48.556 25.6139 49.2078C25.6139 49.9247 25.4835 50.4461 25.288 50.772Z" fill="white"/>
<path d="M32.4589 45.8192V51.1637C32.2634 51.2289 31.9375 51.2289 31.6116 51.2289C31.3509 51.2289 31.1554 51.2289 31.025 51.1637C30.8295 51.0985 30.6992 51.0333 30.5688 50.903C30.4385 50.7726 30.3733 50.5771 30.3081 50.3816C30.2429 50.1209 30.2429 49.8602 30.2429 49.4691V45.8844C29.917 45.8192 29.5912 45.8192 29.3304 45.8192C29.0046 45.8192 28.7439 45.8192 28.418 45.8844V49.5343C28.418 50.2512 28.4831 50.8378 28.6787 51.294C28.8742 51.7503 29.1349 52.0762 29.3956 52.2717C29.7215 52.5324 30.0474 52.6628 30.5036 52.7279C30.8947 52.7931 31.3509 52.8583 31.8072 52.8583C32.3286 52.8583 32.7848 52.7931 33.2411 52.7279C33.6973 52.6628 34.0884 52.5324 34.3491 52.4672V45.9495C34.0232 45.8844 33.6973 45.8844 33.4366 45.8844C33.0455 45.754 32.7848 45.754 32.4589 45.8192Z" fill="white"/>
<path d="M41.0608 46.4703C40.8001 46.2096 40.5394 45.9489 40.2135 45.8186C39.8876 45.6882 39.4966 45.623 39.1707 45.623C38.91 45.623 38.7144 45.623 38.5189 45.7534C38.3234 45.8186 38.1278 45.8838 37.9975 46.0141C37.8671 46.1445 37.6716 46.2096 37.6064 46.4052C37.4761 46.5355 37.4109 46.6659 37.3457 46.7962C37.3457 46.7311 37.3457 46.6659 37.3457 46.5355C37.3457 46.4703 37.3457 46.34 37.2805 46.2748C37.2805 46.2096 37.2154 46.0793 37.2154 46.0141C37.2154 45.9489 37.1502 45.8838 37.1502 45.8186C36.8895 45.7534 36.6288 45.7534 36.3681 45.7534C36.2377 45.7534 36.1074 45.7534 35.977 45.7534C35.8466 45.7534 35.7163 45.7534 35.5859 45.8186V55.7255C35.7815 55.7255 35.9118 55.7906 36.0422 55.7906C36.1725 55.7906 36.3681 55.7906 36.4984 55.7906C36.6288 55.7906 36.8243 55.7906 36.9547 55.7906C37.085 55.7906 37.2805 55.7906 37.4109 55.7255V52.7273C37.4761 52.7273 37.6064 52.7925 37.802 52.7925C37.9323 52.7925 38.0627 52.7925 38.2582 52.7925C38.8448 52.7925 39.3662 52.7273 39.8224 52.5318C40.2787 52.3363 40.6697 52.1407 40.9956 51.8148C41.3215 51.489 41.5822 51.0979 41.7126 50.6417C41.9081 50.1854 41.9733 49.664 41.9733 49.0774C41.9733 48.4908 41.9081 47.9694 41.7777 47.5784C41.517 47.1221 41.3215 46.7962 41.0608 46.4703ZM39.4314 50.7068C39.1707 51.0327 38.7144 51.2283 38.193 51.2283C37.8671 51.2283 37.6064 51.1631 37.3457 51.0979V48.8167C37.3457 48.6212 37.3457 48.3605 37.4109 48.1649C37.4761 47.9694 37.5412 47.7739 37.6064 47.6435C37.6716 47.5132 37.802 47.3828 37.9975 47.3176C38.1278 47.2525 38.3234 47.1873 38.5841 47.1873C38.8448 47.1873 39.0403 47.2525 39.1707 47.3176C39.3662 47.3828 39.4314 47.5132 39.5617 47.7087C39.6921 47.9042 39.7573 48.0998 39.7573 48.2953C39.8224 48.556 39.8224 48.7515 39.8224 49.0774C39.8876 49.8595 39.6921 50.381 39.4314 50.7068Z" fill="white"/>
</svg>
