<svg width="31" height="38" viewBox="0 0 31 38" fill="none" xmlns="http://www.w3.org/2000/svg">
<path d="M14.9564 9.29868C14.9564 9.4245 14.8355 9.4245 14.8355 9.4245H14.7147C14.5939 9.4245 14.5939 9.29868 14.4731 9.17285C14.4731 9.17285 14.3523 9.04702 14.3523 8.92119C14.3523 8.79536 14.3523 8.79536 14.4731 8.79536L14.7147 8.92119C14.8355 9.04702 14.9564 9.17285 14.9564 9.29868ZM12.7818 8.0404C12.7818 7.41126 12.5401 7.03377 12.1777 7.03377C12.1777 7.03377 12.1777 7.1596 12.0569 7.1596V7.41126H12.4193C12.4193 7.66291 12.5401 7.78874 12.5401 8.0404H12.7818ZM17.0101 7.41126C17.2518 7.41126 17.3726 7.66291 17.4934 8.0404H17.735C17.6142 7.91457 17.6142 7.78874 17.6142 7.66291C17.6142 7.53709 17.6142 7.41126 17.4934 7.28543C17.3726 7.1596 17.2518 7.03377 17.1309 7.03377C17.1309 7.03377 17.0101 7.1596 16.8893 7.1596C16.8893 7.28543 17.0101 7.28543 17.0101 7.41126ZM13.3858 9.4245C13.265 9.4245 13.265 9.4245 13.265 9.29868C13.265 9.17285 13.265 9.04702 13.3858 8.92119C13.6274 8.92119 13.7482 8.79536 13.7482 8.79536C13.8691 8.79536 13.8691 8.92119 13.8691 8.92119C13.8691 9.04702 13.7482 9.17285 13.5066 9.4245H13.3858ZM12.0569 9.29868C11.5737 9.04702 11.4528 8.66954 11.4528 8.0404C11.4528 7.66291 11.4528 7.41126 11.6945 7.1596C11.8153 6.90795 12.0569 6.78212 12.2985 6.78212C12.5401 6.78212 12.661 6.90795 12.9026 7.1596C13.0234 7.53709 13.1442 7.91457 13.1442 8.29205V8.54371H13.265V8.41788C13.3858 8.41788 13.3858 8.16623 13.3858 7.66291C13.3858 7.28543 13.3858 6.90795 13.1442 6.53046C12.9026 6.15298 12.661 5.90132 12.1777 5.90132C11.8153 5.90132 11.4528 6.15298 11.332 6.53046C11.0904 7.03377 11.0421 7.41126 11.0421 8.0404C11.0421 8.54371 11.2112 9.04702 11.6945 9.55033C11.8153 9.4245 11.9361 9.4245 12.0569 9.29868ZM27.1582 27.0404C27.279 27.0404 27.279 26.9901 27.279 26.8768C27.279 26.6 27.1582 26.2728 26.7958 25.9079C26.4334 25.5305 25.8293 25.2914 25.1044 25.1907C24.9836 25.1781 24.8628 25.1781 24.8628 25.1781C24.742 25.153 24.742 25.153 24.6212 25.153C24.5004 25.1404 24.2588 25.1152 24.138 25.0901C24.5004 23.9199 24.6212 22.8881 24.6212 21.9821C24.6212 20.7238 24.3796 19.843 23.8963 19.0881C23.4131 18.3331 22.9299 17.9556 22.3258 17.8298C22.205 17.9556 22.205 17.9556 22.205 18.0815C22.809 18.3331 23.4131 18.8364 23.7755 19.5914C24.138 20.4722 24.2588 21.2272 24.2588 22.1079C24.2588 22.8126 24.138 23.857 23.6547 25.1907C23.1715 25.3921 22.6882 25.8576 22.3258 26.5874C22.3258 26.7007 22.3258 26.7636 22.4466 26.7636C22.4466 26.7636 22.5674 26.6503 22.6882 26.4364C22.9299 26.2225 23.0507 26.0086 23.2923 25.7947C23.6547 25.5808 23.8963 25.4676 24.2588 25.4676C24.8628 25.4676 25.4669 25.5556 25.8293 25.7318C26.3125 25.8954 26.5542 26.0715 26.675 26.2728C26.7958 26.4616 26.9166 26.6377 27.0374 26.8013C27.0374 26.9649 27.1582 27.0404 27.1582 27.0404ZM16.0436 8.79536C15.9228 8.66954 15.9228 8.41788 15.9228 8.16623C15.9228 7.66291 15.9228 7.41126 16.1645 7.03377C16.4061 6.78212 16.6477 6.65629 16.8893 6.65629C17.2518 6.65629 17.4934 6.90795 17.735 7.1596C17.8558 7.53709 17.9766 7.78874 17.9766 8.16623C17.9766 8.79536 17.735 9.17285 17.2518 9.29868C17.2518 9.29868 17.3726 9.4245 17.4934 9.4245C17.735 9.4245 17.8558 9.55033 18.0974 9.67616C18.2182 8.92119 18.339 8.41788 18.339 7.78874C18.339 7.03377 18.2182 6.53046 17.9766 6.15298C17.6142 5.7755 17.2518 5.64967 16.7685 5.64967C16.4061 5.64967 16.0436 5.7755 15.6812 6.02715C15.4396 6.40464 15.3188 6.65629 15.3188 7.03377C15.3188 7.66291 15.4396 8.16623 15.6812 8.66954C15.802 8.66954 15.9228 8.79536 16.0436 8.79536ZM17.4934 10.8086C15.9228 11.9411 14.7147 12.4444 13.7482 12.4444C12.9026 12.4444 12.0569 12.0669 11.332 11.4377C11.4528 11.6894 11.5737 11.9411 11.6945 12.0669L12.4193 12.8219C12.9026 13.3252 13.5066 13.5768 14.1107 13.5768C14.9564 13.5768 15.9228 13.0735 17.1309 12.1927L18.2182 11.4377C18.4599 11.1861 18.7015 10.9344 18.7015 10.557C18.7015 10.4311 18.7015 10.3053 18.5807 10.3053C18.4599 10.0536 17.8558 9.67616 16.6477 9.29868C15.5604 8.79536 14.7147 8.54371 14.2315 8.54371C13.8691 8.54371 13.265 8.79536 12.4193 9.29868C11.6945 9.80199 11.2112 10.3053 11.2112 10.8086C11.2112 10.8086 11.332 10.9344 11.4528 11.1861C12.1777 11.8152 12.9026 12.1927 13.6274 12.1927C14.5939 12.1927 15.802 11.6894 17.3726 10.4311V10.6828C17.4934 10.6828 17.4934 10.8086 17.4934 10.8086ZM20.272 36.2258C20.7553 37.1695 21.6009 37.6477 22.5674 37.6477C22.809 37.6477 23.0507 37.6099 23.2923 37.5344C23.5339 37.4841 23.7755 37.396 23.8963 37.2954C24.0171 37.2073 24.138 37.1192 24.2588 37.0185C24.5004 36.9305 24.5004 36.8676 24.6212 36.8046L26.675 34.955C27.1582 34.5523 27.6415 34.2 28.2455 33.898C28.7288 33.596 29.212 33.3947 29.4536 33.2815C29.8161 33.1808 30.0577 33.0298 30.2993 32.8285C30.4201 32.6397 30.5409 32.4007 30.5409 32.0987C30.5409 31.7338 30.2993 31.457 30.0577 31.2556C29.8161 31.0543 29.5744 30.9159 29.3328 30.8278C29.0912 30.7397 28.8496 30.5384 28.4871 30.1987C28.2455 29.8715 28.0039 29.4185 27.8831 28.8272L27.7623 28.0974C27.6415 27.7576 27.6415 27.506 27.5207 27.3676C27.5207 27.3298 27.5207 27.3172 27.3998 27.3172C27.279 27.3172 27.0374 27.4305 26.9166 27.6444C26.675 27.8583 26.4334 28.0974 26.1917 28.349C26.0709 28.6007 25.7085 28.8272 25.4669 29.0411C25.1044 29.255 24.742 29.3682 24.5004 29.3682C23.5339 29.3682 23.0507 29.0914 22.6882 28.5503C22.4466 28.1477 22.3258 27.6821 22.205 27.1536C21.9634 26.9397 21.8426 26.8265 21.6009 26.8265C20.9969 26.8265 20.7553 27.4808 20.7553 28.802V32.7152C20.7553 32.8285 20.6345 33.0801 20.6345 33.4702C20.5136 33.8603 20.5136 34.3007 20.5136 34.804L20.272 36.2007V36.2258ZM2.75448 35.5589C3.87802 35.7351 5.17069 36.1 6.6325 36.6536C8.09431 37.2073 8.98831 37.4967 9.3145 37.4967C10.1602 37.4967 10.8609 37.1066 11.4408 36.3517C11.5616 36.1126 11.5616 35.8232 11.5616 35.496C11.5616 34.3007 10.873 32.8033 9.49571 30.9788L8.6742 29.8338C8.50507 29.5947 8.29969 29.2298 8.0339 28.7391C7.7802 28.2483 7.55066 27.8709 7.36945 27.6066C7.21239 27.3172 6.95869 27.0278 6.6325 26.7384C6.31839 26.449 5.95596 26.2603 5.55729 26.1596C5.04988 26.2603 4.69953 26.4364 4.5304 26.6755C4.36126 26.9146 4.26461 27.1788 4.24045 27.4556C4.20421 27.7199 4.13172 27.896 4.01091 27.9841C3.8901 28.0596 3.68472 28.1225 3.40686 28.1854C3.34645 28.1854 3.23772 28.1854 3.08067 28.198H2.75448C2.11419 28.198 1.67927 28.2735 1.44973 28.3993C1.1477 28.7642 0.990647 29.1795 0.990647 29.6199C0.990647 29.8212 1.03897 30.1609 1.13562 30.6391C1.23227 31.1046 1.28059 31.4821 1.28059 31.7464C1.28059 32.2623 1.13562 32.7781 0.833593 33.294C0.531567 33.8351 0.374513 34.2377 0.374513 34.5272C0.495323 35.0053 1.29267 35.345 2.75448 35.5589ZM6.77747 24.1086C6.77747 23.2404 6.99493 22.2841 7.44193 21.1517C7.87685 20.0192 8.31177 19.2642 8.73461 18.7609C8.71044 18.6351 8.65004 18.6351 8.55339 18.6351L8.43258 18.5093C8.08223 18.8868 7.65939 19.7676 7.15199 21.0258C6.64458 22.1583 6.3788 23.2026 6.3788 23.9702C6.3788 24.5364 6.51169 25.0272 6.75331 25.455C7.0191 25.8702 7.65939 26.4742 8.6742 27.2417L9.95479 28.1099C11.32 29.343 12.0448 30.1987 12.0448 30.702C12.0448 30.9662 11.924 31.2305 11.5616 31.5199C11.32 31.8219 10.9938 31.9728 10.7159 31.9728C10.6917 31.9728 10.6797 31.998 10.6797 32.0609C10.6797 32.0735 10.8005 32.3252 11.0542 32.8159C11.5616 33.5331 12.6489 33.8854 14.0986 33.8854C16.7564 33.8854 18.8102 32.753 20.3807 30.4881C20.3807 29.8589 20.3807 29.4689 20.2599 29.3053V28.8397C20.2599 28.0219 20.3807 27.4053 20.6224 27.0027C20.864 26.6 21.1056 26.4113 21.468 26.4113C21.7097 26.4113 21.9513 26.4993 22.1929 26.6881C22.3137 25.7192 22.3137 24.8762 22.3137 24.1212C22.3137 22.9762 22.3137 22.0325 22.0721 21.1517C21.9513 20.3967 21.7097 19.7676 21.468 19.2642L20.7432 18.1318C20.5016 17.7543 20.3807 17.3768 20.1391 16.9993C20.0183 16.496 19.8975 16.1185 19.8975 15.4894C19.5351 14.8603 19.2935 14.2311 18.931 13.602C18.6894 12.9728 18.4478 12.3437 18.2062 11.8404L17.1189 12.7212C15.9108 13.602 14.9443 13.9795 14.0986 13.9795C13.3737 13.9795 12.7697 13.8536 12.4072 13.3503L11.6824 12.7212C11.6824 13.0987 11.5616 13.602 11.32 14.1053L10.5588 15.6152C10.2206 16.496 10.0394 16.9993 10.0031 17.3768C9.95479 17.6285 9.91855 17.8801 9.89439 17.8801L8.98831 19.7676C8.00974 21.655 7.51442 23.404 7.51442 24.851C7.51442 25.1404 7.53858 25.4424 7.58691 25.7444C7.04326 25.3543 6.77747 24.8132 6.77747 24.1086ZM15.4275 36.0119C13.857 36.0119 12.6489 36.2384 11.8032 36.6662V36.6285C11.1991 37.3834 10.5226 37.7735 9.58028 37.7735C8.98831 37.7735 8.05807 37.5344 6.80164 37.0563C5.53313 36.6033 4.40959 36.251 3.43102 36.0245C3.33437 35.9993 3.11691 35.949 2.76656 35.8987C2.42829 35.8358 2.11419 35.7854 1.83632 35.7225C1.58262 35.6596 1.29267 35.5841 0.978566 35.4709C0.676539 35.3702 0.434918 35.2444 0.253702 35.0808C0.0845674 34.9172 0 34.7411 0 34.5397C0 34.3384 0.0362432 34.1245 0.120811 33.898C0.193297 33.7596 0.277864 33.6212 0.362432 33.4954C0.446999 33.357 0.519486 33.2311 0.56781 33.1053C0.640296 32.9921 0.68862 32.8788 0.736945 32.753C0.785269 32.6397 0.833593 32.5265 0.857755 32.3881C0.881917 32.2623 0.906079 32.1364 0.906079 32.0106C0.906079 31.8848 0.857755 31.5073 0.761107 30.8404C0.664458 30.1861 0.616134 29.7709 0.616134 29.5947C0.616134 29.0411 0.736945 28.6007 1.00273 28.2861C1.26851 27.9715 1.52221 27.8079 1.788 27.8079H3.17732C3.28605 27.8079 3.45518 27.745 3.70889 27.594C3.79345 27.3927 3.86594 27.2291 3.91426 27.0781C3.97467 26.9272 3.99883 26.8139 4.02299 26.7636C4.04715 26.6881 4.07132 26.6126 4.09548 26.5497C4.1438 26.4616 4.20421 26.3609 4.28878 26.2603C4.19213 26.1344 4.1438 25.9709 4.1438 25.7695C4.1438 25.6311 4.1438 25.5053 4.16797 25.4298C4.16797 24.9768 4.37334 24.3351 4.80826 23.4921L5.2311 22.6993C5.58145 22.0199 5.84723 21.5166 6.04053 21.0132C6.24591 20.5099 6.46337 19.755 6.70499 18.7483C6.89829 17.8676 7.35737 16.9868 8.08223 16.106L8.98831 14.9735C9.61652 14.2185 10.0273 13.5894 10.2568 13.0861C10.4864 12.5828 10.6072 11.9536 10.6072 11.4503C10.6072 11.1987 10.5468 10.4437 10.4139 9.18543C10.2931 7.92715 10.2327 6.66887 10.2327 5.53642C10.2327 4.65563 10.3051 4.02649 10.4622 3.39735C10.6193 2.76821 10.8971 2.13907 11.3079 1.63576C11.6703 1.13245 12.1535 0.629139 12.8784 0.377483C13.6033 0.125828 14.4489 0 15.4154 0C15.7779 0 16.1403 0 16.5027 0.125828C16.8652 0.125828 17.3484 0.251656 17.9525 0.503311C18.4357 0.754967 18.9189 1.00662 19.2814 1.38411C19.7646 1.76159 20.127 2.39073 20.4895 3.01987C20.7311 3.77483 20.9727 4.5298 21.0935 5.53642C21.2143 6.16556 21.2143 6.7947 21.3352 7.6755C21.3352 8.43046 21.456 8.93378 21.456 9.31126C21.5768 9.68874 21.5768 10.1921 21.6976 10.8212C21.8184 11.3245 21.9392 11.8278 22.1808 12.2053C22.4224 12.7086 22.6641 13.2119 23.0265 13.7152C23.3889 14.3444 23.8722 14.9735 24.3554 15.7285C25.4427 16.9868 26.2884 18.3709 26.7716 19.755C27.3757 21.0132 27.7381 22.649 27.7381 24.398C27.7381 25.2662 27.6173 26.1093 27.3757 26.9272C27.6173 26.9272 27.7381 27.0278 27.8589 27.204C27.9797 27.3801 28.1005 27.7576 28.2214 28.349L28.3422 29.2801C28.463 29.557 28.5838 29.8212 28.9462 30.0477C29.1878 30.2742 29.4295 30.4629 29.7919 30.6139C30.0335 30.7397 30.3959 30.9159 30.6376 31.1424C30.8792 31.394 31 31.6583 31 31.9351C31 32.3629 30.8792 32.6775 30.6376 32.904C30.3959 33.1556 30.1543 33.3318 29.7919 33.445C29.5503 33.5709 29.067 33.8225 28.3422 34.1748C27.7381 34.5523 27.1341 34.9927 26.53 35.5338L25.3219 36.6033C24.8387 37.094 24.3554 37.4464 23.993 37.6603C23.6306 37.8868 23.1473 38 22.6641 38L21.8184 37.8993C20.8519 37.6351 20.2479 37.1318 19.8854 36.3642C17.9645 36.1377 16.394 36.0119 15.4275 36.0119Z" fill="white"/>
</svg>
