<svg width="33" height="33" viewBox="0 0 33 33" fill="none" xmlns="http://www.w3.org/2000/svg">
<path d="M13.29 32.7994C10.4033 32.2089 7.71342 30.864 5.61401 28.9942C0.20149 24.1885 -1.48787 16.6274 1.3824 9.88633C2.08767 8.22977 3.23578 6.5568 4.64632 5.09706L5.89284 3.81774L5.97485 11.3297C6.05686 18.53 6.07326 18.8908 6.41769 19.7929C7.10656 21.6135 7.82823 22.7616 9.09115 24.0081C12.3387 27.2392 17.0951 28.0429 21.1463 26.0583C24.9515 24.1885 27.3461 20.1045 27.0673 15.9713C26.8869 13.1994 25.952 11.1657 23.9346 9.14826C22.4092 7.62291 20.6215 6.62241 18.6861 6.21237C16.7015 5.80233 16.7999 5.73672 16.7999 7.40969V8.85303L17.8824 9.04985C22.0812 9.82072 24.8695 13.9539 24.0002 18.1199C23.7214 19.4485 23.0981 20.6294 22.0976 21.7119C20.5723 23.352 18.4237 24.1393 16.5539 24.1393C13.454 24.1393 10.8789 22.3679 9.616 19.7765C9.616 19.7765 9.28797 19.0384 9.18956 18.5792C8.5663 15.8729 8.95994 10.198 8.95994 10.198L8.91074 1.88235L9.40278 1.63633C9.66521 1.48871 9.92763 1.3903 9.97684 1.3903C10.026 1.3903 10.0752 5.21187 10.108 9.88633C10.108 9.88633 9.51759 16.0041 10.2557 18.3496C10.3541 18.694 10.5673 19.268 10.5673 19.268C11.207 20.5802 12.2403 21.7447 13.5852 22.3843C14.6021 22.86 15.1269 23.0896 16.6359 23.0896C17.62 23.0896 18.4893 22.778 19.5062 22.3187C20.6871 21.7775 22.0484 20.3341 22.5569 19.0056C23.9346 15.3645 22.0156 11.4609 18.2924 10.362C16.7671 9.91913 16.7999 9.88633 16.7999 11.5429V12.9862L17.5216 13.183C20.1458 13.8883 20.9495 17.4147 18.8829 19.2188C18.1612 19.8585 17.5052 20.1373 16.3571 20.1373C15.1269 20.1373 13.946 19.3993 13.3392 18.2511C12.9783 17.5623 12.9455 16.9226 12.9455 16.6274C12.9455 13.8883 12.8799 8.93503 12.8799 8.93503L12.8307 0.455412L13.208 0.357002C13.4212 0.307797 14.2577 0.176585 15.0777 0.0781754C17.8496 -0.28266 21.95 0.635829 24.7055 2.21038C28.4614 4.35899 31.2989 8.04935 32.4798 12.3138C32.8899 13.7735 32.9391 14.2163 32.9391 16.5618C32.9391 18.9072 32.8899 19.35 32.4962 20.7934C30.8889 26.5996 26.7885 30.7328 20.9331 32.5041C19.703 32.8814 19.1289 32.947 16.9475 32.9962C15.1925 33.0126 14.0608 32.9634 13.29 32.7994Z" fill="white"/>
</svg>
