<svg width="33" height="33" viewBox="0 0 33 33" fill="none" xmlns="http://www.w3.org/2000/svg">
<path d="M16.1619 0C14.8105 0 13.5178 0.117514 12.4015 0.323164C9.08169 0.910734 8.46474 2.14463 8.46474 4.40678V7.40339H16.3382V8.40226H8.46474H5.49751C3.20599 8.40226 1.20825 9.78305 0.561918 12.3977C-0.172545 15.3943 -0.201923 17.2746 0.561918 20.3887C1.12011 22.7096 2.47152 24.3842 4.73367 24.3842H7.43649V20.8C7.43649 18.2147 9.69864 15.8938 12.3721 15.8938H20.2455C22.4489 15.8938 24.1822 14.1017 24.1822 11.8983V4.40678C24.1822 2.26215 22.3902 0.675706 20.2455 0.323164C18.9235 0.0881355 17.5133 0 16.1619 0ZM11.902 2.40904C12.7246 2.40904 13.371 3.08474 13.371 3.90734C13.371 4.72994 12.6952 5.40565 11.902 5.40565C11.0794 5.40565 10.4331 4.72994 10.4331 3.90734C10.4331 3.08474 11.0794 2.40904 11.902 2.40904Z" fill="white"/>
<path d="M25.1812 8.43164V11.9277C25.1812 14.6305 22.8897 16.922 20.2456 16.922H12.4016C10.2569 16.922 8.46484 18.7729 8.46484 20.9175V28.409C8.46484 30.5537 10.3157 31.7876 12.4016 32.4045C14.8987 33.139 17.2784 33.2565 20.275 32.4045C22.2727 31.8169 24.2117 30.6712 24.2117 28.409V25.4124H16.3383V24.4136H24.2117H28.1485C30.44 24.4136 31.292 22.8271 32.0852 20.4181C32.9078 17.9503 32.8784 15.5706 32.0852 12.4271C31.527 10.1356 30.44 8.43164 28.1485 8.43164H25.1812ZM20.7744 27.4102C21.597 27.4102 22.2434 28.0859 22.2434 28.9085C22.2434 29.7311 21.5677 30.4068 20.7744 30.4068C19.9518 30.4068 19.3055 29.7311 19.3055 28.9085C19.2761 28.0859 19.9518 27.4102 20.7744 27.4102Z" fill="white"/>
</svg>
