<svg width="27" height="33" viewBox="0 0 27 33" fill="none" xmlns="http://www.w3.org/2000/svg">
<path d="M26.0099 11.2508C25.8185 11.3993 22.4389 13.3036 22.4389 17.538C22.4389 22.4356 26.7393 24.1683 26.868 24.2112C26.8482 24.3168 26.1848 26.5842 24.6007 28.8944C23.1881 30.9274 21.7129 32.9571 19.4686 32.9571C17.2244 32.9571 16.6469 31.6535 14.0561 31.6535C11.5314 31.6535 10.6337 33 8.58086 33C6.52805 33 5.09571 31.1188 3.44884 28.8086C1.54125 26.0957 0 21.8812 0 17.8812C0 11.4653 4.17162 8.06271 8.27723 8.06271C10.4587 8.06271 12.2772 9.49505 13.6469 9.49505C14.9505 9.49505 16.9835 7.9769 19.4653 7.9769C20.4059 7.9769 23.7855 8.06271 26.0099 11.2508ZM18.2871 5.26073C19.3135 4.0429 20.0396 2.35314 20.0396 0.663366C20.0396 0.429043 20.0198 0.191419 19.9769 0C18.3069 0.0627063 16.3201 1.11221 15.1221 2.50165C14.1815 3.57096 13.3036 5.26073 13.3036 6.9736C13.3036 7.23102 13.3465 7.48845 13.3663 7.57096C13.4719 7.59076 13.6436 7.61386 13.8152 7.61386C15.3135 7.61386 17.198 6.61056 18.2871 5.26073Z" fill="white"/>
</svg>
