<svg width="57" height="28" viewBox="0 0 57 28" fill="none" xmlns="http://www.w3.org/2000/svg">
<path fill-rule="evenodd" clip-rule="evenodd" d="M29.2003 23.8281C28.0739 23.7415 26.8608 23.5682 25.9077 23.3082C25.7344 23.2216 24.9545 22.9617 24.7813 22.875C21.3153 21.3153 18.9759 17.7628 18.9759 13.777C18.9759 8.23153 23.4815 3.72585 29.027 3.72585C34.4858 3.72585 38.9915 8.14489 39.0781 13.6903H42.7173C42.544 6.06534 36.4787 0 28.9403 0C21.402 0 15.25 6.15199 15.25 13.6903C15.25 18.8892 18.196 23.3949 22.4418 25.7344C23.2216 26.1676 24.348 26.6009 24.6946 26.6875C25.9077 27.0341 27.3807 27.294 28.7671 27.3807C29.2003 27.3807 30.7599 27.4673 31.2798 27.4673H56.321V23.8281H31.3665C31.0199 23.8281 29.5469 23.8281 29.2003 23.8281ZM31.3665 18.1094C31.1065 18.1094 29.7202 18.1094 29.4602 18.1094C29.027 18.1094 28.4205 18.0227 27.9872 17.9361C27.554 17.8494 27.1207 17.6761 26.9474 17.5895C25.5611 16.8963 24.6946 15.4233 24.6946 13.777C24.6946 11.3509 26.6009 9.4446 29.027 9.4446C31.3665 9.4446 33.2727 11.3509 33.3594 13.6037H36.8253C36.7386 9.35796 33.2727 5.89205 29.027 5.89205C24.6946 5.89205 21.2287 9.35796 21.2287 13.6903C21.2287 16.723 22.9617 19.4091 25.5611 20.6222C25.9943 20.8821 26.6875 21.0554 26.8608 21.142C27.554 21.3153 28.5071 21.4886 29.2869 21.4886C29.5469 21.4886 31.0199 21.4886 31.2798 21.4886H56.4077V18.0227H31.3665V18.1094ZM12.9972 27.4673H9.35796V3.6392H3.9858V0H12.9972V27.4673ZM0 5.45881V9.01136H3.9858V27.4673H7.53835V5.45881H0Z" fill="white"/>
<path d="M49.9086 0.259766C48.6088 0.259766 47.4824 1.29954 47.4824 2.59925C47.4824 3.89897 48.6088 5.02539 49.9086 5.02539C51.2949 5.02539 52.3347 3.89897 52.3347 2.59925C52.248 1.29954 51.2083 0.259766 49.9086 0.259766ZM49.9086 4.6788C48.7821 4.6788 47.9157 3.81232 47.9157 2.6859C47.9157 1.55948 48.8688 0.693004 49.9086 0.693004C51.035 0.693004 51.9015 1.55948 51.9015 2.6859C51.9015 3.81232 50.9483 4.6788 49.9086 4.6788Z" fill="white"/>
<path d="M50.7759 3.29226C50.7759 3.03232 50.7759 2.77237 50.4293 2.68572C50.7759 2.51243 50.8626 2.33913 50.8626 2.16584C50.8626 1.5593 50.3427 1.47266 50.0827 1.47266H49.043V3.81215H49.4762V2.85902H49.8228C50.3427 2.85902 50.3427 3.11896 50.3427 3.29226C50.3427 3.7255 50.3427 3.81215 50.4293 3.81215H50.8626C50.7759 3.7255 50.8626 3.63885 50.7759 3.29226ZM49.9961 2.51243H49.4762V1.7326H49.9094C50.256 1.7326 50.4293 1.81925 50.4293 2.07919C50.4293 2.25249 50.3427 2.51243 49.9961 2.51243Z" fill="white"/>
</svg>
