<svg width="63" height="33" viewBox="0 0 63 33" fill="none" xmlns="http://www.w3.org/2000/svg">
<path d="M20.4079 21.8848H17.6289V32.74H20.4079V21.8848Z" fill="white"/>
<path d="M42.5517 25.0108C42.4648 24.924 41.5964 24.4029 40.2069 24.4029C38.4701 24.4029 37.1675 25.6187 37.1675 27.2687C37.1675 28.9187 38.3833 30.1345 40.2069 30.1345C41.5096 30.1345 42.378 29.6134 42.5517 29.5266V32.4792C42.2043 32.5661 41.2491 32.8266 40.0333 32.8266C36.9938 32.8266 34.2148 30.7424 34.2148 27.1818C34.2148 23.9687 36.6464 21.5371 40.0333 21.5371C41.3359 21.5371 42.2912 21.8845 42.5517 21.8845V25.0108Z" fill="white"/>
<path d="M13.8954 25.0108C13.8086 24.924 12.9402 24.4029 11.5507 24.4029C9.81386 24.4029 8.51123 25.6187 8.51123 27.2687C8.51123 28.9187 9.72702 30.1345 11.5507 30.1345C12.8533 30.1345 13.7218 29.6134 13.8954 29.5266V32.4792C13.5481 32.5661 12.5928 32.8266 11.377 32.8266C8.33754 32.8266 5.55859 30.7424 5.55859 27.1818C5.55859 23.9687 7.99017 21.5371 11.377 21.5371C12.6796 21.5371 13.6349 21.8845 13.8954 21.8845V25.0108Z" fill="white"/>
<path d="M51.1495 24.4899C49.4995 24.4899 48.2838 25.7925 48.2838 27.3557C48.2838 28.9188 49.4995 30.2215 51.1495 30.2215C52.7996 30.2215 54.0153 28.9188 54.0153 27.3557C54.0153 25.7925 52.7996 24.4899 51.1495 24.4899ZM56.8811 27.3557C56.8811 30.482 54.4495 33.0004 51.1495 33.0004C47.8495 33.0004 45.418 30.482 45.418 27.3557C45.418 24.2294 47.8495 21.7109 51.1495 21.7109C54.4495 21.7109 56.8811 24.2294 56.8811 27.3557Z" fill="white"/>
<path d="M30.8284 24.4021C30.8284 24.4021 29.6126 24.0548 28.6573 24.0548C27.5284 24.0548 26.9205 24.4021 26.9205 24.9232C26.9205 25.6179 27.7021 25.7916 28.1363 25.9653L28.9178 26.2258C30.6547 26.8337 31.5231 28.0495 31.5231 29.3521C31.5231 32.0442 29.0915 32.9995 27.0073 32.9995C25.531 32.9995 24.1415 32.739 24.0547 32.739V30.2206C24.3152 30.3074 25.4442 30.6548 26.66 30.6548C28.0494 30.6548 28.6573 30.2206 28.6573 29.6127C28.6573 29.0916 28.1363 28.7442 27.4415 28.5706C27.2678 28.4837 27.0073 28.3969 26.8336 28.3969C25.2705 27.8758 24.0547 27.0074 24.0547 25.1837C24.0547 23.1863 25.6178 21.7969 28.1363 21.7969C29.4389 21.7969 30.7415 22.1442 30.8284 22.1442V24.4021Z" fill="white"/>
<path d="M2.69211 10.2479C2.69211 9.46629 2.08421 8.8584 1.30263 8.8584C0.521053 8.8584 0 9.46629 0 10.2479V13.1137C0 13.8952 0.607895 14.5031 1.38947 14.5031C2.17105 14.5031 2.77895 13.8952 2.77895 13.1137V10.2479H2.69211Z" fill="white"/>
<path d="M10.1618 6.5135C10.1618 5.73192 9.55387 5.12402 8.77229 5.12402C7.99071 5.12402 7.38281 5.73192 7.38281 6.5135V13.1135C7.38281 13.8951 7.99071 14.503 8.77229 14.503C9.55387 14.503 10.1618 13.8951 10.1618 13.1135V6.5135Z" fill="white"/>
<path d="M17.7164 1.38947C17.7164 0.607895 17.1086 0 16.327 0C15.5454 0 14.9375 0.607895 14.9375 1.38947V15.8053C14.9375 16.5868 15.5454 17.1947 16.327 17.1947C17.1086 17.1947 17.7164 16.5868 17.7164 15.8053V1.38947Z" fill="white"/>
<path d="M25.1852 6.5135C25.1852 5.73192 24.5773 5.12402 23.7957 5.12402C23.0141 5.12402 22.4062 5.73192 22.4062 6.5135V13.1135C22.4062 13.8951 23.0141 14.503 23.7957 14.503C24.5773 14.503 25.1852 13.8951 25.1852 13.1135V6.5135Z" fill="white"/>
<path d="M32.652 10.2479C32.652 9.46629 32.0441 8.8584 31.2625 8.8584C30.4809 8.8584 29.873 9.46629 29.873 10.2479V13.1137C29.873 13.8952 30.4809 14.5031 31.2625 14.5031C32.0441 14.5031 32.652 13.8952 32.652 13.1137V10.2479Z" fill="white"/>
<path d="M32.6539 10.2479C32.6539 9.46629 32.0461 8.8584 31.2645 8.8584C30.4829 8.8584 29.875 9.46629 29.875 10.2479V13.1137C29.875 13.8952 30.4829 14.5031 31.2645 14.5031C32.0461 14.5031 32.6539 13.8952 32.6539 13.1137V10.2479Z" fill="white"/>
<path d="M40.1227 6.5135C40.1227 5.73192 39.5148 5.12402 38.7332 5.12402C37.9516 5.12402 37.3438 5.73192 37.3438 6.5135V13.1135C37.3438 13.8951 37.9516 14.503 38.7332 14.503C39.5148 14.503 40.1227 13.8951 40.1227 13.1135V6.5135Z" fill="white"/>
<path d="M47.5914 1.38947C47.5914 0.607895 46.9836 0 46.202 0C45.4204 0 44.8125 0.607895 44.8125 1.38947V15.8053C44.8125 16.5868 45.4204 17.1947 46.202 17.1947C46.9836 17.1947 47.5914 16.5868 47.5914 15.8053V1.38947Z" fill="white"/>
<path d="M55.0602 6.5135C55.0602 5.73192 54.4523 5.12402 53.6707 5.12402C52.8891 5.12402 52.2812 5.73192 52.2812 6.5135V13.1135C52.2812 13.8951 52.8891 14.503 53.6707 14.503C54.4523 14.503 55.0602 13.8951 55.0602 13.1135V6.5135Z" fill="white"/>
<path d="M62.5289 10.2479C62.5289 9.46629 61.9211 8.8584 61.1395 8.8584C60.3579 8.8584 59.75 9.46629 59.75 10.2479V13.1137C59.75 13.8952 60.3579 14.5031 61.1395 14.5031C61.9211 14.5031 62.5289 13.8952 62.5289 13.1137V10.2479Z" fill="white"/>
<path d="M60.9619 31.3496V31.5233H60.4408V32.8259H60.2671V31.5233H59.7461V31.3496H60.9619Z" fill="white"/>
<path d="M61.0508 31.3496H61.3981L61.8324 32.5654L62.2666 31.3496H62.5271V32.7391H62.3534V31.6101L61.9192 32.7391H61.6587L61.2245 31.6101V32.7391H61.0508V31.3496Z" fill="white"/>
</svg>
