<svg width="81" height="28" viewBox="0 0 81 28" fill="none" xmlns="http://www.w3.org/2000/svg">
<path d="M27.6015 14.3943C27.6015 13.2716 27.2647 12.181 26.6232 11.2668C25.9817 10.3527 25.0675 9.647 24.009 9.27812C24.1052 8.79698 24.1534 8.2998 24.1534 7.80262C24.1534 6.1507 23.6401 4.54689 22.6618 3.21573C21.6835 1.88457 20.3202 0.874169 18.7485 0.376989C17.1768 -0.13623 15.4928 -0.120192 13.9211 0.393027C12.3493 0.906246 10.9861 1.90061 10.0238 3.24781C9.31812 2.70251 8.43603 2.39779 7.5379 2.38175C6.63977 2.36571 5.75767 2.6544 5.03596 3.18365C4.31424 3.71291 3.78499 4.4667 3.52838 5.33276C3.27177 6.19881 3.30384 7.11298 3.60857 7.963C2.56609 8.33188 1.65192 9.02151 1.0104 9.95172C0.352838 10.8659 0 11.9565 0 13.0791C0 14.2018 0.3368 15.2924 0.994361 16.2226C1.63588 17.1368 2.55005 17.8425 3.60857 18.2113C3.51234 18.6925 3.46423 19.1897 3.46423 19.6868C3.46423 21.3388 3.97744 22.9426 4.95577 24.2737C5.91805 25.6049 7.29733 26.5993 8.85302 27.0964C10.4248 27.5936 12.1088 27.5936 13.6644 27.0804C15.2201 26.5672 16.5834 25.5568 17.5457 24.2256C18.2513 24.7709 19.1174 25.0917 20.0316 25.0917C20.9297 25.1077 21.8118 24.819 22.5335 24.2898C23.2552 23.7605 23.7845 23.0067 24.0571 22.1407C24.3137 21.2746 24.2817 20.3604 23.9769 19.5104C25.0354 19.1255 25.9496 18.4198 26.5911 17.5057C27.2327 16.6075 27.5855 15.5169 27.6015 14.3943Z" fill="#00BAC6"/>
<path d="M10.8427 11.8284L16.889 14.5869L22.9835 9.24624C23.0637 8.81321 23.1118 8.36415 23.1118 7.91508C23.1118 6.45562 22.6467 5.04426 21.7806 3.87348C20.9146 2.7027 19.6957 1.83665 18.3164 1.40362C16.9211 0.970592 15.4456 1.00267 14.0663 1.48381C12.687 1.96495 11.5163 2.86309 10.6823 4.06594L9.67188 9.31039L10.8427 11.8284Z" fill="white"/>
<path d="M4.60291 18.2272C4.50669 18.6763 4.47461 19.1254 4.47461 19.5905C4.47461 21.05 4.93971 22.4773 5.80577 23.6481C6.67183 24.8189 7.89072 25.685 9.28603 26.118C10.6813 26.551 12.1729 26.5189 13.5522 26.0378C14.9314 25.5567 16.1183 24.6425 16.9362 23.4396L17.9466 18.1952L16.5994 15.6291L10.537 12.8545L4.60291 18.2272Z" fill="white"/>
<path d="M4.55523 7.77L8.69306 8.74832L9.59119 4.04916C9.02985 3.61613 8.34022 3.3916 7.63454 3.3916C6.92887 3.3916 6.23923 3.61613 5.6779 4.03312C5.11656 4.45011 4.69957 5.04352 4.49108 5.71712C4.29862 6.39072 4.31466 7.11244 4.55523 7.77Z" fill="white"/>
<path d="M4.20206 8.76465C3.28789 9.06937 2.50202 9.64674 1.94069 10.4326C1.37936 11.2024 1.07463 12.1326 1.05859 13.0949C1.05859 14.0251 1.33124 14.9233 1.8605 15.6931C2.38975 16.4629 3.12751 17.0403 3.99356 17.3611L9.79935 12.1166L8.74083 9.8392L4.20206 8.76465Z" fill="white"/>
<path d="M17.9961 23.4243C18.5574 23.8413 19.2471 24.0819 19.9527 24.0819C20.6584 24.0819 21.3481 23.8574 21.9094 23.4404C22.4707 23.0234 22.8877 22.43 23.0962 21.7564C23.3047 21.0828 23.2726 20.3611 23.0321 19.7035L18.8942 18.7412L17.9961 23.4243Z" fill="white"/>
<path d="M18.845 17.6498L23.3998 18.7083C24.314 18.4036 25.0999 17.8262 25.6612 17.0403C26.2225 16.2705 26.5273 15.3243 26.5433 14.378C26.5433 13.4478 26.2546 12.5497 25.7414 11.7959C25.2121 11.0421 24.4744 10.4487 23.6083 10.1279L17.6582 15.3403L18.845 17.6498Z" fill="white"/>
<path d="M38.5874 19.3014L39.1327 19.2533L39.1647 20.3759C37.9298 20.5684 36.6949 20.6646 35.4599 20.6807C34.0967 20.6807 33.1184 20.2797 32.5571 19.4938C31.9957 18.708 31.707 17.473 31.707 15.789C31.707 12.4531 33.0382 10.7852 35.6845 10.7852C36.9675 10.7852 37.9298 11.138 38.5553 11.8597C39.1808 12.5814 39.5015 13.7041 39.5015 15.2277L39.4213 16.3183H33.1505C33.1505 17.3768 33.3429 18.1466 33.7278 18.6599C34.1127 19.1731 34.7703 19.4136 35.7166 19.4136C36.6468 19.4136 37.609 19.3816 38.5874 19.3014ZM38.0741 15.1796C38.0741 14.0088 37.8817 13.1909 37.5128 12.7097C37.1439 12.2286 36.5345 11.988 35.6845 11.988C34.8345 11.988 34.209 12.2446 33.7759 12.7418C33.359 13.255 33.1344 14.0569 33.1184 15.1796H38.0741Z" fill="white"/>
<path d="M41.4746 20.6005V8.09082H42.902V20.6005H41.4746Z" fill="white"/>
<path d="M51.8837 13.8484V18.6438C51.8837 19.125 53.0705 19.0929 53.0705 19.0929L52.9903 20.3599C51.9959 20.3599 51.162 20.4401 50.6648 19.9589C49.5902 20.4401 48.4195 20.6807 47.2487 20.6807C46.3826 20.6807 45.709 20.4401 45.26 19.9429C44.7948 19.4457 44.5703 18.74 44.5703 17.8098C44.5703 16.8796 44.8109 16.206 45.276 15.757C45.7411 15.3239 46.4788 15.0513 47.4892 14.9551L50.4723 14.6664V13.8484C50.4723 13.2069 50.328 12.7418 50.0553 12.4531C49.895 12.3088 49.7185 12.1965 49.5261 12.1324C49.3336 12.0682 49.1251 12.0361 48.9166 12.0361H45.1637V10.7852H48.8204C49.895 10.7852 50.6808 11.0257 51.162 11.5229C51.6431 12.0201 51.8837 12.7899 51.8837 13.8484ZM46.0298 17.7296C46.0298 18.9004 46.5109 19.4778 47.4732 19.4778C48.3393 19.4778 49.2053 19.3335 50.0233 19.0448L50.4563 18.9004V15.7409L47.6496 16.0136C47.0723 16.0617 46.6713 16.2221 46.4147 16.5108C46.1581 16.7834 46.0298 17.1844 46.0298 17.7296Z" fill="white"/>
<path d="M57.4494 12.0526C56.0702 12.0526 55.3805 12.5337 55.3805 13.496C55.3805 13.9451 55.5409 14.2498 55.8617 14.4423C56.1824 14.6347 56.9041 14.8111 58.0268 15.0196C59.1495 15.2121 59.9514 15.5008 60.4165 15.8536C60.8816 16.2064 61.1221 16.88 61.1221 17.8423C61.1221 18.8206 60.8014 19.5424 60.1759 19.9914C59.5504 20.4405 58.6362 20.6811 57.4334 20.6811C56.6475 20.6811 54.0173 20.3924 54.0173 20.3924L54.0975 19.1574C55.605 19.3018 56.6956 19.4141 57.4334 19.4141C58.1711 19.4141 58.7325 19.3018 59.1174 19.0612C59.5023 18.8206 59.6948 18.4357 59.6948 17.8744C59.6948 17.3291 59.5344 16.9442 59.1976 16.7517C58.8608 16.5593 58.1391 16.3668 57.0324 16.1904C55.9098 16.014 55.1239 15.7574 54.6588 15.4045C54.1937 15.0677 53.9531 14.4262 53.9531 13.496C53.9531 12.5658 54.2739 11.8922 54.9314 11.4431C55.589 10.9941 56.3909 10.7695 57.3692 10.7695C58.1391 10.7695 60.8174 10.962 60.8174 10.962V12.213C59.4221 12.1648 58.2674 12.0526 57.4494 12.0526Z" fill="white"/>
<path d="M68.0003 12.2134H64.9691V16.7522C64.9691 17.8428 65.0493 18.5645 65.2096 18.9013C65.37 19.2381 65.7389 19.4145 66.3323 19.4145L68.0323 19.3023L68.1286 20.473C67.4871 20.5853 66.8455 20.6655 66.188 20.6815C65.1936 20.6815 64.52 20.441 64.1351 19.9598C63.7502 19.4787 63.5577 18.5645 63.5738 17.2013V12.2134H62.2266V10.9785H63.5738V8.05957H64.9851V10.9625H68.0003V12.2134Z" fill="white"/>
<path d="M69.9902 9.75934V8.10742H71.4176V9.75934H69.9902ZM69.9902 20.6011V10.9782H71.4176V20.6011H69.9902Z" fill="white"/>
<path d="M77.5923 10.7852C78.2979 10.8172 79.0197 10.8974 79.7093 11.0097L80.1584 11.0578L80.0942 12.2125C79.3565 12.1163 78.6027 12.0682 77.8489 12.0361C76.7743 12.0361 76.0366 12.2927 75.6517 12.806C75.2667 13.3192 75.0743 14.2654 75.0743 15.6607C75.0743 17.056 75.2507 18.0183 75.6196 18.5636C75.9885 19.1089 76.7422 19.3816 77.881 19.3816L80.1263 19.2051L80.1904 20.3759C79.3244 20.5203 78.4262 20.6165 77.5442 20.6486C76.0686 20.6486 75.0422 20.2637 74.4809 19.5099C73.9195 18.7561 73.6309 17.473 73.6309 15.6607C73.6309 13.8484 73.9356 12.5814 74.545 11.8597C75.1545 11.154 76.1649 10.7852 77.5923 10.7852Z" fill="white"/>
</svg>
