<svg width="33" height="33" viewBox="0 0 33 33" fill="none" xmlns="http://www.w3.org/2000/svg">
<path d="M31.9233 19.7722C31.8121 19.4388 31.3082 18.3717 29.5001 18.7422C28.7738 18.8904 28.2329 18.9497 27.8401 18.9571C29.3222 16.4523 30.5301 13.5919 31.2267 10.9093C31.8492 8.50828 32.3161 5.30694 31.0489 3.68404C29.1962 1.31267 26.484 0.0380661 23.216 0.00101361C21.4745 -0.0212179 19.9405 0.327076 19.1476 0.571623C18.4065 0.438234 17.6062 0.364128 16.7688 0.356718C15.1978 0.334486 13.812 0.67537 12.6263 1.37937C11.9668 1.15705 10.9145 0.845811 9.6992 0.645728C6.83133 0.171455 4.52666 0.53457 2.83707 1.72766C0.791769 3.17271 -0.156776 5.68487 0.0210761 9.18263C0.0803601 10.2942 0.695432 13.6808 1.68103 16.8896C2.24423 18.7348 2.84448 20.2687 3.46696 21.4396C4.34881 23.107 5.28995 24.0926 6.34965 24.4409C6.94249 24.6409 8.01701 24.7743 9.15082 23.8332C9.5584 24.3297 10.2179 24.6484 10.8552 24.804C12.2781 25.1597 13.6119 25.0708 14.7458 24.5743C14.7532 24.7743 14.7606 24.967 14.7606 25.1375C14.768 25.4042 14.7754 25.671 14.7828 25.923C14.8495 27.5977 14.9607 28.902 15.3015 29.8135C15.3238 29.8654 15.346 29.9395 15.3682 30.021C15.5387 30.5397 15.8203 31.3993 16.5391 32.0811C17.0134 32.5331 17.7989 33 18.9994 33C19.3477 33 19.733 32.9629 20.148 32.874C21.3782 32.6072 22.7787 32.2071 23.7866 30.7694C24.7425 29.4059 25.2094 27.3606 25.2909 24.1296C25.2983 24.0407 25.3131 23.9518 25.3205 23.8703C25.328 23.811 25.3354 23.7591 25.3428 23.6998L25.5651 23.722L25.6244 23.7295C26.8768 23.7887 28.4107 23.522 29.3519 23.0847C30.1003 22.729 32.4865 21.4693 31.9233 19.7722ZM28.9443 22.1881C28.1958 22.5364 27.0101 22.7513 25.9727 22.7513C25.4762 22.7513 25.0167 22.6994 24.6684 22.5882C24.498 24.137 24.1423 27.0271 23.9348 28.235C23.542 30.4952 22.5342 31.5253 20.2147 32.0218C19.8219 32.1033 19.4588 32.1478 19.1328 32.1478C16.9096 32.1478 16.2056 30.3841 15.9166 29.6653C15.5683 28.7834 15.4423 25.8933 15.4646 22.9662C14.6642 23.6924 13.6564 24.0703 12.5152 24.0703C12.0483 24.0703 11.5518 24.0036 11.0405 23.8777C10.8923 23.8406 9.61027 23.4923 9.62509 22.6772C9.63991 21.9213 10.7144 21.7064 11.122 21.6175C12.5448 21.3285 12.6338 21.2099 13.0784 20.6467C13.1673 20.5355 13.2711 20.4021 13.397 20.2465C13.397 20.2317 13.397 20.2169 13.3896 20.1946C12.7523 20.1798 12.1298 20.0094 11.5592 19.7056C11.1739 20.1131 10.1364 21.2395 9.01743 22.5808C8.34307 23.3886 7.69836 23.6257 7.17222 23.6257C6.95731 23.6257 6.76464 23.5887 6.5942 23.5294C5.14915 23.0477 3.7782 20.706 2.51842 16.5783C1.56246 13.4363 0.9548 10.1608 0.902926 9.09371C0.747306 5.92942 1.56246 3.68404 3.33357 2.43166C6.50527 0.186276 11.6259 1.91292 12.7449 2.32791C13.8491 1.57945 15.1756 1.20893 16.7169 1.23116C17.5543 1.24598 18.325 1.34973 19.0364 1.52758C19.3699 1.37937 21.104 0.853222 23.1567 0.875453C26.1431 0.905095 28.6034 2.06113 30.2856 4.20277C31.4194 5.64782 30.6709 9.17522 30.3004 10.6277C29.5223 13.6438 28.0773 16.8747 26.321 19.5425C26.5877 19.7352 27.3955 20.0613 29.6483 19.5944C30.4116 19.4388 30.8636 19.5722 31.0044 20.002C31.2934 20.8468 29.7817 21.8027 28.9443 22.1881Z" fill="white"/>
<path d="M24.1715 4.75105C25.6462 6.46288 26.365 8.35997 26.4243 8.98986C26.4317 9.0862 26.4243 9.16771 26.4094 9.23441C26.4317 9.89394 26.3502 10.4497 26.2686 10.9907C26.202 11.4279 26.1278 11.88 26.113 12.4135C26.0982 12.91 26.1575 13.4436 26.2316 14.0068C26.3057 14.607 26.3798 15.2443 26.365 15.9039C26.3428 16.7413 26.1649 17.6083 25.6388 18.4901C25.6536 18.5124 25.6684 18.5272 25.6832 18.5494C25.7203 18.5939 25.7573 18.6458 25.7944 18.6902C29.4552 12.9248 30.7224 6.24797 29.5737 4.78069C28.0768 2.86878 25.9574 1.86836 23.2896 1.80908C22.2373 1.78685 21.2888 1.92024 20.5996 2.06104C21.1109 2.28335 21.5778 2.55013 22.0076 2.83173C22.9117 3.42457 23.6305 4.11375 24.1715 4.75105Z" fill="white"/>
<path d="M15.3763 20.8767C15.28 20.6841 15.1244 20.521 14.9762 20.4617C14.7242 20.358 14.5908 20.2987 14.287 20.6396C14.0869 20.8693 13.9387 21.0546 13.8053 21.2176C13.2421 21.9364 12.9827 22.1736 11.308 22.5219C10.9597 22.596 10.767 22.6627 10.6484 22.7145C10.7818 22.8035 11.0116 22.9146 11.2635 22.9813C12.4937 23.2926 14.2129 23.3074 15.3912 21.6622C15.4208 21.6252 15.443 21.5807 15.4579 21.5363C15.5171 21.3658 15.4801 21.188 15.4504 21.0842C15.4356 21.0101 15.406 20.9434 15.3763 20.8767Z" fill="white"/>
<path d="M25.3561 10.857C25.4228 10.4272 25.4821 10.0122 25.4969 9.55272C24.4076 9.41933 23.1552 9.44897 22.6587 10.153C21.6953 11.5239 23.5776 14.8957 24.3779 16.3333C24.5854 16.7039 24.7336 16.9706 24.8003 17.1337C24.8744 17.3189 24.956 17.482 25.0449 17.6376C25.5933 16.4667 25.4525 15.2736 25.3117 14.1176C25.245 13.547 25.1709 12.9541 25.1931 12.3835C25.2079 11.8055 25.282 11.3238 25.3561 10.857ZM24.4372 10.5902C24.3483 10.6865 24.163 10.8422 23.9037 10.8792C23.874 10.8866 23.837 10.8866 23.8073 10.8866C23.422 10.8866 23.1033 10.5828 23.0737 10.4049C23.0441 10.1752 23.4146 9.99735 23.8073 9.94548C24.1927 9.8936 24.6003 9.9603 24.6373 10.19C24.6521 10.2864 24.5706 10.442 24.4372 10.5902Z" fill="white"/>
<path d="M10.824 17.8603C10.9203 17.9863 11.0166 18.1122 11.1278 18.2234C11.7725 18.8978 12.6173 19.2683 13.4843 19.2683C13.5807 18.8607 13.7437 18.4235 13.9215 17.964L13.9586 17.8603L13.9882 17.7788C14.0772 17.5416 14.1809 17.3119 14.2921 17.0674C14.8256 15.8891 15.4852 14.4218 14.7219 10.8944C14.5737 10.2126 14.218 9.81989 13.6399 9.6865C12.3653 9.39749 10.5794 10.3534 10.1941 10.6943C10.1941 10.7684 10.2015 10.8722 10.2089 10.9833C10.2533 11.7837 10.3423 13.2658 10.1051 14.9702C9.97175 16.0225 10.2237 17.0525 10.824 17.8603ZM12.5951 10.4794C12.6025 10.4276 12.6321 10.3534 12.7136 10.2868C12.8693 10.1682 13.1731 10.1237 13.5066 10.1756C13.9215 10.2349 14.3439 10.4276 14.2995 10.724C14.2698 10.9611 13.8993 11.2724 13.4917 11.2724C13.4547 11.2724 13.425 11.2723 13.388 11.2649C13.1434 11.2279 12.8989 11.0797 12.7285 10.8574C12.6692 10.7758 12.5728 10.6202 12.5951 10.4794Z" fill="white"/>
<path d="M24.9575 19.1275C24.876 19.0237 24.7796 18.9052 24.6833 18.7792C24.4388 18.4531 24.1646 18.0381 23.9423 17.4898C23.8978 17.3712 23.7422 17.097 23.5643 16.7858C22.601 15.0591 20.6001 11.4724 21.897 9.62721C22.4898 8.775 23.6607 8.43412 25.3873 8.61197C25.1576 7.93021 24.587 6.67042 23.5199 5.41804C22.8381 4.6103 21.8673 3.72104 20.5557 3.06891C19.5034 2.55018 18.2288 2.18706 16.7096 2.15742C14.983 2.12778 13.5676 2.66134 12.5004 3.72845C12.367 3.86184 12.2485 3.99523 12.1299 4.14344C10.7441 5.84785 10.3514 8.24145 10.2402 9.56793C10.3217 9.52346 10.4033 9.479 10.4922 9.43454C10.922 9.21963 11.7816 8.8417 12.7153 8.73795C14.279 8.57492 15.3164 9.27151 15.6203 10.7017C16.2576 13.6659 15.9463 15.3481 15.5165 16.5264C15.3905 16.8673 15.2571 17.1637 15.1312 17.4453C15.0274 17.675 14.9311 17.8899 14.857 18.0974L14.7903 18.2827C14.6273 18.7199 14.4716 19.1275 14.3901 19.4906C14.7977 19.3869 15.1386 19.5276 15.3238 19.6018C15.3313 19.6018 15.3313 19.6092 15.3387 19.6092C15.7981 19.8092 16.1835 20.2687 16.3391 20.8245C16.3687 20.9134 16.3835 21.0098 16.3984 21.0987C16.4132 21.1431 16.4206 21.195 16.4206 21.2469C16.4206 21.2839 16.4206 21.3284 16.4206 21.3655C16.3169 25.1522 16.4725 28.5611 16.7763 29.3243C17.2506 30.5174 17.9768 31.5623 20.0221 31.1251C21.9933 30.7027 22.6973 29.9913 23.0234 28.0868C23.1716 27.242 23.3939 25.5005 23.5717 24.0258C23.5717 24.0184 23.5717 24.0036 23.5791 23.9962C23.7051 22.9513 23.8015 22.0472 23.8311 21.6915C23.8163 21.4321 23.8311 21.2024 23.8533 20.9949C23.9349 20.4169 24.1646 20.0686 24.4239 19.8389C24.6833 19.6166 24.9797 19.5128 25.202 19.4535C25.1354 19.3498 25.0464 19.2386 24.9575 19.1275Z" fill="white"/>
<path d="M25.8539 20.3502C25.8094 20.3206 25.765 20.291 25.7279 20.2539C25.6612 20.2761 25.6019 20.291 25.5353 20.3132C25.2759 20.3873 25.0313 20.454 24.8831 20.7356C24.8683 20.7652 24.8535 20.7949 24.8461 20.8245C24.7794 21.0098 24.7423 21.2617 24.7572 21.6249C24.8683 21.7138 25.35 21.862 26.2837 21.8249C27.1359 21.7879 28.0252 21.6026 28.5587 21.3507C29.1812 21.0617 29.6184 20.743 29.8704 20.4985C29.863 20.4985 29.8556 20.4985 29.8482 20.5059C27.9511 20.8986 26.6098 20.8467 25.8539 20.3502Z" fill="white"/>
<path d="M10.4697 18.8685C10.3733 18.7648 10.277 18.6536 10.1881 18.5425C9.37293 17.5198 9.00981 16.1933 9.20248 14.8446C9.4248 13.2291 9.34328 11.8063 9.29882 11.043C9.284 10.8355 9.27659 10.6799 9.27659 10.5762C9.26918 10.3242 9.21731 6.52262 11.2107 3.83261C11.4034 3.57324 11.6183 3.32128 11.848 3.08415C11.8703 3.06192 11.8925 3.03968 11.9147 3.01745C10.3067 2.49131 6.31239 1.46125 3.87433 3.18789C2.37741 4.2476 1.69564 6.21879 1.83644 9.04961C1.8809 9.94628 2.4441 13.1328 3.41488 16.3119C4.53386 19.9801 5.80106 22.2922 6.89782 22.6553C7.06826 22.7146 7.57958 22.885 8.31322 21.9958C9.35811 20.736 10.3437 19.6689 10.7883 19.1872C10.6846 19.0834 10.5734 18.9797 10.4697 18.8685Z" fill="white"/>
</svg>
