<svg width="34" height="34" viewBox="0 0 34 34" fill="none" xmlns="http://www.w3.org/2000/svg">
<path d="M33.0038 17.4981C33.0038 8.40012 25.5999 0.996235 16.5019 0.996235C16.2509 0.996235 15.9999 0.996235 15.7489 0.996235L12.3607 10.2825H15.3097C17.0666 10.2825 18.0078 11.6001 17.3803 13.2942L13.2392 24.7138H9.72544L14.2431 12.4785H11.6078L7.15291 24.7138H3.6392L8.90976 10.2825L12.047 1.62368C5.08233 3.56877 0 9.96874 0 17.4981C0 25.2785 5.39605 31.8039 12.6744 33.5608L15.7489 25.153L21.145 10.2825H27.6077C29.3646 10.2825 30.3057 11.6001 29.6783 13.2942L26.0391 23.3334C25.7881 24.0863 24.8469 24.7138 24.0313 24.7138H19.3881L15.9999 34C16.1882 34 16.3136 34 16.5019 34C25.6626 34 33.0038 26.6589 33.0038 17.4981Z" fill="white"/>
<path d="M26.4874 12.4518H23.8521L20.2129 22.5537H22.8482L26.4874 12.4518Z" fill="white"/>
</svg>
