<svg width="28" height="39" viewBox="0 0 28 39" fill="none" xmlns="http://www.w3.org/2000/svg">
<path d="M2.55859 0H4.29991V1.72617H5.90495V0H7.64626V5.22394H5.90495V3.48263H4.31505V5.22394H2.55859M9.94782 1.74131H8.41092V0H13.2336V1.74131H11.6891V5.22394H9.94782M13.9983 0H15.8229L16.9434 1.83974L18.0639 0H19.8885V5.22394H18.1471V2.63468L16.9282 4.51227L15.7093 2.63468V5.22394H13.9983M20.7515 0H22.4929V3.49777H24.961V5.22394H20.7515" fill="white"/>
<path d="M0 6.89648L2.49841 34.9392L13.711 38.0433L24.9689 34.9241L27.4673 6.89648H0ZM22.0163 16.0649H13.7337H13.7185H8.87313L9.19111 19.5854H13.7185H13.7337H21.7059L20.7595 30.1392L13.7337 32.085V32.1077L6.67756 30.1392L6.19302 24.7412H9.64537L9.88764 27.4894L13.7261 28.5191L17.557 27.4894L17.9582 23.0226H13.7185V23.015H6.0416L5.10281 12.6277H13.7185H13.7337H22.3342L22.0163 16.0649Z" fill="white"/>
</svg>
