<svg width="33" height="33" viewBox="0 0 33 33" fill="none" xmlns="http://www.w3.org/2000/svg">
<path d="M9.99689 27.5157V30.6125C9.99689 31.4834 9.54527 31.9673 8.77107 31.9673C7.96462 31.9673 7.54526 31.4834 7.54526 30.5802V27.5157H6.41623V30.6125C6.41623 32.1286 7.25494 32.9996 8.73882 32.9996C10.2227 32.9996 11.0937 32.0964 11.0937 30.548V27.4834L9.99689 27.5157ZM14.0292 27.5157L11.6421 32.9351H12.7711L13.2227 31.9028L13.255 31.8383H15.7388L16.2227 32.9673H17.384L15.0292 27.5802L14.9969 27.5479L14.0292 27.5157ZM20.5453 27.5157L19.3195 31.2254L18.1259 27.5157H16.9647L18.8356 32.9351H19.7389L20.9647 29.3867L22.1905 32.9351H23.0937L24.9647 27.5157H23.8356L22.6421 31.2254L21.4163 27.5157H20.5453ZM31.2873 27.5157V32.9028H32.3841V27.5157H31.2873ZM0.222656 27.5157V32.9351H1.31944V30.7415H3.80332V32.9351H4.90009V27.5157H3.80332V29.7092H1.31944V27.5157H0.222656ZM25.9002 27.5157V32.9028H29.9647V31.9028H26.9647V30.548H28.9647V29.548H26.9647V28.4512H29.8679V27.4512L25.9002 27.5157ZM14.4808 28.8705L15.255 30.677L15.3195 30.806H13.6743L13.7388 30.677L14.4808 28.8705Z" fill="white"/>
<path d="M13.9009 0C13.4815 0.0322582 12.288 0.290324 12.288 0.290324C9.6428 1 8.99763 3.38711 8.99763 3.38711C8.8686 3.80646 8.80409 4.19357 8.80409 4.58066V5.09679C8.83634 5.90325 9.02989 6.51615 9.02989 6.51615C9.90086 10.4517 14.2557 16.9033 15.1912 18.2581C15.2557 18.3226 15.3202 18.2904 15.3202 18.2904C15.417 18.2581 15.417 18.1614 15.417 18.1614C16.8364 3.80646 13.9009 0 13.9009 0ZM18.6751 0C18.6751 0 15.7073 3.80646 17.159 18.2259C17.159 18.3226 17.2235 18.3226 17.2235 18.3226C17.3202 18.3549 17.3848 18.2581 17.3848 18.2581C18.3525 16.871 22.6751 10.4516 23.5461 6.54841C23.5461 6.54841 24.0299 4.64518 23.5783 3.38711C23.5783 3.38711 22.9332 0.935488 20.2557 0.290324C20.2235 0.322582 19.4815 0.129033 18.6751 0ZM4.96536 4.3226C4.96536 4.3226 2.44922 6.7097 2.32019 9.2581V9.6452C2.32019 9.67745 2.32019 9.70971 2.32019 9.74197C2.41696 11.8065 3.96536 13 3.96536 13C6.44924 15.4194 12.4493 18.4839 13.8686 19.1614C13.9009 19.1614 13.9654 19.1936 13.9977 19.1291L14.0299 19.0968V19.0323C10.2234 10.6775 4.96536 4.3226 4.96536 4.3226ZM27.5783 4.3226C27.5783 4.3226 22.3525 10.6452 18.5461 19.0001C18.5461 19.0001 18.5138 19.0968 18.5783 19.1614C18.5783 19.1614 18.6106 19.1936 18.6428 19.1936H18.6751H18.7073C20.159 18.4839 26.1267 15.4517 28.5784 13.0323C28.5784 13.0323 30.159 11.7742 30.2235 9.74197C30.3848 6.93551 27.5783 4.3226 27.5783 4.3226ZM32.288 12.6452C32.288 12.6452 23.7719 17.2259 19.3848 20.1936C19.3848 20.1936 19.3203 20.2581 19.3203 20.3549C19.3203 20.3549 19.3525 20.4194 19.417 20.4194C20.9977 20.4194 26.9654 20.4194 27.0945 20.3872C27.0945 20.3872 27.8687 20.3549 28.8042 20.0001C28.8042 20.0001 30.9332 19.3227 32.03 16.9033C32.03 16.9033 32.5461 15.9033 32.5461 14.4839V14.4194C32.5461 13.871 32.4816 13.2581 32.288 12.6452ZM0.287924 12.6452C-0.486272 15.0323 0.54599 16.9678 0.54599 16.9678C1.64277 19.2581 3.70729 19.9678 3.70729 19.9678C4.67504 20.3549 5.61052 20.3872 5.61052 20.3872C5.77182 20.4194 11.5783 20.3872 13.1267 20.3872C13.1912 20.3872 13.2235 20.3227 13.2235 20.3227C13.2235 20.3227 13.2235 20.3227 13.2235 20.2904V20.2259C13.2235 20.1936 13.1912 20.1614 13.1912 20.1614C8.80408 17.1936 0.287924 12.6452 0.287924 12.6452ZM12.9654 21.1291L2.96535 21.4839C4.06213 23.4194 5.86859 24.9356 7.77182 24.4517C9.09441 24.1291 12.0622 22.0323 13.0622 21.3549C13.1267 21.2904 13.1267 21.2259 13.1267 21.2259C13.0622 21.1291 12.9654 21.1291 12.9654 21.1291ZM19.5783 21.1291C19.5783 21.1291 19.4815 21.1291 19.4493 21.1936C19.4493 21.1936 19.417 21.2904 19.4815 21.3227C20.4493 22.0001 23.3525 24.0323 24.7396 24.4517C24.7396 24.4517 24.9654 24.5162 25.3203 24.5485H25.5461C26.4816 24.5162 28.1267 24.0323 29.6106 21.4839L19.5783 21.1291Z" fill="white"/>
</svg>
