<svg width="27" height="50" viewBox="0 0 27 50" fill="none" xmlns="http://www.w3.org/2000/svg">
<path d="M25.0391 39.4249H24.8594V39.3232H25.3537V39.4249H25.1739V39.9518H25.0481V39.4249H25.0391ZM26.0188 39.4527L25.8301 39.9518H25.7492L25.5694 39.4527V39.9518H25.4526V39.3232H25.6323L25.8031 39.7669L25.9739 39.3232H26.1536V39.9518H26.0368L26.0188 39.4527Z" fill="white"/>
<path d="M8.64588 26.5205C8.64588 26.5205 7.36962 27.2785 9.55365 27.5373C12.196 27.8516 13.5442 27.8054 16.4562 27.2323C16.4562 27.2323 17.2202 27.7222 18.2897 28.1567C11.7646 31.0408 3.51388 27.9995 8.64588 26.5205Z" fill="white"/>
<path d="M7.84621 22.7676C7.84621 22.7676 6.41716 23.8584 8.60118 24.0894C11.4233 24.3853 13.6523 24.413 17.508 23.6457C17.508 23.6457 18.0383 24.2004 18.8832 24.5054C10.9829 26.8811 2.19292 24.6995 7.84621 22.7676Z" fill="white"/>
<path d="M14.5687 16.3986C16.1775 18.3028 14.1462 20.0129 14.1462 20.0129C14.1462 20.0129 18.2267 17.8406 16.3572 15.1322C14.6046 12.5994 13.2654 11.3422 20.5365 7.00684C20.5275 7.00684 9.11311 9.93714 14.5687 16.3986Z" fill="white"/>
<path d="M23.2049 29.303C23.2049 29.303 24.1486 30.0979 22.1624 30.7173C18.3965 31.8913 6.47874 32.2425 3.17125 30.7635C1.98487 30.2274 4.21383 29.4879 4.91487 29.3399C5.64288 29.1736 6.06531 29.2105 6.06531 29.2105C4.74411 28.2492 -2.49103 31.0963 2.38932 31.9097C15.7002 34.119 26.6562 30.9022 23.2049 29.303Z" fill="white"/>
<path d="M9.25613 18.8762C9.25613 18.8762 3.19839 20.3553 7.10806 20.8914C8.76181 21.1225 12.0513 21.067 15.1251 20.799C17.6327 20.5771 20.1493 20.1149 20.1493 20.1149C20.1493 20.1149 19.2685 20.5032 18.6214 20.9561C12.4648 22.62 0.573971 21.8435 3.9983 20.1426C6.90134 18.7191 9.25613 18.8762 9.25613 18.8762Z" fill="white"/>
<path d="M20.1239 25.1251C26.3793 21.7788 23.4853 18.5712 21.472 19.0056C20.9777 19.1073 20.753 19.1998 20.753 19.1998C20.753 19.1998 20.9328 18.904 21.2833 18.7745C25.2739 17.3325 28.3477 23.036 19.998 25.2915C19.998 25.3007 20.0969 25.2083 20.1239 25.1251Z" fill="white"/>
<path d="M16.3577 0C16.3577 0 19.827 3.56813 13.0682 9.04973C7.65756 13.4498 11.8369 15.9549 13.0682 18.8205C9.9045 15.8902 7.58566 13.3111 9.14054 10.9077C11.4234 7.37659 17.7508 5.66648 16.3577 0Z" fill="white"/>
<path d="M9.86896 34.1839C15.8728 34.5814 25.0942 33.9621 25.3099 31.041C25.3099 31.041 24.8875 32.1503 20.3487 33.0284C15.2257 34.0175 8.89828 33.9066 5.15039 33.2688C5.15938 33.278 5.92334 33.9251 9.86896 34.1839Z" fill="white"/>
<path d="M8.88799 45.3507C8.32176 45.8591 7.71958 46.1364 7.18931 46.1364C6.42535 46.1364 6.01191 45.665 6.01191 44.907C6.01191 44.0843 6.45231 43.4834 8.23188 43.4834H8.88799V45.3507ZM10.4519 47.1717V41.5607C10.4519 40.1279 9.66094 39.1758 7.73756 39.1758C6.61409 39.1758 5.63443 39.4623 4.8435 39.8229L5.07719 40.8212C5.70633 40.5808 6.51523 40.3682 7.31513 40.3682C8.42063 40.3682 8.89698 40.8212 8.89698 41.7733V42.4851H8.34873C5.66139 42.4851 4.45703 43.5574 4.45703 45.1658C4.45703 46.5524 5.25694 47.3473 6.75789 47.3473C7.71958 47.3473 8.44759 46.9406 9.12167 46.3398L9.2475 47.1902L10.4519 47.1717Z" fill="white"/>
<path d="M15.6653 47.1717H13.7149L11.3691 39.3145H13.0678L14.5238 44.1397L14.8474 45.591C15.5844 43.4927 16.1057 41.3666 16.3663 39.3145H18.0201C17.5797 41.9027 16.7798 44.7406 15.6653 47.1717Z" fill="white"/>
<path d="M23.1438 45.3507C22.5776 45.8591 21.9754 46.1364 21.4362 46.1364C20.6722 46.1364 20.2588 45.665 20.2588 44.907C20.2588 44.0843 20.6992 43.4834 22.4788 43.4834H23.1349V45.3507M24.7077 47.1717V41.5607C24.7077 40.1279 23.9078 39.1758 21.9934 39.1758C20.8699 39.1758 19.8903 39.4623 19.0994 39.8229L19.333 40.8212C19.9622 40.5808 20.7711 40.3682 21.571 40.3682C22.6765 40.3682 23.1528 40.8212 23.1528 41.7733V42.4851H22.6046C19.9172 42.4851 18.7129 43.5574 18.7129 45.1658C18.7129 46.5524 19.5128 47.3473 21.0138 47.3473C21.9844 47.3473 22.7035 46.9406 23.3775 46.3398L23.5034 47.1902L24.7077 47.1717Z" fill="white"/>
<path d="M2.72329 48.5025C2.2739 49.1681 1.55488 49.7042 0.772946 50L0 49.0664C0.602179 48.7521 1.11448 48.2344 1.35715 47.763C1.56387 47.3378 1.65375 46.7924 1.65375 45.489V36.5225H3.31648V45.3688C3.30749 47.1067 3.17267 47.8184 2.72329 48.5025Z" fill="white"/>
</svg>
