<svg width="33" height="33" viewBox="0 0 33 33" fill="none" xmlns="http://www.w3.org/2000/svg">
<path d="M0 0V33H33V0H0ZM17.9719 25.74C17.9719 28.951 16.0914 30.4124 13.3414 30.4124C10.8586 30.4124 9.41809 29.129 8.69 27.5786L11.2148 26.049C11.7019 26.9133 12.1471 27.6467 13.2105 27.6467C14.2319 27.6467 14.871 27.2486 14.871 25.6981V15.1538H17.9719V25.74ZM25.3 30.4176C22.419 30.4176 20.5595 29.0452 19.6481 27.2486L22.1676 25.7819C22.8329 26.8662 23.6971 27.6676 25.2267 27.6676C26.51 27.6676 27.3324 27.0233 27.3324 26.1381C27.3324 25.0748 26.489 24.6976 25.0748 24.0795L24.2995 23.7443C22.0629 22.791 20.5752 21.5967 20.5752 19.0719C20.5752 16.7462 22.3457 14.9757 25.1167 14.9757C27.0862 14.9757 28.5057 15.6619 29.5271 17.4586L27.1124 19.009C26.5833 18.0557 26.0071 17.6786 25.1167 17.6786C24.2105 17.6786 23.6343 18.2548 23.6343 19.009C23.6343 19.9414 24.2105 20.3186 25.541 20.8948L26.3162 21.2248C28.951 22.3562 30.4386 23.5086 30.4386 26.0962C30.4386 28.8881 28.2438 30.4176 25.3 30.4176Z" fill="white"/>
</svg>
