<svg width="87" height="16" viewBox="0 0 87 16" fill="none" xmlns="http://www.w3.org/2000/svg">
<path d="M39.2144 8.05405C39.2144 11.2432 37.1977 12.7568 34.6768 12.7568H33.1082V10.8108H34.5087C36.0212 10.8108 37.0296 10 37.0296 8.05405C37.0296 6.10811 36.0773 5.08108 34.4527 5.08108C32.8841 5.08108 31.7637 6 31.7637 8V16H29.6349V3.45946H31.7077V4.54054H31.9878C32.66 3.62162 33.7244 3.24324 34.7888 3.24324C37.2537 3.18919 39.2144 4.81081 39.2144 8.05405ZM25.4334 7.24324L24.0328 7.13513C22.9124 7.02703 22.3522 6.75676 22.3522 6.10811C22.3522 5.35135 23.0805 4.97297 24.1449 4.97297C25.2653 4.97297 25.9375 5.45946 25.9936 6.16216H28.0103C27.9543 4.32432 26.4977 3.24324 24.1449 3.24324C21.792 3.24324 20.2234 4.43243 20.2234 6.21622C20.2234 7.67568 21.1758 8.64865 23.3606 8.86486L24.7611 8.97297C25.6014 9.02703 26.2176 9.24324 26.2176 10C26.2176 10.7027 25.6574 11.2432 24.2569 11.2432C22.9684 11.2432 22.2962 10.6486 22.0721 9.89189H19.8873C20.1114 11.6216 21.624 13.027 24.2569 13.027C26.7218 13.027 28.2904 11.7838 28.2904 9.89189C28.3464 8.21622 27.226 7.40541 25.4334 7.24324ZM47.3374 9.83784C47.0013 10.5946 46.217 11.1351 45.0966 11.1351C43.584 11.1351 42.4076 10.1622 42.4076 8.10811C42.4076 6.10811 43.472 5.02703 45.0966 5.02703C46.5531 5.02703 47.3934 5.89189 47.4495 7.13513H43.6961V8.59459H49.5222V7.62162C49.5222 4.91892 47.6735 3.18919 45.0406 3.18919C42.5757 3.18919 40.2788 4.81081 40.2788 8.05405C40.2788 11.3514 42.6317 12.9189 45.0406 12.9189C47.2814 12.9189 48.85 11.5676 49.3542 9.78378C49.4102 9.83784 47.3374 9.83784 47.3374 9.83784ZM14.2292 3.18919C11.9324 3.18919 10.1958 4.32432 10.0277 6.10811H12.2685C12.4366 5.45946 13.0528 4.97297 14.2292 4.97297C15.7418 4.97297 16.246 5.72973 16.246 6.7027V9.89189C15.4057 10.8649 14.3973 11.2973 13.3889 11.2973C12.3245 11.2973 11.6523 10.8108 11.6523 9.94595C11.6523 9.13513 12.2125 8.59459 13.2769 8.59459H14.9575V7.13513H13.2209C10.812 7.13513 9.46748 8.27027 9.46748 10.0541C9.46748 11.7297 10.756 12.973 12.8847 12.973C14.0612 12.973 15.1256 12.4865 15.9099 11.9459H16.246V12.7568H18.3187V6.54054C18.3748 4.21622 16.7502 3.18919 14.2292 3.18919ZM0 12.7568H2.07276V0H0V12.7568ZM8.79523 3.45946H6.21829L3.13715 7.35135V8.54054L6.27431 12.7568H8.9633L5.26594 7.94595L8.79523 3.45946ZM84.7032 3.45946L82.9665 7.13513C82.5184 8 82.1262 8.91892 82.0142 9.45946H81.7901C81.678 8.86486 81.2299 8.05405 80.8377 7.13513L79.1011 3.40541H76.7482L80.7817 11.7838L78.765 16H81.0058L87 3.45946H84.7032ZM76.3001 3.45946H73.7231L70.642 7.35135V8.54054L73.7791 12.7568H76.3561L72.6587 7.94595C72.7708 7.89189 76.3001 3.45946 76.3001 3.45946ZM63.1352 7.24324L61.7347 7.13513C60.6143 7.02703 60.0541 6.75676 60.0541 6.10811C60.0541 5.35135 60.7824 4.97297 61.8467 4.97297C62.9672 4.97297 63.6394 5.45946 63.6954 6.16216H65.7122C65.6562 4.32432 64.1996 3.24324 61.8467 3.24324C59.4939 3.24324 57.9253 4.43243 57.9253 6.21622C57.9253 7.67568 58.8777 8.64865 61.0625 8.86486L62.463 8.97297C63.3033 9.02703 63.9195 9.24324 63.9195 10C63.9195 10.7027 63.3593 11.2432 61.9588 11.2432C60.6703 11.2432 59.9981 10.6486 59.774 9.89189H57.5892C57.8133 11.6216 59.3258 13.027 61.9588 13.027C64.4237 13.027 65.9923 11.7838 65.9923 9.89189C66.1043 8.21622 64.9839 7.40541 63.1352 7.24324ZM67.5048 12.7568H69.5776V0H67.5048V12.7568ZM53.6677 4.54054H53.3876V3.45946H51.2589V12.7568H53.3316V7.89189C53.3316 6.21622 54.1159 5.24324 55.6845 5.24324H57.029V3.18919H56.2447C54.7882 3.18919 54.1719 3.72973 53.6677 4.54054Z" fill="white"/>
</svg>
