<svg width="94" height="20" viewBox="0 0 94 20" fill="none" xmlns="http://www.w3.org/2000/svg">
<path d="M39.0928 4.00022V16.0002H37.0045V6.58355H36.9767L33.2457 16.0002H31.8535L28.0389 6.58355H28.0111V16.0002H26.0898V4.00022H29.097L32.5496 12.8891H32.6052L36.2528 4.00022H39.0928ZM40.8191 4.91688C40.8191 4.58355 40.9305 4.30577 41.1811 4.08355C41.4317 3.86133 41.7101 3.75022 42.0442 3.75022C42.4062 3.75022 42.7125 3.86133 42.9352 4.08355C43.158 4.30577 43.2972 4.58355 43.2972 4.91688C43.2972 5.25022 43.1858 5.528 42.9352 5.75022C42.6846 5.97244 42.4062 6.08355 42.0442 6.08355C41.6823 6.08355 41.4038 5.97244 41.1811 5.75022C40.9583 5.50022 40.8191 5.22244 40.8191 4.91688ZM43.0744 7.38911V16.0002H41.0419V7.38911H43.0744ZM49.2279 14.528C49.5342 14.528 49.8683 14.4724 50.2302 14.3058C50.5922 14.1669 50.9263 13.9724 51.2326 13.7502V15.6391C50.8985 15.8336 50.5365 15.9724 50.1189 16.0558C49.7012 16.1391 49.2557 16.1947 48.7545 16.1947C47.4737 16.1947 46.4435 15.8058 45.6639 15.0002C44.8564 14.1947 44.4666 13.1669 44.4666 11.9447C44.4666 10.5558 44.8843 9.41688 45.6917 8.528C46.4992 7.63911 47.6408 7.19466 49.1443 7.19466C49.5342 7.19466 49.924 7.25022 50.2859 7.33355C50.6757 7.41688 50.982 7.55577 51.2048 7.66688V9.61133C50.8985 9.38911 50.5644 9.19466 50.2581 9.08355C49.924 8.97244 49.5898 8.88911 49.2557 8.88911C48.4483 8.88911 47.8079 9.13911 47.3067 9.66688C46.8055 10.1947 46.5827 10.8891 46.5827 11.778C46.5827 12.6391 46.8333 13.3336 47.3067 13.8058C47.78 14.278 48.4204 14.528 49.2279 14.528ZM56.9962 7.25022C57.1633 7.25022 57.3025 7.25022 57.4417 7.278C57.581 7.30577 57.6923 7.33355 57.7759 7.36133V9.41688C57.6645 9.33355 57.5253 9.25022 57.3025 9.19466C57.0798 9.13911 56.857 9.08355 56.5507 9.08355C56.0496 9.08355 55.6319 9.30577 55.2978 9.72244C54.9637 10.1391 54.7688 10.778 54.7688 11.6669V16.0002H52.7362V7.38911H54.7688V8.75022H54.7966C54.9915 8.27799 55.2699 7.91688 55.6319 7.63911C56.0217 7.38911 56.4672 7.25022 56.9962 7.25022ZM57.8872 11.8336C57.8872 10.4169 58.3049 9.278 59.0845 8.44466C59.892 7.61133 61.0057 7.19466 62.4257 7.19466C63.7622 7.19466 64.8203 7.58355 65.5721 8.38911C66.3238 9.19466 66.7137 10.278 66.7137 11.6391C66.7137 13.028 66.296 14.1391 65.5164 14.9724C64.7089 15.8058 63.623 16.2224 62.2308 16.2224C60.8943 16.2224 59.8363 15.8336 59.0567 15.0558C58.2771 14.2502 57.8872 13.1669 57.8872 11.8336ZM60.0033 11.7502C60.0033 12.6391 60.1983 13.3336 60.6159 13.8058C61.0336 14.278 61.6183 14.528 62.3701 14.528C63.094 14.528 63.6787 14.3058 64.0685 13.8058C64.4583 13.3336 64.6532 12.6391 64.6532 11.6947C64.6532 10.778 64.4583 10.0836 64.0685 9.58355C63.6787 9.11133 63.094 8.86133 62.3979 8.86133C61.6461 8.86133 61.0892 9.11133 60.6716 9.61133C60.1983 10.1391 60.0033 10.8336 60.0033 11.7502ZM69.7486 9.66688C69.7486 9.94466 69.8321 10.1947 70.027 10.3613C70.222 10.528 70.6118 10.7224 71.2522 10.9724C72.0596 11.3058 72.6443 11.6669 72.9506 12.0558C73.2847 12.4724 73.4518 12.9447 73.4518 13.528C73.4518 14.3336 73.1455 14.9724 72.5051 15.4724C71.8926 15.9724 71.0294 16.1947 69.9714 16.1947C69.6094 16.1947 69.2196 16.1391 68.7741 16.0558C68.3286 15.9724 67.9666 15.8613 67.6603 15.7224V13.7224C68.0223 13.9724 68.44 14.1947 68.8576 14.3336C69.2753 14.4724 69.6651 14.5558 70.027 14.5558C70.4725 14.5558 70.8345 14.5002 71.0294 14.3613C71.2522 14.2224 71.3635 14.028 71.3635 13.7224C71.3635 13.4447 71.2522 13.2224 71.0294 13.0002C70.8067 12.8058 70.3612 12.5836 69.7486 12.3336C68.9968 12.028 68.4678 11.6669 68.1615 11.278C67.8552 10.8891 67.6882 10.3891 67.6882 9.778C67.6882 9.00022 67.9945 8.36133 68.607 7.86133C69.2196 7.36133 70.027 7.11133 71.0016 7.11133C71.3079 7.11133 71.642 7.13911 72.0039 7.22244C72.3659 7.30577 72.7 7.38911 72.9506 7.47244V9.44466C72.6722 9.27799 72.3659 9.11133 72.0039 8.97244C71.642 8.83355 71.28 8.778 70.9459 8.778C70.5561 8.778 70.2498 8.86133 70.0549 9.00022C69.86 9.19466 69.7486 9.38911 69.7486 9.66688ZM74.315 11.8336C74.315 10.4169 74.7326 9.278 75.5122 8.44466C76.3197 7.61133 77.4334 7.19466 78.8535 7.19466C80.19 7.19466 81.248 7.58355 81.9998 8.38911C82.7516 9.19466 83.1414 10.278 83.1414 11.6391C83.1414 13.028 82.7237 14.1391 81.9441 14.9724C81.1366 15.8058 80.0507 16.2224 78.6586 16.2224C77.3221 16.2224 76.264 15.8336 75.4844 15.0558C74.7326 14.2502 74.315 13.1669 74.315 11.8336ZM76.4311 11.7502C76.4311 12.6391 76.626 13.3336 77.0436 13.8058C77.4613 14.278 78.046 14.528 78.7978 14.528C79.5217 14.528 80.1064 14.3058 80.4962 13.8058C80.8861 13.3336 81.081 12.6391 81.081 11.6947C81.081 10.778 80.8861 10.0836 80.4962 9.58355C80.1064 9.11133 79.5217 8.86133 78.8256 8.86133C78.0738 8.86133 77.517 9.11133 77.0993 9.61133C76.6538 10.1391 76.4311 10.8336 76.4311 11.7502ZM89.9074 9.05577H86.8724V16.0002H84.812V9.05577H83.3641V7.38911H84.812V6.19466C84.812 5.30577 85.1183 4.55577 85.703 3.97244C86.2877 3.38911 87.0395 3.11133 87.9583 3.11133C88.2089 3.11133 88.4317 3.13911 88.6266 3.13911C88.8215 3.13911 88.9885 3.19466 89.1278 3.25022V5.00022C89.0721 4.97244 88.9328 4.91688 88.7658 4.86133C88.5987 4.80577 88.4038 4.778 88.1811 4.778C87.7634 4.778 87.4293 4.91688 87.2066 5.16688C86.9838 5.41688 86.8724 5.83355 86.8724 6.33355V7.36133H89.9074V5.41688L91.94 4.80577V7.36133H94.0004V9.02799H91.94V13.0558C91.94 13.5836 92.0513 13.9447 92.2184 14.1669C92.4133 14.3891 92.7196 14.5002 93.1372 14.5002C93.2486 14.5002 93.3878 14.4724 93.5549 14.4169C93.7219 14.3613 93.8612 14.3058 93.9725 14.2224V15.8891C93.8333 15.9724 93.6384 16.028 93.3321 16.0836C93.0259 16.1391 92.7474 16.1669 92.4411 16.1669C91.578 16.1669 90.9376 15.9447 90.5199 15.5002C90.1023 15.0558 89.8795 14.3613 89.8795 13.4447L89.9074 9.05577Z" fill="white"/>
<path d="M9.52251 0H0V9.5H9.52251V0Z" fill="white"/>
<path d="M20.0459 0H10.5234V9.5H20.0459V0Z" fill="white"/>
<path d="M9.52251 10.5H0V20H9.52251V10.5Z" fill="white"/>
<path d="M20.0459 10.5H10.5234V20H20.0459V10.5Z" fill="white"/>
</svg>
