<svg width="51" height="25" viewBox="0 0 51 25" fill="none" xmlns="http://www.w3.org/2000/svg">
<path d="M3.9666 5.24902H11.3779C13.5699 5.24902 15.1357 5.87272 16.1273 7.12013C17.119 8.36753 17.4321 10.0307 17.119 12.1617C17.0146 13.1492 16.7015 14.0848 16.2839 15.0203C15.8664 15.9559 15.2923 16.7875 14.5094 17.5671C13.5699 18.5027 12.5783 19.1264 11.5344 19.3862C10.4906 19.6461 9.39457 19.7501 8.24635 19.7501H4.90605L3.86221 24.9995H0L3.9666 5.24902ZM7.20251 8.4195L5.53236 16.6835C5.63674 16.6835 5.74113 16.7355 5.84551 16.7355C5.9499 16.7355 6.10647 16.7355 6.21086 16.7355C7.98539 16.7355 9.44676 16.5796 10.6472 16.2158C11.8476 15.8519 12.6305 14.5006 13.048 12.2137C13.3612 10.2906 13.048 9.19913 12.0564 8.88728C11.0647 8.57543 9.8643 8.47148 8.40292 8.47148C8.19415 8.47148 7.98539 8.52345 7.77662 8.52345C7.56785 8.4195 7.35908 8.4195 7.20251 8.4195Z" fill="white"/>
<path d="M21.451 0H25.261L24.165 5.24948H27.6096C29.4886 5.30146 30.8977 5.66528 31.8372 6.39293C32.7766 7.12058 33.0376 8.52391 32.6723 10.6029L30.7934 19.8025H26.9311L28.7057 11.0187C28.9144 10.0832 28.8101 9.45946 28.5491 9.04366C28.2359 8.67983 27.6096 8.47193 26.618 8.47193L23.5387 8.41996L21.2944 19.7505H17.4844L21.451 0Z" fill="white"/>
<path d="M36.7439 5.24902H44.1552C46.3473 5.24902 47.913 5.87272 48.9047 7.12013C49.8963 8.36753 50.2095 10.0307 49.8963 12.1617C49.792 13.1492 49.4788 14.0848 49.0613 15.0203C48.6437 15.9559 48.0696 16.7875 47.2867 17.5671C46.3473 18.5027 45.3556 19.1264 44.3118 19.3862C43.268 19.6461 42.1719 19.7501 41.0237 19.7501H37.6834L36.6396 24.9995H32.7773L36.7439 5.24902ZM39.9798 8.4195L38.3097 16.6835C38.4141 16.6835 38.5185 16.7355 38.6229 16.7355C38.7272 16.7355 38.8838 16.7355 38.9882 16.7355C40.7627 16.7355 42.2241 16.5796 43.4245 16.2158C44.6249 15.8519 45.4078 14.5006 45.8254 12.2137C46.1385 10.2906 45.8254 9.19913 44.8337 8.88728C43.8421 8.57543 42.6416 8.47148 41.1803 8.47148C40.9715 8.47148 40.7627 8.52345 40.554 8.52345C40.3452 8.4195 40.1364 8.4195 39.9798 8.4195Z" fill="white"/>
</svg>
