<svg width="86" height="28" viewBox="0 0 86 28" fill="none" xmlns="http://www.w3.org/2000/svg">
<path d="M1.60614 22.1671C0.722762 22.1671 0 21.4443 0 20.5609V15.9835C0 15.1001 0.722762 14.3773 1.60614 14.3773C2.48951 14.3773 3.21227 15.1001 3.21227 15.9835V20.5609C3.21227 21.4443 2.48951 22.1671 1.60614 22.1671ZM6.82608 23.9338C5.94271 23.9338 5.21995 23.2111 5.21995 22.3277V14.297C5.21995 13.4136 5.94271 12.6909 6.82608 12.6909C7.70946 12.6909 8.43222 13.4136 8.43222 14.297V22.408C8.43222 23.2111 7.70946 23.9338 6.82608 23.9338ZM12.046 25.7006C11.1627 25.7006 10.4399 24.9778 10.4399 24.0944V12.5303C10.4399 11.6469 11.1627 10.9241 12.046 10.9241C12.9294 10.9241 13.6522 11.6469 13.6522 12.5303V24.0141C13.6522 24.9778 12.9294 25.7006 12.046 25.7006ZM25.6982 6.90877L3.13197 0.0826899C2.00767 -0.238538 0.963682 0.403917 0.963682 1.52821V12.8515C1.2046 12.7712 1.36522 12.7712 1.60614 12.7712C1.84706 12.7712 2.00767 12.7712 2.24859 12.8515V1.52821C2.24859 1.44791 2.24859 1.28729 2.48951 1.28729C2.56982 1.28729 2.65013 1.28729 2.73043 1.28729L25.377 8.03307C25.8588 8.19368 26.2603 8.67553 26.2603 8.99675V23.5323C26.2603 23.6126 26.2603 23.7732 26.0194 23.7732C25.9391 23.7732 25.8588 23.7732 25.7785 23.7732L20.5586 22.2474V23.5323L25.377 24.9778C25.5376 25.0581 25.7785 25.0581 25.9391 25.0581C26.7422 25.0581 27.465 24.496 27.465 23.6929V23.6126V9.07706C27.465 8.11338 26.6619 7.1497 25.6982 6.90877ZM17.266 27.4673C16.3826 27.4673 15.6598 26.7446 15.6598 25.8612V10.7635C15.6598 9.88013 16.3826 9.15737 17.266 9.15737C18.1494 9.15737 18.8721 9.88013 18.8721 10.7635V25.8612C18.8721 26.7446 18.1494 27.4673 17.266 27.4673Z" fill="white"/>
<path d="M35.0132 14.8596V18.6341H33.8086V8.5957H36.539C37.583 8.5957 38.4664 8.83662 39.0285 9.39877C39.5907 9.96092 39.9119 10.6837 39.9119 11.6474C39.9119 12.611 39.5907 13.4141 38.9482 13.9763C38.3058 14.5384 37.4224 14.8596 36.2981 14.8596H35.0132ZM35.0132 9.72V13.8157H36.2178C37.0209 13.8157 37.6633 13.655 38.0649 13.2535C38.4664 12.852 38.7073 12.3701 38.7073 11.6474C38.7073 10.3625 37.9042 9.63969 36.3784 9.63969H35.0132V9.72ZM44.3288 18.875C43.2848 18.875 42.4014 18.5538 41.759 17.831C41.1165 17.1082 40.7953 16.3052 40.7953 15.1809C40.7953 13.9763 41.1165 13.0126 41.759 12.3701C42.4014 11.7277 43.2848 11.3261 44.4091 11.3261C45.4531 11.3261 46.3365 11.6474 46.8986 12.2898C47.4608 12.9323 47.782 13.896 47.782 15.0203C47.782 16.1446 47.4608 17.1082 46.8183 17.7507C46.1759 18.3931 45.4531 18.7947 44.3288 18.875ZM44.4091 12.2898C43.6863 12.2898 43.1242 12.5307 42.6424 13.0126C42.2408 13.4944 41.9999 14.2172 41.9999 15.1006C41.9999 15.9839 42.2408 16.6264 42.6424 17.1082C43.0439 17.5901 43.6863 17.831 44.4091 17.831C45.1319 17.831 45.694 17.5901 46.0955 17.1082C46.4971 16.6264 46.6577 15.9036 46.6577 15.0203C46.6577 14.1369 46.4971 13.4141 46.0955 12.9323C45.7743 12.5307 45.1319 12.2898 44.4091 12.2898ZM58.6234 11.4868L56.4551 18.6341H55.2505L53.805 13.5747C53.7247 13.4141 53.7247 13.1732 53.7247 12.9323C53.7247 13.1732 53.6444 13.3338 53.5641 13.5747L51.9579 18.7144H50.8337L48.6654 11.5671H49.7897L51.2352 16.9476C51.3155 17.1082 51.3155 17.3492 51.3155 17.5901H51.3958C51.3958 17.3492 51.4761 17.1082 51.5564 16.9476L53.2429 11.5671H54.2868L55.7324 16.9476C55.8127 17.1082 55.8127 17.3492 55.8127 17.5901H55.893C55.893 17.4295 55.9733 17.1885 55.9733 16.9476L57.4188 11.5671L58.6234 11.4868ZM65.4495 15.3415H60.3902C60.3902 16.1446 60.6311 16.787 61.0326 17.1885C61.4342 17.5901 61.9963 17.831 62.7191 17.831C63.5221 17.831 64.2449 17.5901 64.9677 17.0279V18.0719C64.3252 18.5538 63.5221 18.7947 62.4782 18.7947C61.4342 18.7947 60.6311 18.4735 60.0689 17.831C59.5068 17.1885 59.1856 16.2249 59.1856 15.1006C59.1856 13.9763 59.5068 13.0929 60.1493 12.3701C60.7917 11.6474 61.5948 11.3261 62.4782 11.3261C63.3615 11.3261 64.1646 11.6474 64.6464 12.2095C65.1283 12.7717 65.4495 13.655 65.4495 14.7793V15.3415ZM64.3252 14.3778C64.3252 13.7353 64.1646 13.1732 63.8434 12.852C63.5221 12.4504 63.1206 12.2898 62.5585 12.2898C62.0766 12.2898 61.5145 12.5307 61.1932 12.852C60.7917 13.2535 60.5508 13.7353 60.4705 14.3778H64.3252ZM70.9104 12.6914C70.7498 12.5307 70.4285 12.4504 70.027 12.4504C69.5452 12.4504 69.1436 12.6914 68.8224 13.1732C68.5012 13.655 68.3405 14.2975 68.3405 15.1006V18.7947H67.2163V11.6474H68.2602V13.0929C68.4209 12.611 68.6618 12.2095 68.983 11.8883C69.3042 11.5671 69.7058 11.4868 70.1073 11.4868C70.4285 11.4868 70.6694 11.4868 70.8301 11.5671L70.9104 12.6914ZM76.2106 18.7144V8.5957H79.1017C79.9851 8.5957 80.6275 8.83662 81.1897 9.23816C81.7518 9.63969 81.9124 10.2018 81.9124 10.9246C81.9124 11.4868 81.7518 11.9686 81.4306 12.4504C81.1093 12.9323 80.7078 13.1732 80.1457 13.3338C80.7881 13.4141 81.3503 13.655 81.7518 14.1369C82.1533 14.6187 82.3943 15.1006 82.3943 15.8233C82.3943 16.7067 82.073 17.3492 81.4306 17.9113C80.7881 18.4734 80.0654 18.7144 79.1017 18.7144C79.182 18.7144 76.2106 18.7144 76.2106 18.7144ZM77.4152 9.72V12.9323H78.6198C79.2623 12.9323 79.7441 12.7717 80.1457 12.4504C80.5472 12.1292 80.7078 11.7277 80.7078 11.1655C80.7078 10.2018 80.0654 9.72 78.7804 9.72H77.4152ZM77.4152 13.9763V17.5901H79.0214C79.7441 17.5901 80.226 17.4295 80.6275 17.1082C81.029 16.787 81.1897 16.3052 81.1897 15.743C81.1897 14.5384 80.3866 13.9763 78.7804 13.9763H77.4152ZM85.4459 18.7144H84.3216V8.5957H85.5262V18.7144H85.4459Z" fill="white"/>
</svg>
