<svg width="33" height="33" viewBox="0 0 33 33" fill="none" xmlns="http://www.w3.org/2000/svg">
<path d="M16.6014 22.4763C25.2178 22.4763 32.2027 19.8093 32.2027 16.5194C32.2027 13.2295 25.2178 10.5625 16.6014 10.5625C7.98497 10.5625 1 13.2295 1 16.5194C1 19.8093 7.98497 22.4763 16.6014 22.4763Z" stroke="white"/>
<path d="M24.4319 30.0216C27.2809 28.3767 26.0981 20.9942 21.7899 13.5324C17.4817 6.07061 11.6796 1.35513 8.83054 3.00007C5.98149 4.64502 7.16436 12.0275 11.4726 19.4893C15.7808 26.9511 21.5828 31.6666 24.4319 30.0216Z" stroke="white"/>
<path d="M21.8114 19.4676C26.1196 12.0058 27.3024 4.62332 24.4534 2.97837C21.6043 1.33342 15.8022 6.04891 11.494 13.5107C7.18584 20.9725 6.00297 28.355 8.85202 29.9999C11.7011 31.6449 17.5032 26.9294 21.8114 19.4676Z" stroke="white"/>
</svg>
