<svg width="94" height="17" viewBox="0 0 94 17" fill="none" xmlns="http://www.w3.org/2000/svg">
<path d="M19.0894 14.1056C20.1194 14.1056 20.9709 13.7211 21.5065 13.1717C21.6438 13.0481 21.8361 13.0207 22.0009 13.1031L23.8687 14.1743C24.006 14.2429 24.0472 14.4215 23.9785 14.5451C23.9648 14.5588 23.9648 14.5725 23.9511 14.5863C22.8524 16.0145 21.1632 16.8248 19.0482 16.8248C15.1205 16.8248 12.6484 14.1331 12.6484 10.6585C12.6484 7.18394 15.1479 4.49219 18.8148 4.49219C22.2756 4.49219 24.7201 7.22514 24.7201 10.6585C24.7201 10.9881 24.6927 11.3314 24.6377 11.661C24.624 11.7984 24.5004 11.8945 24.3631 11.8945H15.9857C15.9033 11.8945 15.8483 11.9494 15.8483 12.0318C15.8483 12.0456 15.8483 12.0593 15.8621 12.073C16.329 13.5151 17.565 14.1056 19.0894 14.1056ZM21.534 9.57356C21.6164 9.57356 21.6713 9.51863 21.6713 9.43622C21.6713 9.42249 21.6713 9.40876 21.6713 9.39503C21.2593 7.84315 20.037 7.21141 18.8148 7.21141C17.2629 7.21141 16.1917 8.00795 15.8071 9.39503C15.7934 9.46369 15.8346 9.54609 15.9033 9.55983C15.917 9.55983 15.9307 9.55983 15.9445 9.55983H21.534V9.57356Z" fill="white"/>
<path d="M29.8156 7.73213V12.8135C29.8156 14.0083 30.6258 14.0907 32.164 14.022C32.3151 14.0083 32.4387 14.1319 32.4524 14.283V14.2967V16.4941C32.4524 16.6314 32.3425 16.755 32.2052 16.7687C28.1676 17.1533 26.8079 15.9173 26.8079 12.8135V7.73213H25.0501C24.899 7.73213 24.7754 7.60853 24.7754 7.45746V5.12278C24.7754 4.97171 24.899 4.84811 25.0501 4.84811H26.8079V2.78809C26.8079 2.60956 26.9315 2.44475 27.0963 2.38982L29.4585 1.67568C29.6096 1.63448 29.7606 1.71688 29.8018 1.85422C29.8156 1.88168 29.8156 1.90915 29.8156 1.93662V4.84811H32.1777C32.3288 4.84811 32.4524 4.97171 32.4524 5.12278V7.45746C32.4524 7.60853 32.3288 7.73213 32.1777 7.73213H29.8156Z" fill="white"/>
<path d="M44.9915 5.12386V16.248C44.9915 16.399 44.8679 16.5226 44.7168 16.5226H42.2586C42.1075 16.5226 41.9839 16.399 41.9839 16.248V15.1493C41.1461 16.2068 39.8827 16.8522 38.1797 16.8522C35.076 16.8522 32.5078 14.1605 32.5078 10.6859C32.5078 7.21135 35.076 4.50586 38.1797 4.50586C39.8827 4.50586 41.1461 5.16506 41.9839 6.20881V5.11013C41.9839 4.95906 42.1075 4.83546 42.2586 4.83546H44.7168C44.8679 4.8492 44.9915 4.9728 44.9915 5.12386ZM41.9839 10.6859C41.9839 8.72203 40.6105 7.38988 38.7428 7.38988C36.9025 7.38988 35.5154 8.72203 35.5154 10.6859C35.5154 12.6498 36.8888 13.9819 38.7428 13.9819C40.6105 13.9682 41.9839 12.6361 41.9839 10.6859Z" fill="white"/>
<path d="M46.0358 1.93708C46.0084 0.893341 46.8324 0.0281341 47.8761 0.000667255C48.9198 -0.0267996 49.7851 0.797207 49.8125 1.82721C49.8125 1.85468 49.8125 1.89588 49.8125 1.92335C49.7851 2.96709 48.9198 3.77736 47.8761 3.7499C46.8736 3.73616 46.0633 2.93962 46.0358 1.93708ZM46.695 4.84857H49.1533C49.3044 4.84857 49.428 4.97217 49.428 5.12324V16.2473C49.428 16.3984 49.3044 16.522 49.1533 16.522H46.695C46.544 16.522 46.4204 16.3984 46.4204 16.2473V5.12324C46.4204 4.97217 46.544 4.84857 46.695 4.84857Z" fill="white"/>
<path d="M51.1028 0.0419922H53.5611C53.7121 0.0419922 53.8357 0.165593 53.8357 0.302928V16.2475C53.8357 16.3985 53.7121 16.5084 53.5611 16.5084H51.1028C50.9517 16.5084 50.8281 16.3848 50.8281 16.2475V0.302928C50.8419 0.15186 50.9517 0.0419922 51.1028 0.0419922Z" fill="white"/>
<path d="M55.2363 10.6722C55.2363 7.19761 57.8457 4.50586 61.4026 4.50586C63.5863 4.50586 65.4952 5.60453 66.4977 7.26628C66.5801 7.38988 66.5389 7.56842 66.4016 7.65082L64.3965 8.81816C64.2043 8.92803 63.9708 8.87309 63.8472 8.69456C63.3253 7.92549 62.4189 7.45855 61.3752 7.45855C59.5761 7.45855 58.244 8.79069 58.244 10.6584C58.244 12.4987 59.5761 13.8309 61.3752 13.8309C62.4464 13.8309 63.3528 13.3777 63.8747 12.6223C63.9983 12.4438 64.2317 12.3889 64.424 12.4987L66.4428 13.6523C66.5801 13.721 66.6213 13.8995 66.5389 14.0231V14.0369C65.4265 15.7947 63.4901 16.8522 61.4026 16.8248C57.8594 16.8385 55.2363 14.1605 55.2363 10.6722Z" fill="white"/>
<path d="M74.504 4.88899V7.66315C74.504 7.81422 74.3804 7.93782 74.2293 7.93782H74.2156C72.7049 7.86915 70.9608 8.62449 70.9608 10.9317V16.2465C70.9608 16.3976 70.8372 16.5212 70.6861 16.5212H68.2278C68.0767 16.5212 67.9531 16.3976 67.9531 16.2465V5.12246C67.9531 4.97139 68.0767 4.84779 68.2278 4.84779H70.6861C70.8372 4.84779 70.9608 4.97139 70.9608 5.12246V6.85288C71.5238 5.36966 72.856 4.69673 74.2156 4.61433C74.3666 4.60059 74.4902 4.72419 74.504 4.87526V4.88899Z" fill="white"/>
<path d="M93.2222 9.3263V16.248C93.2222 16.399 93.0986 16.5226 92.9475 16.5226H90.4892C90.3381 16.5226 90.2145 16.399 90.2145 16.248V9.5323C90.2145 8.15895 89.5141 7.30748 88.2507 7.30748C86.9185 7.30748 86.0808 8.20016 86.0808 9.9443V16.2342C86.0808 16.3853 85.9572 16.5089 85.8061 16.5089H83.3478C83.1968 16.5089 83.0732 16.3853 83.0732 16.2342V9.5323C83.0732 8.15895 82.3727 7.30748 81.1093 7.30748C79.8321 7.30748 78.9119 8.20016 78.9119 9.9443V16.2342C78.9119 16.3853 78.7883 16.5089 78.6372 16.5089H76.179C76.0279 16.5089 75.9043 16.3853 75.9043 16.2342V5.11013C75.9043 4.95906 76.0279 4.83546 76.179 4.83546H78.6372C78.7883 4.83546 78.9119 4.95906 78.9119 5.11013V6.07147C79.5711 5.0964 80.6698 4.50586 82.153 4.50586C83.595 4.50586 84.68 5.11013 85.3254 6.18134C86.0533 5.12386 87.2206 4.50586 88.8 4.50586C91.478 4.51959 93.2222 6.40107 93.2222 9.3263Z" fill="white"/>
<path d="M12.0992 4.49219H2.14242C0.961341 4.49219 0 5.45353 0 6.6346V16.5913C0 16.7424 0.123601 16.866 0.274669 16.866H2.76042C2.91149 16.866 3.03509 16.7424 3.03509 16.5913V11.1666C3.03509 10.6036 2.85656 10.0405 2.52695 9.57356L1.52441 8.14528L9.77821 16.3991C9.88808 16.5089 10.0529 16.5089 10.1627 16.3991L11.9206 14.6412C12.0305 14.5313 12.0305 14.3665 11.9206 14.2567L3.66683 6.0166L5.08137 7.01914C5.54831 7.34874 6.09765 7.52728 6.66072 7.52728H12.0854C12.2365 7.52728 12.3601 7.40368 12.3601 7.25261V4.76686C12.3738 4.61579 12.2502 4.49219 12.0992 4.49219Z" fill="white"/>
<path d="M0.274669 0.0419922H12.0992C12.2502 0.0419922 12.3738 0.165593 12.3738 0.316661V2.81615C12.3738 2.96722 12.2502 3.09082 12.0992 3.09082H0.274669C0.123601 3.09082 0 2.96722 0 2.81615V0.316661C0 0.165593 0.123601 0.0419922 0.274669 0.0419922Z" fill="white"/>
</svg>
