<svg width="54" height="27" viewBox="0 0 54 27" fill="none" xmlns="http://www.w3.org/2000/svg">
<path d="M19.4945 10.3027L17.7969 15.5712C18.2652 15.7468 18.8506 15.8639 19.4945 15.8639C20.0799 15.8639 20.6653 15.7468 21.1336 15.5712L19.4945 10.3027Z" fill="white"/>
<path d="M31.9032 8.60547H30.7324V12.8202H31.9032C33.4252 12.8202 34.6545 12.2934 34.6545 10.6543C34.6545 9.13232 33.4252 8.60547 31.9032 8.60547Z" fill="white"/>
<path d="M0 0V26.3423H26.9277L53.27 0H0ZM32.4303 16.4493H30.7327V21.0738H22.7715L22.2446 19.0835C21.4251 19.3762 20.4885 19.4933 19.4933 19.4933C18.4981 19.4933 17.503 19.3177 16.6835 19.025L15.8639 21.0738H11.415L11.5906 20.0201C11.5321 20.0787 11.4735 20.1372 11.415 20.1958C10.2442 21.1324 8.72223 21.6007 6.90754 21.6007L6.43923 21.6592C4.33184 21.6592 2.45861 21.1324 0.702461 20.1372L2.34154 16.9761C4.09769 18.0298 5.20992 18.264 6.67338 18.2055C7.43438 18.2055 8.01977 18.0298 8.371 17.6786C8.60515 17.4445 8.72223 17.1518 8.72223 16.8591C8.72223 16.0395 7.55146 15.6298 6.088 15.1615C4.91723 14.8102 3.57085 14.2834 2.51715 13.5224C1.28785 12.5858 0.702461 11.4735 0.702461 9.83446C0.702461 8.66369 1.17077 7.61 1.93177 6.79046C3.10254 5.61969 4.91723 4.85869 7.20023 4.85869C9.132 4.85869 11.4735 5.38554 13.1126 6.26361L11.2979 9.42469C9.42469 8.54661 8.48807 8.42954 7.43438 8.371C5.85384 8.31246 5.09284 8.8393 5.03431 9.42469C5.03431 10.1857 6.49777 10.8296 7.90269 11.2979C10.0686 12.0004 12.7614 12.8785 13.1711 15.5127L17.2688 5.26846H21.8348L26.3423 17.6201V5.26846H31.6108C36.6451 5.26846 38.9866 6.96607 38.9866 10.8296C38.9866 14.3419 36.528 16.4493 32.4303 16.4493Z" fill="white"/>
</svg>
