<svg width="62" height="33" viewBox="0 0 62 33" fill="none" xmlns="http://www.w3.org/2000/svg">
<path d="M14.4614 0C14.9647 0.0560724 15.468 0.112145 15.9713 0.160207C18.1495 0.352455 20.2728 0.777003 22.2937 1.63411C23.2138 2.02662 24.0867 2.51525 24.8337 3.19613C25.7381 4.02119 26.2413 5.02248 26.2413 6.28812C26.2335 10.053 26.2413 13.8178 26.2413 17.5827C26.2413 20.4424 26.1706 23.2941 26.2649 26.1538C26.3357 28.2845 25.3606 29.6623 23.662 30.6716C21.8848 31.729 19.9268 32.2576 17.9136 32.5941C15.5624 32.9946 13.1954 33.0987 10.8284 32.9065C8.11539 32.6822 5.44958 32.2096 2.99609 30.9199C1.99739 30.3912 1.10093 29.7344 0.495416 28.7251C0.173003 28.1724 0 27.5796 0 26.9388C0 19.9618 0 12.9768 0.00786375 5.99974C0.00786375 4.98243 0.456098 4.14936 1.14811 3.44445C2.18612 2.38708 3.46792 1.76227 4.82834 1.28165C6.97515 0.528682 9.18486 0.168217 11.4496 0.0720931C11.6148 0.0640827 11.7878 0.024031 11.9529 0C12.7865 0 13.6279 0 14.4614 0ZM12.8022 2.38708C12.4247 2.4031 11.7406 2.42713 11.0643 2.47519C9.04332 2.61137 7.06165 2.9478 5.16649 3.68476C4.29361 4.02119 3.45219 4.42972 2.79163 5.12662C2.20971 5.7354 2.18612 6.2721 2.79163 6.85685C3.17696 7.22533 3.62519 7.55375 4.09702 7.80207C5.99218 8.81137 8.06035 9.25995 10.16 9.43618C11.717 9.56435 13.2976 9.56435 14.8625 9.52429C16.8363 9.48424 18.7629 9.12378 20.6345 8.46693C21.6489 8.10646 22.6476 7.68993 23.4261 6.88889C24.0867 6.2 24.0709 5.71137 23.3868 5.04651C23.3239 4.98243 23.2531 4.91034 23.1745 4.86228C22.4038 4.43773 21.6725 3.93308 20.8625 3.62067C18.3619 2.66744 15.7511 2.4031 12.8022 2.38708ZM2.35126 9.56435C2.35126 10.6778 2.39058 11.7031 2.33553 12.7284C2.29622 13.4654 2.61863 13.954 3.1455 14.3545C3.44432 14.5868 3.76674 14.7951 4.10488 14.9713C5.58326 15.7483 7.18747 16.1569 8.81527 16.4212C10.9306 16.7656 13.0617 16.8297 15.2006 16.6695C16.97 16.5414 18.7079 16.269 20.3986 15.7003C21.3815 15.3718 22.3409 14.9713 23.1588 14.2985C23.6542 13.8899 23.9609 13.4093 23.9137 12.7204C23.8744 12.0716 23.9058 11.4147 23.9058 10.7579C23.9058 10.3734 23.9058 9.9969 23.9058 9.55634C20.5087 11.4708 16.8678 11.9674 13.1482 11.9674C9.41291 11.9755 5.75627 11.4868 2.35126 9.56435ZM23.8744 16.7336C20.4929 18.616 16.8599 19.1287 13.1403 19.1287C9.40505 19.1287 5.75627 18.632 2.37485 16.7336C2.36699 16.9098 2.35913 17.038 2.35913 17.1742C2.35913 17.9592 2.4299 18.7602 2.3434 19.5372C2.21758 20.6186 2.72872 21.2835 3.55442 21.7961C3.82965 21.9724 4.12061 22.1406 4.41157 22.2768C6.70778 23.3582 9.16127 23.7747 11.6541 23.8548C13.219 23.9109 14.7996 23.8228 16.3566 23.7026C18.1417 23.5664 19.8874 23.1739 21.5152 22.4129C22.2072 22.0925 22.8363 21.6119 23.4576 21.1553C23.7957 20.907 23.9215 20.4985 23.9137 20.0499C23.8979 19.0886 23.9058 18.1274 23.9058 17.1662C23.8979 17.038 23.8901 16.9098 23.8744 16.7336ZM2.35126 23.8788C2.35126 24.8801 2.36699 25.8173 2.3434 26.7625C2.33553 27.2111 2.48495 27.5716 2.79163 27.868C2.99609 28.0682 3.21628 28.2685 3.45219 28.4287C5.08785 29.5181 6.94369 29.9667 8.83886 30.2791C10.9228 30.6155 13.0302 30.6956 15.1377 30.5354C16.8363 30.4073 18.5191 30.1589 20.1469 29.6463C21.24 29.3018 22.2937 28.8773 23.1902 28.1243C23.5755 27.8039 23.8979 27.4434 23.8979 26.8907C23.8979 25.9855 23.8979 25.0724 23.8979 24.1672C23.8979 24.0871 23.8665 23.999 23.8508 23.8948C20.4851 25.7693 16.852 26.2739 13.1246 26.2739C9.39718 26.2739 5.772 25.7693 2.35126 23.8788Z" fill="white"/>
<path d="M46.8676 25.4413C46.8676 25.217 46.8676 25.0568 46.8676 24.8966C46.8676 23.0943 46.8834 21.2919 46.8598 19.4896C46.8519 19.0651 46.9934 18.9609 47.3709 18.985C47.8506 19.017 48.3381 19.001 48.8257 18.993C49.0852 18.985 49.1796 19.0891 49.1717 19.3454C49.1638 19.81 49.1717 20.2666 49.1717 20.7633C49.7222 20.7312 50.0918 20.4829 50.422 20.1465C51.9791 18.5364 52.1285 15.9571 50.7602 14.0987C50.194 13.3297 49.502 12.7369 48.5426 12.5687C47.0878 12.3124 45.924 12.849 44.9882 13.9705C43.6907 15.5245 43.2818 18.0958 45.0826 19.8341C45.1848 19.9382 45.287 20.0584 45.4128 20.1144C45.9318 20.3547 46.0341 20.7713 46.0026 21.308C45.9633 22.0049 45.9948 22.7098 45.9948 23.4708C45.0668 23.1904 44.2962 22.7498 43.6042 22.1731C42.2988 21.0677 41.418 19.6899 41.1743 17.9596C40.553 13.578 43.6278 10.3178 46.9148 9.99737C49.0773 9.7891 51.004 10.2457 52.561 11.8638C53.6698 13.0173 54.2202 14.4351 54.3854 16.0211C54.6213 18.3041 54.0551 20.3307 52.4745 22.0209C51.696 22.854 50.7523 23.4147 49.6593 23.695C49.3604 23.7671 49.2818 23.9033 49.2975 24.1917C49.3133 24.5121 49.3211 24.8325 49.2897 25.1529C49.2818 25.2571 49.156 25.4413 49.0773 25.4413C48.3696 25.4493 47.654 25.4413 46.8676 25.4413Z" fill="white"/>
<path d="M31.9268 20.8909C33.0671 20.9229 34.1444 20.987 35.2296 20.987C35.6778 20.987 36.1418 20.9149 36.5821 20.7948C37.2112 20.6266 37.3528 20.226 36.9203 19.7374C36.3934 19.1446 35.78 18.648 35.2139 18.0953C34.4118 17.3103 33.5782 16.5573 32.8469 15.7082C32.2099 14.9632 31.8954 14.034 31.801 13.0408C31.6988 12.0154 32.0919 11.2144 32.9727 10.7017C33.6961 10.2772 34.4983 10.141 35.3161 10.133C36.535 10.117 37.7538 10.133 38.9727 10.125C39.2637 10.125 39.3974 10.2051 39.3816 10.5335C39.3581 11.0943 39.3581 11.655 39.3816 12.2157C39.3974 12.5762 39.2873 12.6563 38.9334 12.6402C37.9033 12.5922 36.8731 12.5842 35.8351 12.5922C35.5599 12.5922 35.2689 12.6883 35.0015 12.7924C34.4353 13.0247 34.3174 13.4893 34.7499 13.9139C35.3161 14.4666 35.953 14.9392 36.535 15.4759C37.3685 16.2369 38.2414 16.9738 38.9963 17.8149C39.7119 18.616 40.0265 19.6173 39.7906 20.7147C39.4681 22.2687 38.3672 23.0136 36.9675 23.3821C36.5271 23.4943 36.0631 23.5263 35.607 23.5343C34.4904 23.5583 33.3816 23.5343 32.2649 23.5423C31.9976 23.5423 31.8954 23.4542 31.9032 23.1738C31.9425 22.4129 31.9268 21.6519 31.9268 20.8909Z" fill="white"/>
<path d="M55.7766 10.125C56.6259 10.125 57.4359 10.125 58.2459 10.125C58.5368 10.125 58.4896 10.3413 58.4896 10.5255C58.4896 12.0315 58.4896 13.5454 58.4896 15.0514C58.4896 16.293 58.5054 17.5346 58.4896 18.7762C58.4739 19.6893 58.9615 20.5865 60.1332 20.6025C60.5893 20.6105 61.0454 20.6666 61.5093 20.6586C61.8081 20.6586 61.8946 20.7627 61.8868 21.0591C61.8711 21.74 61.8632 22.4209 61.8868 23.1018C61.8946 23.4142 61.7767 23.4862 61.4936 23.4862C60.4949 23.4702 59.5041 23.4542 58.5054 23.4862C57.4359 23.5183 56.681 23.0216 56.2092 22.1085C55.9811 21.6759 55.7924 21.1552 55.7845 20.6746C55.7452 17.2462 55.7609 13.8098 55.7609 10.3813C55.7531 10.3172 55.7609 10.2532 55.7766 10.125Z" fill="white"/>
</svg>
