<svg width="38" height="38" viewBox="0 0 38 38" fill="none" xmlns="http://www.w3.org/2000/svg">
<path d="M10.5391 22.5996C11.8891 25.7496 15.3991 27.9996 18.9991 27.9996C22.5991 27.9996 26.0191 25.7496 27.4591 22.5996" stroke="black" stroke-width="2" stroke-miterlimit="8" stroke-linecap="square"/>
<path d="M13.6002 15.0398C13.4202 15.0398 13.2402 15.0398 13.0602 14.9498C12.8802 14.8598 12.7002 14.7698 12.6102 14.6798C12.3402 14.4098 12.1602 14.0498 12.1602 13.6898C12.1602 13.5098 12.1602 13.3298 12.2502 13.1498C12.3402 12.9698 12.4302 12.7898 12.5202 12.6998C12.7002 12.6098 12.7902 12.4298 12.9702 12.4298C13.5102 12.2498 14.1402 12.3398 14.5902 12.6998C14.6802 12.8798 14.8602 12.9698 14.8602 13.1498C14.9502 13.3298 14.9502 13.5098 14.9502 13.6898C14.9502 13.7798 14.9502 13.8698 14.9502 13.9598C14.9502 14.0498 14.9502 14.1398 14.8602 14.2298C14.8602 14.3198 14.7702 14.4098 14.7702 14.4998C14.7702 14.5898 14.6802 14.6798 14.5902 14.6798C14.5002 14.7698 14.4102 14.7698 14.4102 14.8598C14.3202 14.9498 14.2302 14.9498 14.1402 14.9498C14.0502 14.9498 13.9602 15.0398 13.8702 15.0398C13.7802 15.0398 13.6902 15.0398 13.6002 15.0398Z" fill="black"/>
<path d="M24.4009 15.0398C24.2209 15.0398 24.0409 15.0398 23.8609 14.9498C23.6809 14.8598 23.5009 14.7698 23.4109 14.6798C23.1409 14.4098 22.9609 14.0498 22.9609 13.6898C22.9609 13.3298 23.1409 12.9698 23.4109 12.6998C23.5909 12.6098 23.6809 12.4298 23.8609 12.4298C24.4009 12.2498 25.0309 12.3398 25.4809 12.6998C25.7509 12.9698 25.9309 13.3298 25.9309 13.6898C25.9309 13.8698 25.9309 14.0498 25.8409 14.2298C25.7509 14.4098 25.6609 14.5898 25.5709 14.6798C25.4809 14.7698 25.3909 14.7698 25.3909 14.8598C25.3009 14.9498 25.2109 14.9498 25.1209 14.9498C25.0309 14.9498 24.9409 15.0398 24.8509 15.0398C24.5809 15.0398 24.4909 15.0398 24.4009 15.0398Z" fill="black"/>
<path d="M19 37C28.9411 37 37 28.9411 37 19C37 9.05887 28.9411 1 19 1C9.05887 1 1 9.05887 1 19C1 28.9411 9.05887 37 19 37Z" stroke="black" stroke-width="2" stroke-miterlimit="8" stroke-linecap="square"/>
</svg>
