<svg width="19" height="19" viewBox="0 0 19 19" fill="none" xmlns="http://www.w3.org/2000/svg">
<path d="M5.451 9.5899C6.28962 11.3281 7.72724 12.7666 9.46437 13.6057C9.70398 13.7256 10.0634 13.7256 10.303 13.5457L12.8787 11.8076C13.1183 11.6278 13.4178 11.6278 13.6575 11.7476L18.5094 13.8454C18.8688 13.9653 19.0485 14.3249 18.9886 14.6845C18.6891 17.142 16.5327 19 14.0768 19C6.28962 19 0 12.7066 0 4.91483C0 2.39748 1.85693 0.299685 4.31288 0C4.73219 0 5.09159 0.179811 5.2114 0.539432L7.30793 5.39432C7.42774 5.63407 7.36784 5.93375 7.24803 6.1735L5.5109 8.81073C5.3312 9.05047 5.3312 9.35016 5.451 9.5899Z" fill="white"/>
</svg>
