<svg width="24" height="24" viewBox="0 0 24 24" fill="none" xmlns="http://www.w3.org/2000/svg">
<path d="M6.88547 12.1136C7.94478 14.3091 9.76073 16.1262 11.955 17.1861C12.2577 17.3375 12.7116 17.3375 13.0143 17.1104L16.2679 14.9148C16.5705 14.6877 16.9489 14.6877 17.2515 14.8391L23.3803 17.489C23.8343 17.6404 24.0613 18.0946 23.9857 18.5489C23.6073 21.653 20.8834 24 17.7812 24C7.94478 24 0 16.0505 0 6.2082C0 3.02839 2.3456 0.378549 5.44785 0C5.9775 0 6.43149 0.227129 6.58282 0.681388L9.23107 6.81388C9.3824 7.11672 9.30674 7.49527 9.15541 7.79811L6.96114 11.1293C6.73414 11.4322 6.73414 11.8107 6.88547 12.1136Z" fill="black"/>
</svg>
